/* XPM */
static char *f854c5f401044ee5e6834c7a771fe7ca36Bhpoyc61404wXZ[] = {
/* columns rows colors chars-per-pixel */
"128 128 80 1 ",
"  c #050505",
". c #080703",
"X c #0A0906",
"o c #120E06",
"O c #151107",
"+ c #181307",
"@ c #121109",
"# c #1E1909",
"$ c #221B06",
"% c #251F0C",
"& c #231E11",
"* c #26200E",
"= c #2B240C",
"- c #34290C",
"; c #392E0A",
": c #3E340D",
"> c #262011",
", c #44360D",
"< c #46390E",
"1 c #4B3C0E",
"2 c #503F0F",
"3 c #463910",
"4 c #493B10",
"5 c #52410E",
"6 c #5A460B",
"7 c #5D490B",
"8 c #5D4A12",
"9 c #634C0B",
"0 c #694F0A",
"q c #67500C",
"w c #6B530B",
"e c #72570D",
"r c #765B0E",
"t c #795D0E",
"y c #634E12",
"u c #665012",
"i c #6C5511",
"p c #705711",
"a c #715811",
"s c #7E600E",
"d c #82640E",
"f c #8B6A0F",
"g c #8A6B12",
"h c #937113",
"j c #9A7510",
"k c #9F7A15",
"l c #A57C0F",
"z c #A37D15",
"x c #A27F18",
"c c #BB8E0F",
"v c #BE900F",
"b c #A78112",
"n c #A78014",
"m c #A88111",
"M c #AC8312",
"N c #AD8412",
"B c #B68B12",
"V c #B78C11",
"C c #BA8D10",
"Z c #BD8F11",
"A c #BF9011",
"S c #C29410",
"D c #CD9910",
"F c #DCA511",
"G c #DFA811",
"H c #F5B40F",
"J c #F6B50E",
"K c #F8B70F",
"L c #F7B80F",
"P c #F8B80F",
"I c #E1A910",
"U c #E5AA10",
"Y c #EBAF12",
"T c #EEB111",
"R c #F5B610",
"E c #F7B710",
"W c #F8B710",
"Q c #F7B911",
"! c #F7BB14",
"~ c #F8B810",
/* pixels */
"                                                                                                                                ",
"                                                                                                                                ",
"                                                                                                                                ",
"                                                                                                                                ",
"                                                                                                                                ",
"                                                                                                                                ",
"                                                                                                                                ",
"                                                                                                                                ",
"                                                                                                                                ",
"                                                                                                                                ",
"                                                                                                                                ",
"                                                                                                                                ",
"                                                                                                                                ",
"                                                                                                                                ",
"                                                                                                                                ",
"                                                                                                                                ",
"                                                                                                                                ",
"                                                                                                                                ",
"                                                                                                                                ",
"                                                                                                                                ",
"                                        ,zkkzzzzzzzzzkzzzzzzzzzznzzzzzzkkzzzzzzzzzkzzzxX                                        ",
"                                        6JJJJJJJJJJJJJJJJJJJJJJKJJJJJJJJJJJJJJJJJJJJJJ!o                                        ",
"                                        9JJJJJJJJKJJJJJJJJJJJJJJKJJJJJJJJJJJJEJJJJJJEJ!O                                        ",
"                                        9JJJJJJJJJJKKKJWJLJJJJJJJJJJJJLLJKJJKWKJJJJJJJQo                                        ",
"                                        9JJJJJJJPJJJJJJLJJJJJJJPJJJJJJJLJJJ~JJJJJJJJKJ~O                                        ",
"                                        9JJJJJLLJJJJJLLJJEJJKJKJKJJJJJLJJJJLJJJJJKJJKJQO                                        ",
"                                        9JJJJJWJJJJJJLJLJJJJJJJJLJPJJJJLJPLJJLJJJJJJJJ!o                                        ",
"                                 ;wrrrrrlJJJJJJJJJJKJJJJJJJWJLPJLJLJJJJKKJLKJJJJJJJJJLLdtrtttt=                                 ",
"                                 wEJJJJJJJJJJKJLJJJJJJJJPJLLJJJJJJKKJKJJJJJJJJJJJJKJJJJKJJJJJJ7                                 ",
"                                 wJJJJJJJJJPJJJJKJJJJJJJJLLJ~JJKKJJJJJJJJJ~JQLJJJJKJJJJJJJJJJJ6                                 ",
"                                 wJJJJJJJJJJKJLLLJJJJJJJJKLJJJJJJJJJ~JQJLJ~LJJJJJJJJLJJJJJJJJJ6                                 ",
"                                 wJJJJJPJJJJJJJJJKLJJJJJJJLJJJJJKJJJKJL~KJJJPLJJJJJJLJJJJJJJJJ5                                 ",
"                                 eJJJJJJJJJKJJJLLJJJJJKJJJJJKJJJJJJJJJWKJJJJJJJJJJJJJJJJJKJJJJ7                                 ",
"                                 wJJJJJJJJJWJJJKLJJWJKPKJJJJJPKJJJJKJKJJJKJKKKJKJJJKKKLJLKJJJJ7                                 ",
"                                 wJJJJJLJKLPJJJJJJJJJUSCAZCACVvCCACABZcCACCCACCCJJKJJLLLPJJJJJ7                                 ",
"                                 wJJJJJJJPJLJJLKJJJJJmXXXXXXXXXXXXXXXXXXXXXXXXXXIJJJJLL~JJJJJJ7                                 ",
"                                 wJJLLPJJJJLLJLLJJJPJN                         .FJJJJKJJJJJJJJ6                                 ",
"                                 wJJJLJJJJLLJJLLLLJJJz                         .IJJJJKJJJJJKJJ7                                 ",
"                                 wJJJJJJJJJJPLJJPKJLJm                         .GPJJJJJJJJJJJJ7                                 ",
"                                 wJJJKJLPPJJJJKJJKJJJN                          IJJJJJJKJJKJKJ9                                 ",
"                                 wJJJJJJJLLJJJJJJJJJJm                          IKJJJJJJKJJJJJ6                                 ",
"                                 wJJLJJJLLJJJJJJKJJJJz                          IKJJKJJJJJJJJJ9                                 ",
"                                 wJJJJJJJJJJJJLLJKJJJb                          8yyuyyuiuyuyyy=                                 ",
"                                 wJJJJJLJJLLJLJLJJJJKm                                                                          ",
"                                 wEJJJJLJJLJJJJPJJLJJM                                                                          ",
"                                 wJJJJJJJJJPJLKJJJJPJN                                                                          ",
"                                 9JJJJJJJJJJJJJJJJJJJm                                                                          ",
"                                 wJJJJJJLLJJJJJJJLJPJM                                                                          ",
"                                 wJJJJJJJLJJJJJJJJJJJm                                                                          ",
"                                 qEJJJJJLLJJJ~KPJJJJJM                                                                          ",
"                                 wEJJ~JJLLJJJPLPJLJJJm                                                                          ",
"                                 wJJLLJJJJJJJJLLJJJJJM                                                                          ",
"                                 qEJLLJJJJJJJJJJJPPJJz                                                                          ",
"                                 wJJJLLJJLJJJJJKLPKJJm                                                                          ",
"                                 wJJLJLJJJJJJJJJLPJJJm.                                                                         ",
"                                 wJJJJJJJJJJJJJJPLJJJm                                                                          ",
"                                 :ghffgdlJJKJWLJJJJJJDipiiiiiiiaiiiiiiiiwipiaiaiiaaiiiiX                                        ",
"                                        6JJJJJLPJLJJJJJJJJJJJJJJJJJJJJJJJJJJJJJJJJJJJEQO                                        ",
"                                        7JJJJJJJLPJJJJJKJJKKJJJKJJJJJKJJJJPJJJJKKJJJJJQ+                                        ",
"                                        7JJJJJ~LJJJJJJJJJJJJJJJJJJ~JJJKJJJJJJJJKKJJJJJQO                                        ",
"                                        7JJJJJLJLJJJJJJKJJJKJJKJJKJJJJKKLPJJJJJKJKJJJJQO                                        ",
"                                        9JJJJJJLJJJJJKKJJJJJJJJJJJKJJJJJJJKKJJKJJJKJJJQO                                        ",
"                                        6JJJLJJPJJKJJLJJKJJJJJJJJJKJJJKJJJPPJJJJJLKJJJQO                                        ",
"                                        7KJJJJLJJJJJJJJJLJKJJLJJJKJLPLJJJJJKJJJJLJJJJJQ-***%==@                                 ",
"                                        @&&&>&&gJJJKJJJJJJLJJJJLJKJJJJJJJJJJJJJJKJJJLJJPJLJJJJ9                                 ",
"                                               rJJJJJJJKLPJJKJLJPKJJKJJJJJJJJJPLJJJJJJJJJJJJJJq                                 ",
"                                               rJJJJJJKJJJJJJKJJPJJJJJJJJJKJJLJPKKJJJJJJJJJJJJ6                                 ",
"                                               eJJJJLJJJJJJJJJJJLJJKJJJJJKKJJJJJKJJJPJLJKJJJJJ9                                 ",
"                                               rKJLLJJJJJJJJJJJJJJJJJJJJJPJJJJJJJLJJJJJKJJJJJJ7                                 ",
"                                               sJJJJJJJJJJJJJJKJJJJJJJLJJLJJJJJJJLJJJJJJJJJJJJ9                                 ",
"                                               rKKJJJJJJKJJJJJJJJKJJJJJJJJJJJJKJJJJJJJJJJJJJJJ9                                 ",
"                                               %121515555115555515111552517EJJJKJJPKJJJJJJJJJJ9                                 ",
"                                                                          $JLJJJJJJLJJJKJJJJJJw                                 ",
"                                                                          $ELJJJKJJLJKJJJJJKJJw                                 ",
"                                                                          $QJLJJJKJJKJLJJJJLKJw                                 ",
"                                                                          $QJJJJJJJJKJJLJLJJJJ9                                 ",
"                                                                          $EJJJJPJJKJLPPKPJJJJ9                                 ",
"                                                                          $EJJJJJJJPKJLJJKJJJJq                                 ",
"                                                                          $EJJJJKJJKJJJJJJJJJJ9                                 ",
"                                                                          $EJJJJJJKJJKJJJPKJJJw                                 ",
"                                                                          $QJJJJJPKPJKKLLJJJJJw                                 ",
"                                                                          $QJJJJKKJJJJJJLJJJJJ9                                 ",
"                                                                          $QKKJJJJJJJJJJJJJJJJ9                                 ",
"                                                                          $QLJJPJJJJJPJJJKJKJJ9                                 ",
"                                                                          $EJJJJJKJJKJJJJJJJJJ9                                 ",
"                                 -ipwwiiiiwiiii;                          $JJJJJJKJJJJLJKJJJKJ9                                 ",
"                                 9JJJKJJJJJJJJJt                          $QJJJJJLKJJJPJKJKJJJ9                                 ",
"                                 wJJJJJJJJJJJJJr                          $EJJJJJJJJKJLJJJKKJJ9                                 ",
"                                 9JJJJJJJLJJJJJr                          $QJJJKJJJJJJPJJJJJJJ9                                 ",
"                                 wJJJJPJJJLJJJJt                          $QJKJWJLLKKJJLJJJKKJq                                 ",
"                                 wJJJJJJJJJJJKJt                          $EJJJJLPJJJJJKLJLJJJ9                                 ",
"                                 9JJJJJJJJJJJJJt                          $EJJJJJJJJJJLJJJKJJJ9                                 ",
"                                 wJJJLJJJLJJJJJj<<<,<,,<,<,,<,,,,,<,<<,,<<6QJJJJPJKJLJJJJJJKJJ9                                 ",
"                                 9JJJPLJJJJJJJJJJJJJJJJJJJJJJJJJJJJJJJJJJJJJJJJJJJJJJJJJJJJJJJ9                                 ",
"                                 wJJJJJJJJJJKJKKJJJJJJJKJJJKJJJJJJJJJJJJJPJKJJJLKJJJJJJJJJJJJJ9                                 ",
"                                 0JJLJJJJJJLKKKJJJJJJJJJJKJJKJLJJKJJKJJKPJJJJJJJKKJJJJJPJPJJJJ9                                 ",
"                                 wJJJJKJJKJJJJJJJJJJJJKJLJJJJKJJJJJJJJJJJJJJJJJJJJJKJJJJJJJJKJ9                                 ",
"                                 0JKJJJJJJJJJJJJJJJJJJJPLJKKJJJJJJJJJJJJLPJJJJJJJJKJJEJJJJJJJJ7                                 ",
"                                 0JJJJJJJJJJJJJJJJJKJJJPJJKJJKJJJJJJJJKJLLJJJJJKJLJJJJLPJJJJJJq                                 ",
"                                 9YTTTTTJJJKJJJJJKJJJJLJJKJJJJJJJJJJJJJJLJLLJLJJPLJLJJJTYETEETq                                 ",
"                                  XXXXXX9JJJJJJJLLJKJJJJJJJJJJJJJJJJJJKJJJJJLJJJJLJJJJQOXXXX..                                  ",
"                                        7JJJLLJJJJJJJJKJJJJJJJJJKJJJJJPJJJJJJJJPJJLJJJQo                                        ",
"                                        6JJKJJPJJJJJJJJJJJJJJJJKKJKKJJPJKJKJJJKJJJJJJJQO                                        ",
"                                        9JJJJJJKLJJJJJJJJJJJJLPJJJJJJJPJJJKJJKJJJJJJJJQO                                        ",
"                                        9JJJJJJKKJJJJJJJJJJJKJJJKJJKJJJJJJJJJJJPKJKJJJQo                                        ",
"                                        7JJJJJJJJJJJJJJJJJJJJJJJKJJJKKJJKKJJJJKJJJJJJJQO                                        ",
"                                        9JJJJJJJJJJJJJJJJJJJJJJJJJJJJJJJJJJJJJJJJJJJJJQO                                        ",
"                                        #<<<<1<<443<,,33<<<<1<,4<<1<1<<<<1<31<,<1,<11<3X                                        ",
"                                                                                                                                ",
"                                                                                                                                ",
"                                                                                                                                ",
"                                                                                                                                ",
"                                                                                                                                ",
"                                                                                                                                ",
"                                                                                                                                ",
"                                                                                                                                ",
"                                                                                                                                ",
"                                                                                                                                ",
"                                                                                                                                ",
"                                                                                                                                ",
"                                                                                                                                ",
"                                                                                                                                ",
"                                                                                                                                ",
"                                                                                                                                ",
"                                                                                                                                ",
"                                                                                                                                ",
"                                                                                                                                ",
"                                                                                                                                "
};
