/* XPM */
static char *img_61748350344[] = {
/* columns rows colors chars-per-pixel */
"128 128 67 1 ",
"  c #080704",
". c #090905",
"X c #110F06",
"o c #141106",
"O c #1A1607",
"+ c #1E1807",
"@ c #1D1808",
"# c #241E08",
"$ c #272007",
"% c #272009",
"& c #2A2309",
"* c #362B0A",
"= c #392E0A",
"- c #3E320A",
"; c #42350B",
": c #46390B",
"> c #4B3D0C",
", c #4F400D",
"< c #52420D",
"1 c #5B4A0E",
"2 c #614E0E",
"3 c #65510E",
"4 c #6B560F",
"5 c #765D0F",
"6 c #675410",
"7 c #6F5A10",
"8 c #735C10",
"9 c #785E10",
"0 c #7A620F",
"q c #7C6310",
"w c #81670F",
"e c #816711",
"r c #846A11",
"t c #8A6E12",
"y c #8E7112",
"u c #927512",
"i c #967913",
"p c #9E7E14",
"a c #A58414",
"s c #A98714",
"d c #AC8A15",
"f c #B69216",
"g c #BB9516",
"h c #BE9816",
"j c #B69318",
"k c #BC9718",
"l c #BF9B18",
"z c #C49C17",
"x c #C89E17",
"c c #C59D18",
"v c #C99F18",
"b c #C7A017",
"n c #CAA117",
"m c #CCA318",
"M c #D3A717",
"N c #D5A917",
"B c #D6AB18",
"V c #D9AE18",
"C c #DEB116",
"Z c #DEB218",
"A c #E6B616",
"S c #E8B715",
"D c #E7B815",
"F c #E9BA16",
"G c #E3B518",
"H c #E7B819",
"J c #EABC18",
/* pixels */
"..........................X.................... ...................................... .........................................",
"...................................................................................... .........................................",
".......... .....................................................................................................................",
"............X ..................................................................................................................",
"................................................. . ............................................................................",
"....................X..............................................................  ....................................X......",
"............X...................................................................................................................",
"..........X........................................... .........................................................................",
"................................................. ..............................................................................",
".............................................................................................. .......X.........................",
"................................................................................................................................",
"X...............................................................................................................................",
".....................................................................................X...... ...................................",
"............................................................................................... ................................",
".......................X..................................................................................................X.....",
"............................................................................................ ...................................",
"...............................X................................................................................................",
"................................................................................X...............................................",
".................X...............................................................X..............................................",
"................................... ...........#&%&%&&%%&&&&%$&&%%&&&&&&&&&&&&$&&&$&&&$&#.......................................",
"...................................X..... ....#mJSJJJJHJJFJHFFFJSJJSHJJHJJFJFJJJJDJDFFFJz.......................X...............",
"..............................................@BJFFFFFFFFFFFFFFFHSJJHJHHFJFSSSJSFJDJFFJFx.......................................",
"..............................................@BFFFFFFFFFFFFJJFFJSJSJJJHFFFFJFFFDFJDFDFJn.......................................",
"............................................. OBFSFJFFFJFJFFFFFFSJJJHHJJSJFFFJFFJDDJJJJFn.......................................",
"..............................................ONJFFFSSFJFFFFFFFFSFFSFJFFFFFJSFFFDFFFFFFFn.......................................",
".............................X................OVJFFFFJFSFFFFFFFFFFFFFFFFFFFFFFFFDFFFFFFFn.......................................",
"..............................................@MSFSSFFFFFFFFFFFFFFFJFFFFFJFFFFFFFFFFFFFFn.......................................",
".......................................1<311116MFSFFFFFFFFFJFFFFFFSFFFFFFJFFFSSSDFFFFJFFN3111313<...............................",
"......................................XGFFFFSJFFFFSFFFFSFFFFFFFFFFFFFFFFFFFFFFFFFFFFFFFFDFFDFFFFk...............................",
"......................................XHFFFFFFFFFFFFSFFJFFJFJFFFFFFFFFFFJFFSJFFFFFFFFFFFFFFFFFFFk...............................",
".................................. ...oGFFFFJSFSJFJFFFSFFFFFFFFFFFFFFFJFFFJFFFFFFFFFFFFFFDFFFFFFl...............................",
"......................................XHSFFFFFFFFFFFFFSFFFFFFFFFFFFFFFFJJFSJFFFFFDFFFFFFFDFFFFFFj................X..............",
"..................X.................X.oHSAFFFSSJFFFFJSFFFFFSFFFFFFJFFFFSJFFFFFFFFFFFFFFFFFSFSFSFj...............................",
"......................X.............  oGJSFFSJSJJFFFSJJJFFJFFFFFFFFJFFFFFFFFFJFJFFJJFFFFFFSFFFJFj.X.............................",
".................................X..X oASSSJFFJSFFFFJFFFFFFJFFFFFFJJFFFFJFFFFFFFFFFFFFJFFFFFFFFJc...................X...........",
"...............................;>>>>>>>GJJJJSFFFFFFFSSFbfaasssssddddsdsssdsssfdfNFFFFFFFFFFFFFFFk...............................",
"...............................mJJJJSJSFFFFFFFFFJFFJFFF:........................uFFFFFFFFFDFFFFFk...............................",
"...............................mHJSJSJFFFFFFFSFFFFFFFFF;........................uFFFFFFFFFFFFFFFl...............................",
"..X............................mHJSSSFFFFFFFFFFFFJFFFFF;........................uJFFFFFFFFFFFFFJk...............................",
"...............................mHJJJJJFFFFFFFFFFFJFFFJF*........................uFFFFFFFFFFFFFFFj...............................",
"..............................XmFFFFFFFFFFFFFFFFFFFFFFJ-........................uFFFFFFFJFFFFFHFk...............................",
"...............................mFFFFFFFFJFFFFFFFFFFSFFF;........................uJFFFFJFFJFFFFFFk...............................",
"...............................vFFFFFFFFFFFFFFFFFFFFFFJ;........................uFFFFFFFFFFFFFFHk...............................",
"..............................XmFFSFFFFFFFJFFFFFCAASGCG>........................yACACZZAZACACVCAj...............................",
"...............................mFFFFFFFFFFFFFFF1&&$&#&&o........................O$##&&$$$+#&$$$$%...............................",
"...............................mFFFFFFFFFFFJFFJ:.............................. ..... ...... ....................................",
"...............................mFFFFSSSFSSFFFFF;................................................................................",
"..............................XmFFFFFFFSFFFFFSS;.............................................. .................................",
"...............................mFFSFFFFSFFFFFFF:............................................ .... ..............................",
"...............................mFFFFFFFJFJFJFJF=................................................................................",
"...............................mFFFSFJFFFFFFFJJ,................................................................................",
"...............................mFFFFFFFFFFFFFFJ,................................................. ..............................",
"...............................mFFFFFFFFFFFFFFFdyuutyutyuyytytuuuuyyuyyyyuyytytutytttyuy5...... ................................",
"...............................mFFFFFFFFFFFFFFFJDDJJDDFDFFFFDFDFFJSFJHFFJFJJFFJSJFFFFJFFn........ ..............................",
"...............................mFFFFFFFFFFFFFFFFJFDFJDFDFFFFDDFFFFSFFFFFFFFFFFSJFFSFFFFFn.... ..................................",
"...............................mFFFFFFFFFFFFFFFFDJJDJFDFFFFFFFFFFSFFFFFFFFFSFFFSFFFFFFFSn................. .....................",
"...............................mFFFFFFFFFFFFFFFFJDFFFFFFFFFFFFFFFFFFFFFFFFFFFFFFJFFFFFFFv...... ................................",
"...............................mFFFFFFFFFFFFFFFFFFJFFDFFFFFFFFFFFFFFFFFFFSFFFFFFSSFFFFFFx.......................................",
"...............................mFFFFFFFFFFFFFFFFFFFDFFFFFFFFFFFFFFFFFFFFFFFFFFFFFFFFFFFFn.......................................",
"...............................mFFFFFFFFFFFFFFFFFDFFFFFDFFDFFFFFFFFFFFFFFFFFFFFFFFFFFFFFn.......................................",
"...............................mFFFFFFFFFFFFFFFFFFFFFFFFFDFFFFFFFFFFFFFFFFFFFFFFFJFFSFFJC9q9q5q91...............................",
"...............................mFFFFFFFFFFFFFFFFDFFFDFFFFFDFFFFFDDFDFFFFSFSFFFFFFFFFFFSFFFFFSJFFj...............................",
"...............................cFJFFFFFFFFFFFFFFFFFFFFFDFFDFFFFFDFFFFFFFFSFFFFFFFFFFFFFSFFFSFFHHk...............................",
"...............................lFFFFFFFFFFFFFFFFFFFFFFDFFFFFFFFDFFFFFFFFJFFFFFFFFFFFFFFFFSFSJJJHk...............................",
"..............................XvFFFFFFFFFFFFFFFFFFFFFFFFSFFFSFSFFFFFFFSDFFFFSFSFFFFFFFFFFFFSFFSFz...X ... ............ .........",
"...............................vFFFFFFFFFFFFDFFFFFFFFFFFFFSSFSFSFFFDFFFSFSFFFSFFFFFFFSFFFFFFFFFSg...  ....... . ... ............",
"...............................mFFFFFFSFSFFFFFDFSSFFFFFFFJFFFJFFFFFFFFJFFFDFFFFFFFSFFFFFFFFFFSFFg.. ................... ........",
"...............................vFSFFFFFFSFFFFFDDFFFFFFFSJFFFFFJJFFFFFFFFFFFFSFSFFFFSFFFFFFFSFFFFz.. ................ ...........",
"...............................mFSFFFSFFFFFDFFJae0rytrqrte9qeerrwwyq0r000rqerwyrgSSSFDFFFSFFFSFFzX.................. ... .......",
"...............................vSFFFFFFFFFFFFFJ:...................X............iSSSDDFFFFFSFSFFh............ ..................",
"...............................mFFFFFFFFFFFFFFJ:................................uSFFFFFFFFFFFFFFx .................. ...... ....",
"...............................vSFFFFFFFFFFFFFF-................................pFFFFFFFFFFSFFFFf .......... ...................",
"......................X.......XmFFFFFFSSFFFFFJF,................................yFFFFFFFFFFFFFSFz  ......................  .....",
"...............................mFFFFFFFFFFFFDJF*................................iFFDDFFDFFFFFFFFg ................ .............",
"..........................X....mSFFSFFFFFFFFJFJ=........................X.......yFFFFFFFFFFFFFFFz........... ...................",
"...............................mFFSFFFFFFFFFJFJ=................................iFFFFFFFFFFFFFFFg...............................",
"...............................nFFFSFFFFFFFFFFF=................................iDFFFFFFFFFFFFFSg ..............................",
"...............................vJFFDFFFFFFFFFFF*.......X........................uFDFFFFFFFFFFFFSg............ ..................",
"........................... .X.zFFFFFFFFFFFFFFF,.............................X..uFFFFFFFFFFFFFFFg......................... .....",
"............................. XmJFFFFDFFFDFFFFJ=................................iFFFFFFFFFFFFFFSg.. .. .... . ................ .",
"...............................mFFFFSFFFFFFDSFJ=.X...............X..............iFFJFFFFFDFFFFFSj.................... ..........",
".....................X.........mFFFFFFFFFDFFFFD,............... ................iJFFFFFFFFFFDFFFj...........  ..................",
"........................X......nFFFFFSFFFFFFFFF=................ ...............iSFSFFFFFFFFFFFFb.................... ...... ...",
"X............................X.mFFFFFFFDFJFFFJJ=.......................... .....uSSFFFFFFFFFDFFFj.......... .. ....... .. ......",
"...............................vFFFFFFFFDDFJFFF-.............................. .uFSSFFFFFFFFFFFFb...............................",
"..........................X....nFFFFFFFFFFFFFFJ-........................... ...XuJFSJFFSFFFFFFFDh...............................",
"...............................nFFFFFFFFFFFFFDJ=............................... uJFFSFJFFFFFFFFFb.......... ....................",
"...............................nFFFFDFFFFFDFJDJ-................................iFFFFFFFFFFFFFFFf...............................",
".......... ....................mJFFFFFSSFFFFFJF-X  .............................yFFFFFFFSFFFFFFFg...............................",
"..... . .......................mFFFFFFJFJFFJFFJ<. . ............................iFFFFFFJFFFFFFFFl.............. . ..............",
"...............................nSFSFFFSFFFFFFFF:............................X...uFFFFFFFFFFFSFFFl.......... ....................",
"...............................nJFHSSFJFDFFDSFJ;................................uFFFFFFSFFFFDFFFl........ ............ . .. . ..",
"............................ ..mSSJJFFFFDFFFFFF>. ............................  pFFFFFSFFFFFFFSFl..... .........................",
"...............................0993eeytCFFDFFFFsytyyuyttuyyyuuyyryqyyuyttyrtyyyyhFFFFFSFFFFFDFFFh....................... .......",
".......................................SFFFFFFFFFFFSFFFFFFFFFFFFHFFFFFFFFJFFFFFFFSFFFFFFFFFFFFFFh.. ... . . . ......... .. .....",
"......................................oFFSFFFFFFFSFFFFFFFFFFFFFFFJFFFFFFFFFFFFFFFFFFSFDFSFFFFFFDh...............................",
"......................................oGHJFFFFFSFFFFFSFFFFSFFFFFSDFFFFFDFFFFFFFFFFFFFFFFFFSFFFFFg. ... . ................ ..  ..",
"......................................XHHFSFFFFFFSSSFFFFFSFJFFFFFFFFFDFFFFFFFFFFFFFFFFFFFFFFFFFJh............. .................",
"......................................oGFFFFFFFFFFFFFFFJFFFFFFFFFDFFFFFFFFFFFFFFFFFFFFFFFSFFFFFFl................. ...... .... .",
"......................................XGFFFFSFFFFFFFFFFFFFFFFFFFFFDFSFFDFFFFFFFFJFFFFFDDFFFFFFFSh .... .........................",
"......................................XGSJHFFSFFFFFJFFFFSFFFFFDDFDDDFFFFFFSFFFFFFFFFFSFFFFFFJHJJh..... .. . ............ .... ..",
".......................................77758489NFDDFFFFFFSFFFFFFFDFDFSJFFFSFFFFJFFFFSFFFNw5998723...............................",
"...............................................nFFFFDFFSFSDFFDFFFFFFFFFFFFFSFFFFFFFFFFFFx............... ................ ......",
".... ..........................................mFFFFDFFFDDFFFFFFFFFFSFFSFFFFFFFFFFFFFFFJn........... ...........................",
"...............................................kFFFFSFFFSJSHFFFFFFFFFFFFFFFSFSFFFDFFFFFSc.......................................",
".................................. ............jFFFFFSFFFFFFFFDDFFFFFFFFJFSFFFFFFFFFFDFSm.......................................",
".................................... ..........bFFFFFFFFFFFFFFFFFFFFFFFFFFSFFFSSFFFDFFFFm.................... ..................",
"...............................................lHFFFSFFSFFFFJFFFFFFFFFFFFFFFFFFSFFFFFFFFm............ ..........................",
"...............................................lFFHSSFFSSFFFFFFFFSFFFFFFFSFFFFFFFFFDFFFFk.......................................",
"...............................................6rttttrrrrrqr0rrtwrwwyw0trrrrwrwutrwturrt8.......................................",
"............................................ ...................................................................................",
"............................................... ..X ..... .................................................   ..................",
".................................................................... ............ .......... ...................................",
"..................................................................... ................ .........................................",
"...................................................................... .........................................................",
"............................................................................................... ................................",
".............................................. ................................... .............................................",
".................................................... ............................ . ............................................",
"....................................................................... ............ ........ ..................................",
"........................................... ........ ........... ..... .........................................................",
"...................................  ..........................  ...............................................................",
"................................... .. ................ ............................... ........................................",
".......................................................................... .....................................................",
".......................................... ............. ...........................................................X...........",
"............................................. ....... .. .......................................................................",
".................................. ..................................... .......................................................",
"..................................................... ...... ...............................................................X...",
"............................................. .... ............................................................................."
};
