/* XPM */
static char *_7e1538d689a4d9cc069a8ff039e4cedEVVi4Z4fTeosVmcW[] = {
/* columns rows colors chars-per-pixel */
"128 128 66 1 ",
"  c #050505",
". c #080705",
"X c #0D0A05",
"o c #100F04",
"O c #1B1705",
"+ c #1E1A04",
"@ c #231D04",
"# c #232104",
"$ c #2D2606",
"% c #2F2905",
"& c #352E05",
"* c #363005",
"= c #3D3405",
"- c #413604",
"; c #423A05",
": c #4A3D05",
"> c #4E4104",
", c #534405",
"< c #5C4C04",
"1 c #5F5004",
"2 c #635204",
"3 c #6A5504",
"4 c #6B5804",
"5 c #725D04",
"6 c #776105",
"7 c #7A6304",
"8 c #856C04",
"9 c #8A6E04",
"0 c #8B7104",
"q c #947604",
"w c #9A7704",
"e c #967904",
"r c #9A7A03",
"t c #AD8803",
"y c #B79104",
"u c #BF9604",
"i c #BF9804",
"p c #C09603",
"a c #C49A03",
"s c #C7A005",
"d c #D5A404",
"f c #DAA603",
"g c #DEAD05",
"h c #DFB004",
"j c #E1AF05",
"k c #E0B004",
"l c #E4B204",
"z c #E3B605",
"x c #E7B505",
"c c #EBB503",
"v c #EDB703",
"b c #E9B404",
"n c #E3B805",
"m c #ECB803",
"M c #EDB804",
"N c #F1BB03",
"B c #F2BD03",
"V c #F6BE02",
"C c #F0B804",
"Z c #F8BF02",
"A c #FEBF02",
"S c #F7C003",
"D c #FBC003",
"F c #FFC103",
"G c #FEC503",
"H c #FEC802",
/* pixels */
"                                                                                                                                ",
"                                                                                                                                ",
"                                                                                                                                ",
"                                                                                                                                ",
"                                                                                                                                ",
"                                                                                                                                ",
"                                                                                                                                ",
"                                                                                                                                ",
"                                                                                                                                ",
"                                                                                                                                ",
"                                                                                                                                ",
"                                                                                                                                ",
"                                                                                                                                ",
"                                                                                                                                ",
"                                                                                                                                ",
"                                                                                                                                ",
"                                                                                                                                ",
"                                                                                                                                ",
"                                                                                                                                ",
"                                                                                                                                ",
"                                                                                                                                ",
"                       @xgghkklbgljMCbMNNMlMb+                                     nbMxkMMmbNllblMklbxkz                        ",
"                       @FFFAAFAAFAFAAFFAAFAAA#                                     GFFFFFAAFFFFAAAAFAFAG                        ",
"                       @FFAFFFFAFFAFFAAAFAAAA#                                     GAFAAFFFFAAAFFFFFAAFG                        ",
"                       @FAFFAFFFFFFFAFAAAAFAA#                                     GFAAFAFFFFFFFFFAFFFAG                        ",
"                       @FAFAFFFAFAFFFFAAAFAFA#                                     GAFFFFFFFFFAFFFFFFFAG                        ",
"                       +FFFFAFFFFAAAFAFAFAAAA#                                     GFFFFAFFFFFFFFFFFFFAG                        ",
"                       @FAFAFFFFAFAFAFAAAFAAA#                                     GFFFFFFFFFFFFFFFFAFFH                        ",
"                       OFFFFFFAFFFFAFFAAAFFAABNNVv=                          ;mNVmVFFAFFAAFFFFFAAFFFAFFG                        ",
"                       @FFFFFFFFFFFFAFAAFFFFFAFFFA;                          ;FFFFFAFAAAFFFFFFFFAFFFFFAD                        ",
"                       @FFFFAFFFFFFFFFFAAFFAAAAAFF;                          ;AAFFFFFFAFAAFFAAFFFFFFFAFH                        ",
"                       @FFAFFAFFAFAFFFFFAAFFAFAAAA;                          ;AAAFFFFFFFAAFFFFFFFFFFFFFG                        ",
"                       OFFFFFFFFFFFFFAFFFAFFFFFFFA;                          ;AAAFFFFFFAFFFAAFFFFFFFFFFH                        ",
"                       @FFFFFFFFFAFFFFFAFAFFFFFFFA;                          ;FFAFFFFFFFFFFFFFFFFFFFFFFG                        ",
"                       @FAFAFFFFFFAFFFFFFFFFFFFAFA;                          ;FFFFFFFFFFFFFFFFFFFFFFFFFG                        ",
"                       @FAFFAFFFFFFFFFFFFFFFFFFFFF02252%                %22220FFFFAFFFFFFFFFFFFFFFFFFFFG                        ",
"                       OFFFFFFFFFFFFFFFAFFFFFFFFFFFFAAA2                6FAFAFAFFFFFFFFFFFAFFFFFFFFFFFAG                        ",
"                       @FAFFFFFFAFFFAFAFFFFFFFFFFFFAFFA2                5FAFFFFFAAFAFFFFFFFFFAFFFFFFFFAG                        ",
"                       @FAAAFFFFFFAFFFFAFFFFFFFFFFFFFFA2                6FAFFFFFFFFFFFFFFFFFFFFFFFFFFFFG                        ",
"                       @FAFFAFFFAAFFFFFFFFFFFFFFFFFFFFA2                5AAFFFFFFFFAFAFFFFFFFFFAAFFFFAAH                        ",
"                       +FAFFFFFFFFFFFAFFFFFAFFFFFFFFFFF2                7AAFFFFFFFFFFAFFFFFFFFFFFFFFFFFG                        ",
"                       +FFFFFFFFFFAFFFFFFFFFFFFFFFFAFFF2                5FFAAFAFFFFFFFFFFFFFFFFFFAFFFFFG                        ",
"                       +FAFFFFFAFFFAFFFFFFFFAFFFFFFAFFF8;;=&$      +-;;;0FFAFAFFFFFFFFFFFFFFAFFFFFFFFFFG                        ",
"                       OFFFFFFFFFAAFFFFFFAFFFFFFFFFFFAAAAAAAw      0AFAAFAAFFAAFFFFFAFFFFFFFFAFFFFFFFFFG                        ",
"                       @FFFFFFFFFFFFAFFFFFFFFFFFFAFFFAFFFFFFr      0AAAAFAFFFFFFFFFAFFFFAFFFFFFFFFFFAFFG                        ",
"                       @FAAFFFFFFFFFFFFFFFFFFFFFFFFFFFFFFFFFr      9FAFFFFFFFFFFFFFFFAFAFFFFFFFFFFFFAAFG                        ",
"                       +FFFFFFFFFFFFFFFFFAFFFFFFFAFFFFFFFAFFw      8FFFFFAFFFAFFAFFFFFFAAFFFFFFFAFFFFFFG                        ",
"                       +FFFFAFFFFFFFAAFAFAFFAFFFFFFFFFFAFFFFw      9FAFAFFAFFFAFFFFFFFFAFFFFFFFAFFFFFFFH                        ",
"                       @FFFFFFFFFFAFFFAAFFFFFFFAAAFFFFFAAFAFw      9FAAFFFFFFFAFFFFFFFFFFFFFFFFFFFFFFFFG                        ",
"                       @FFFFFFFFFFFFFFFFFFFFFFFFFFFFFFFFFFFAt&&&&&*rFFFAAFAFFFFFFFFFAFFFFFAFFFFFFFFFFFFH                        ",
"                       @FFFFFFFFAFFFFFFFFFFFFFFFFFFFFFFFFFFAAAAAAAAAAFFAFFFFAFFFFFFFFAFFFFFAFAFFFFFAFAFD                        ",
"                       +FFFFFFFFAFFFFFFAFFFFFFFFAFFAFFFFFFFFAAAFFFAAFFFAAFFFAFFFAFFFFFFFFAFFFFFFFFFFFFFG                        ",
"                       +FFFFFFFFFFFFFFFFAAFFFFFFFFFAAFFFFAFFAFFAFFFFAAFFFFFFFFAFFFFFAFFFFFFFFFFFFFFFFFFG                        ",
"                       @FFAFAFFFFFFFFFFAgiiiiaFFFFFFFAFFFFFFFFFFFAFFFAFFFFFFFFFFFFsiiiivFFFFAFFFFFFFFFFG                        ",
"                       @FAFFFFFFFFFFFFFF9    OGAFFFFFFFFFFFFFAFFFFAFFFAFFAFFFFFFFF#    uFFFFFAFFFFFFFFFG                        ",
"                       @FAFFFFFFFFAFFFAF9    +GAFFFFFFAFFFFFFFFFFAAFFFFFFFFAFFFFFF@    uFFFFFFFFFFFFFFFG                        ",
"                       @FFFFFFFFFFFFFFFF8    @FAFFFFFFFFFFFFFFFFFFFFFFFFFFFFFFAFFF#    pFAFFFFFFFFFFFFFG.                       ",
"                       +FAFFFFFFFFFFFFFF8    OFFFFFFFFAAAFFFFFFFFFFFAFFAFAFFFFFFAA#    iAFFFFFFFFFFFFFFG                        ",
"                       @FAFFFFFFFFFFFFFF8    +FAFFFFFFAFFFFFFFFFFFFFFFAFFFFFFFAFFF#    iAAAFFFFFFFFFFFFG                        ",
"                       @FAFFFFFFFFFFFFFF8    +GFFFFAFFFAFFFFFFFFFFFAFAFFAAFFFFFFFF+    iFFFFFFFFFFFFFFFG                        ",
"                       @FAAFFFFFFFFFFFAF8    X2212eFAFFFFFFFFFFFFFFAFFFFFFFFFq<<22o    iFFFFFFFAFFFAFFFG                        ",
"                       @FFFAFFAFFFFFFFFA8         ,FAFFFFFFFAFFFFFFAFFFFFFAFF,         iFFFFFFFFFFFFFFFG                        ",
"                       @FFFFAAFFFFFFFFAA8         >AAFFAFFFFFFFFFFFFFAFFAAFFA,         iFAFFFFFFFFAFFFFG                        ",
"                       @FFFFFAAFFFFFFFFF8         :FFFAFFAFFFFFAFFFFFFFFFFAFA>         iFFFFFFFFFAFFFFAG                        ",
"                       @FAFFFAFFFFFFFFFF7         >FFFAFAFFAFFFFFFFFAFAAFFAAA<         iAFFAFFAFFFFFFAFG                        ",
"                       +FAFFAFFFAFFFFFFF8         :AFFFFFFFAFAFAFFFAFFFFFAAFF,         uFAFFFFFFFFFFFFFG                        ",
"                       @FFFFFFAFFFFFFFAF8         :VVZGDAFAFFFAFFAFAAAFFFFFFG,         yAFAAFAFFFFFFFFAG                        ",
"                       @FFFFAFFAFAFFFFAF9              -FFAFFFFFFFFFAAAA3              aFFAAFAFFFFFFFFFG                        ",
"                       @FAFFFFFAFAFFFAFF8              -AFFFAFFFFFFFAAAA4              uAAAFFFFFFFFFFFAD                        ",
"                       +FAFFFFFFFFFFFAFF8              =AFFFFFFAFFFFFFAF3              uFFFFFAFFFFFFFAFD                        ",
"                       @FFFFFFFAAFFFFFAF8              -FAFFFAFFFFFFFAFF2              iFFFFFFFFFFFFFFFD                        ",
"                       @FAFFFFFFFAFFAFAA9              =FFAFFFAFFFFFFFFF3              uFFFFFFFFFFFFFAFG                        ",
"                       @FAAFFFFFFFAFFFAA8              -FFAFFFFFFFFFAFFF4              uAAAFFAFFFFFFFFAG                        ",
"                       @FFFFAAFFFFFFFFAF8              @8re9yFFFFAAcqe09=              pAFFFFFFFFFFFFFFG                        ",
"                       @FAFFAAAFAFFAFFAA8                   3FFFFFFd                   iAFAFFFFFFFFAAFAG                        ",
"                       @FFFFFFFFFFFAFFFA8                   3FFFFFFf                   iFFAFFFFAFFFFFFAG                        ",
"                       @FFFFFFFFFFFFAAAF8                   3FAFFFFf                   uFFAFFFAFFFFFFFFG                        ",
"                       @FFFFAFFFFFFAFFAF0                   3AFFFFFf                   iFFAFFAAAFFFAFFFG                        ",
"                       @FFFAFFFAFFFFFFAA8                   3FFFFFFf                   iAFAFFFFFFFAFFFFG                        ",
"                       @FAFAFFFFFFFFFAFF8                   =ewwqee8                   uFFFFFFFFFFFAFFAG                        ",
"                       @FFAFFFFFAFFFFFFF8                                              uFFFAFFFFFFFFAFAD                        ",
"                       @FFFFFAFFFFFAFFAF0                                              uFFFAFFFFFFFFFFFG                        ",
"                       +FFFFFFFFFFFFFFFF8                                              iFFFFAFFFFFAFFFAG                        ",
"                       OFFFFFFFFAFFFFFFA8                                              iAFFFFFFFFFFAFFAG                        ",
"                       @FFFFFFFAFFFFFFFF8                                              uFFFFFFFFFFFFFFFG                        ",
"                       +GAFFFAAFFFFFAAAF8                                              uFFFFFFFFFFFFFFAG                        ",
"                       +FFAFFAAAFFFFAFAF8                                              uFAFAFFAAFFFFFAFG                        ",
"                       @FFFFFFFFFFFFFFFF8                                              yAFFFFFFFFFFFFAAH                        ",
"                       @FAFFFFFFFFFFAFFF8                                              iAAAFAFFFAAAFFAAG                        ",
"                       @FFFFAFFFFFFFFFFF8                                              uFFFFFFFFAFFFFAFG                        ",
"                       @FFFFFAFAAFAFFFAA8                                              uFFFFFAFFFFAAFAAG                        ",
"                       @FFFAFAAAFFFAAFFF8                                              uAAFFAFFFFFFAAFFG                        ",
"                       @FFFFAFAFAAFFFFFA8                                              uAAAAFAAFFFFAAFFG                        ",
"                       +FFAFFFAFFAAAAFFA9                                              pAAAAAAFFFFAFAFAG                        ",
"                       OFFAAAAAFAAFFAAAA8                                              uAFAFAFFFFFAAAAAG                        ",
"                       @FAAAFFAFFAFFFFAA8                                              pAFFFAFAAFFFAFAFG                        ",
"                       @FFAAAFFAFFAFFFFA0                                              uAAAFFFFFFFAAAFAG                        ",
"                       @FFAFAAFFFFAFAAAA8                                              uAFAFAFFFAAFFAAFG                        ",
"                       @FAAAFFFFAAAAFFFA8                                              iFAFAFFFAFFFFAFAG                        ",
"                       @FFAFAFFAFAAAAFAA9                                              uAAFAFFFAAFFFAFAG                        ",
"                       @FAAAFAFFAAAAFFFA0                                              iFFAFFFFFAFFAFAAG                        ",
"                       @FAAAFFAAAAAAFFFA8                                              uAAFFFFAFFAAAAAFG                        ",
"                       +FAAFAAAAFAAAFFAA8                                              uAAFFAFAAAAFAFAAG                        ",
"                       @FAAFAFAFAFFFAFAA8                                              uAAAFAAAAAAAAAFAG                        ",
"                       +FAAFAAFFFAAAAAAA8                                              uAAFFAAFAFFAAAAFG                        ",
"                       @FAAAAAAAAAAAAAAA8                                              uAAAAAAFAAFAAAAAS                        ",
"                       @FFFFFGFFFFFFFFFF8                                              yGFFFGFFFFFFFFGGH                        ",
"                       .+@@@@@@@@@@@@@+@X                                              O@@@@@@@@@@@@@@++                        ",
"                                                                                                                                ",
"                                                                                                                                ",
"                                                                                                                                ",
"                                                                                                                                ",
"                                                                                                                                ",
"                                                                                                                                ",
"                                                                                                                                ",
"                                                                                                                                ",
"                                                                                                                                ",
"                                                                                                                                ",
"                                                                                                                                ",
"                                                                                                                                ",
"                                                                                                                                ",
"                                                                                                                                ",
"                                                                                                                                ",
"                                                                                                                                ",
"                                                                                                                                ",
"                                                                                                                                ",
"                                                                                                                                ",
"                                                                                                                                "
};
