/* XPM */
static char *b77f42ab16a04fdef3cdb5fa3165a256IG9YPOh3X4dcIGRF[] = {
/* columns rows colors chars-per-pixel */
"128 128 62 1 ",
"  c #050505",
". c #090704",
"X c #0C0A05",
"o c #120E05",
"O c #161105",
"+ c #1A1406",
"@ c #1F1806",
"# c #231C07",
"$ c #272107",
"% c #2A2207",
"& c #2C2408",
"* c #302607",
"= c #332A07",
"- c #342A08",
"; c #392D08",
": c #5C460B",
"> c #5F490B",
", c #624B0B",
"< c #67500C",
"1 c #6C530C",
"2 c #A67D11",
"3 c #A97F10",
"4 c #B0830F",
"5 c #AD8211",
"6 c #B38611",
"7 c #B78811",
"8 c #BB8C11",
"9 c #BF9112",
"0 c #C18F11",
"q c #C39213",
"w c #C49112",
"e c #C59513",
"r c #C79412",
"t c #CA9613",
"y c #CB9913",
"u c #CD9812",
"i c #CF9A12",
"p c #CD9B14",
"a c #D09C13",
"s c #D29C12",
"d c #D39C13",
"f c #D49D12",
"g c #D59F13",
"h c #D19D14",
"j c #D5A012",
"k c #DAA112",
"l c #DAA413",
"z c #DAA114",
"x c #EFAE14",
"c c #F1B213",
"v c #F7B312",
"b c #F7B513",
"n c #F0B114",
"m c #F3B514",
"M c #F7B614",
"N c #F8B312",
"B c #F8B713",
"V c #F8B314",
"C c #F8B714",
"Z c #F7B814",
"A c #F8B813",
"S c #F8B814",
/* pixels */
"                                                                                                                                ",
"                                                                                                                                ",
"                                                                                                                                ",
"                                                                                                                                ",
"                                                                                                                                ",
"                                                                                                                                ",
"                                                                                                                                ",
"                                                                                                                                ",
"                                                                                                                                ",
"                                                                                                                                ",
"                                                                                                                                ",
"                                                                                                                                ",
"                                                                                                                                ",
"                                                                                                                                ",
"                                                                                                                                ",
"                                                                                                                                ",
"                                                                                                                                ",
"                                                                                                                                ",
"                                                                                                                                ",
"                                                                                                                                ",
"                              +876767866765576767753657667655775865653232555365655375765335676268O                              ",
"                              OMCCBCNBBNBBBNBBBCBNBBBNBBNNBCNCBBCBCNBCNNBCBBNNBNCBBCBBBNBCBNNBCCMX                              ",
"                              OCCCCBCCBBBBBBNNBCBBBBBNBBNBBBBBBBCBBBBBBBBBBBBBBNBBBBCBBBBBBBCCBNbo                              ",
"                              ObBBBBCBNBCBBBNBBBBBBBBBBCCCBBBBBBBBBBBNBBBCBBBCBBBBBBBBBBBBBBNNNCSX                              ",
"                              OMNNCBBCNBNBBBBNBNBBBBNNNBBBBBBBBBNBBNBCBBBBNCNCBBBBBBBNBBBCBBBBBCCo                              ",
"                              @BBBCBBBBBNBBBNBBBBBBBNCBBNCBBBBBBBNBBNBBNBNNBBBBCBBBBBBBBBBBCBBNCCo                              ",
"                              oABNNBBBBNBBNBNBCBNBBNBBBBBBBCNBBBBBBBBBBBBBBNBBBBBBNNBBBBNBBBBBNBSX                              ",
"                              @CNBNBBBBBBBBBBBBNBBBBBBBBBBCCNBBBBBBBBBBBBBBBNNBNNNBBBBBBBBBNBBBCM.                              ",
"                              oSNBBBBBNNBBBNBBBBBBNBBBBNBBBBBBBBBBBBBBBNBBBBBNBBBBBBBBBBNBBBBBBBM.                              ",
"                              @BBCBBNBNNBBBBBBBBBBBBNBBBBBBBCBBCBBBBBBBBCBCBBBBBBBBBBBNNBBBBBBBBCX                              ",
"                              OSNBBBBBBBNBBNBNBBBBCBBBNBNBBBBBBBNBBBCNCBBBCBBNBNBBBBBBNBNBBBNNBBSO                              ",
"                              OAvBvBBBBCNBBBBBNNNBCNNBNBNBBBBBBBBBNBBBBCBCNBBBBBNBNBCBBBNNBBBNBBB.                              ",
"                              OSBNBBBNBBBNBBBBBBBBBBBNBBBBBBBBCBBBBBBCCBBBBBBCBBBBBCBBBBBBBBNCNNSO                              ",
"                              #CBNBBBNBBBNBBBBBBBNBCCBCCBCCBBCCBBBCCBBCCCCBBBCBCBBCCCCBBBCBBBBCCBo                              ",
"                              OBBBNBNBBBBBBBBBBNBCx0etjsiipiq9iqqithwttehiwiieeiiyitiwtsiffkfizslo                              ",
"                              +bBBBBBNBBBBBBNBBBCB8                                                                             ",
"                              oBBBNBBBBNBBBBBBBBBB0                                                                             ",
"                              obBBBBBBBBBBBBBBBBBB0                                                                             ",
"                              OBCBNBBBBNBBBBBBBBBBt                                                                             ",
"                              OCNNBBBBNBBBBBBBBBBB8                                                                             ",
"                              OSBBBBBNBBBBBNBBBBBB0                                                                             ",
"                              oSBBNBBNBBBBBBBBBBBB7                                                                             ",
"                              @BBBBNBBBBBBBBBBBBBB7                                                                             ",
"                              OSBBNBBBNBBBBBBBBBBB7                                                                             ",
"                              OABNBBBBBBBBBBBBBBBB7                                                                             ",
"                              OABNBBBBBBBBBBBCBBNB5                                                                             ",
"                              oCCBNBBBBBBNBBBBBBBN4                                                                             ",
"                              OBBBBBNBBvBBBBBBNBBB6                                                                             ",
"                              XZBBNBBBNNBBBBBBBNBB7                                                                             ",
"                              oCBBBBBBBBBBBBBBCBBC7                                                                             ",
"                              +SNCBBBCBBBBBBBBBBBCq                                                                             ",
"                              OCBBBBBBBBBNBBBBBBBC7                                                                             ",
"                              OSCBBBBBBBNBBBBBBBBBs>:,,,:,,,>,,,,,<,,,>,:><,,>:,,:,::11O                                        ",
"                              @ACBBBBBBBNBBBBBBBBCCCNvCBBCNCCCBNBNBBBvBCCBBCBBBBCBCBBCC@                                        ",
"                              oCBCBBBBBBBBBBBBBBCCBBBBBBBBBBBBBCBBNBBBNBBNBBNBBBCBNCBVC+                                        ",
"                              OCCBNBNBBBBBBBBBBNBBBBBBNBBBBBBBBBBNNBBNNBBBBBBBBBBBBCBBCO                                        ",
"                              XSBCBBBBBBBBBBBBBBBNBBBBBBBBBBBBBBBBBBBBBBBBBBCBBBBBBBBBMO                                        ",
"                              @SNBBBBBBBBBBBBBBBBBBBBBNNBBBBBBBBBBBBNBBNBNBBNBBBBBBBBCBO                                        ",
"                              +BBNBBBBBBCBBBBBBNBBBBBBNBBBBBBBBBBBBBBBBBBBCBBBBBBBBNNBCO                                        ",
"                              #CBNNBBBBBBBNBBNCBNBBBBBBNBBNBBBBNBBBNBNBBNNNBBBNBBBNBBCCO                                        ",
"                              +ABBBBBNBBBBBNBNBBBNCBBBNBBBBBBBBBBBBNBBBBBBBBBBNBBBBBBBSo                                        ",
"                              OCNBNBNBBNBBBBBBBBNNBBBBBBBBNNBBBBBBBNBBBBBBNBBNBBBBBBBBBO                                        ",
"                              @BBBBBBBBBNBBBBBBBBBBBBBBBBBNBNBBBBBBBBNBBBBBBBNBNBBBBBNB+                                        ",
"                              OBBBBBBBBBBBBBBBBBBBNBBBNNBBBBBBBNNBBBBBBBBBBBBBBBBBBBBNSO                                        ",
"                              @SBBBBBBBBBBBNBBBBBBBBBBBBBBBBBBBBBBNBBBNBBBBBBBNNBBBBBBA@                                        ",
"                              OANBNBBBBBBNBBNBBNBBBBBBBBBBBBBBBBBBBNBBBBBNBBBBCBBNBBBbC+                                        ",
"                              oSBBNBBBNBBNNBBBBNNBvnncAMbCbbbSbMMcMvbvZcbbbMMmvMMMcZbnZ+                                        ",
"                              XbNNBBBBNBBBBBBBBNBN7     .    .   .  ..              . .                                         ",
"                              oBBNBBBBBBBBBNBBBBBBt                                                                             ",
"                              @BBBBBBNBBBBBBBBBCBBq                                                                             ",
"                              @BNBBBBBBBBBBBBBBBBB8                                                                             ",
"                              OZBNBBNBBBBBBBBNNBBB0                                                                             ",
"                              OSBBBBBBBNNBBBBBBBBB7                                                                             ",
"                              @BBNBBBBNBNBBBBBBBBB0                                                                             ",
"                              +SvBBNBBBBBBBBBBBBNCw                                                                             ",
"                              +CBBNNBBBNBBNBBNBBBB0                                                                             ",
"                              #BBBBNNNNBNBBBBBBBBB8                                                                             ",
"                              #BBBBNBBNBBBBBNBNBvB0                                                                             ",
"                              +CBBBBBBBBNBBBBBBBBB7                                                                             ",
"                              XSBBBBNBBBBNBBBNBBNB0                                                                             ",
"                              OSNBBNBBBBBNBNNBBNBB0                                                                             ",
"                              XSBBBNBBNBBBBBBBBBBC8                                                                             ",
"                              .SBBBBBNBBBBNBBBBBBBy                                                                             ",
"                              XANBBBBBBNBBNBBBBBBB8                                                                             ",
"                              XbBBBBBBBBNNBBBBBBBNw                                                                             ",
"                              oCBBBBNNvBBBNBBBBBBB8                                                                             ",
"                              XMBBBBNBBBBBBBBBBBBvt                                                                             ",
"                              OCBBBBBBBBBNNNBBBBBBe                                                                             ",
"                              #CBBBBNBBBBBBBBBBBBB0                                                                             ",
"                              OSBBBBBBBBBBBBBBBBBBi                                                                             ",
"                              @BNBBBNBNBBBBBNBBBBBt                                                                             ",
"                              OCBBBNNBBBNBBBNBBBBBw                                                                             ",
"                              .SBNBBBBBNNBBBBBBBBBx0wtifsisiiississfiittiqssittiytiiiiiiisisitifh#                              ",
"                              .MCBNNNBBNBNBBBNBBBNBBBNBBBBBNBBBBBNNBBBBNBNNBBBNvBNBBBNBBNBNNNBBBB#                              ",
"                              XZNBBBNNBBBBBBNBBBNBBNBBBBNBBBBBBBBBNBBBBBBBBBBBBBBBBBBBNBNBBBBBBBB@                              ",
"                              oSBNBBBBBBBBNBBBBNNBBBBBBBBBBBBBBNBBNBBBBBBBBBBBBBBBBBBBBBNBNBBBBBAO                              ",
"                              XbBBBBBBBBBBBNBBBBBNBBBBBBBBNBBBBBNNBBBBBBNNBBBNBNNBBBBBBNNNNBBBBBBO                              ",
"                              OACBBABBNBBNBBBBBBBNNNBBBBBNBBNBBBBBBBBBBBBBNBBNBBBBBBBBBBBBNBBBBCB@                              ",
"                              +SBNBBBBBNBNBNBBBNBBBBBBBBBBBBBBBBBBBvBBBBBBBBNBBBBBBNBBBBBNBBBBBNCO                              ",
"                              obBBBBBBvNNBBBNBBNBBBBBBBNNBNBNBBBBNNBBNBNBNBBBBNNBBBBBBNNBBBBBBBBBO                              ",
"                              OCvNNBBBBBNCBNBNBBBBBBBBNBBBBBNNNNNNNNBBBNBBNNBBBBBBNBBBBBBBBBNBBBCo                              ",
"                              +CNBNNBBBBBBNNBBBNNNNBBBBNBNBBBBBNBBBBBBBNBBNBBBBBBBBBNBBBBBBBBBBNB#                              ",
"                              OMBNNNBBBBBBBBBBBBBBNBBBBNBBBBBNNBBNBBBBBBBBBNNBBBBBNBBBBBBNBBBBNNS@                              ",
"                              OSBBCBBBBBBCNNBBBBBBBBNBBBNNNBBBBBBBBBNBBNBBBBBBNBNBBBNBBBNBBBBNNNB+                              ",
"                              XACNNBBBBBBBBBNBNBBBBBBBNBNBBBBBBBBBNBBBBBBNBNBBNBBBBBBNBBNBCBBNBNAO                              ",
"                              oCBBNBBBBBBBBBNBBBBBBBBBBBBBBNNBBBBBBNBBBBBBNNBBBBBBBBBNBNNNNBBBBNB@                              ",
"                              @bBBBBvBBbBBBBBBBBBBBBBBBBBBBBBBBBBBBBBBBBNBNBBBbBBBBBBBBBBBbBBBvNCo                              ",
"                              .-#$##&###+$######$#&$####&#&-%##%#$$###$$&;*$####@###$##$#*===*-%$.                              ",
"                                                                                                                                ",
"                                                                                                                                ",
"                                                                                                                                ",
"                                                                                                                                ",
"                                                                                                                                ",
"                                                                                                                                ",
"                                                                                                                                ",
"                                                                                                                                ",
"                                                                                                                                ",
"                                                                                                                                ",
"                                                                                                                                ",
"                                                                                                                                ",
"                                                                                                                                ",
"                                                                                                                                ",
"                                                                                                                                ",
"                                                                                                                                ",
"                                                                                                                                ",
"                                                                                                                                ",
"                                                                                                                                ",
"                                                                                                                                "
};
