/* XPM */
static char *ba13d6f5a0924998c3e7af0a57e1f903Di8r4Yt2sWaITuLP[] = {
/* columns rows colors chars-per-pixel */
"128 128 80 1 ",
"  c #050505",
". c #080706",
"X c #0C0A06",
"o c #120E07",
"O c #151106",
"+ c #1D1707",
"@ c #1F1807",
"# c #161008",
"$ c #1A1408",
"% c #201909",
"& c #2B2407",
"* c #2C2408",
"= c #312708",
"- c #362B09",
"; c #3B2F09",
": c #3E3009",
"> c #423309",
", c #4D3C0A",
"< c #543F0B",
"1 c #5C460B",
"2 c #5F490B",
"3 c #634A0B",
"4 c #684F0C",
"5 c #6B510C",
"6 c #74560B",
"7 c #76590B",
"8 c #7B5B0C",
"9 c #805F0C",
"0 c #83620D",
"q c #89660D",
"w c #8D690E",
"e c #926C0E",
"r c #97700F",
"t c #9B720E",
"y c #9F7610",
"u c #A1770F",
"i c #A57A0F",
"p c #AA7E0F",
"a c #A67C10",
"s c #AA7E10",
"d c #AE800F",
"f c #B2830F",
"g c #B9860F",
"h c #BB890F",
"j c #AD8010",
"k c #B58510",
"l c #B98710",
"z c #BD8B10",
"x c #C18D0F",
"c c #CB930F",
"v c #C18D10",
"b c #C69111",
"n c #CB9510",
"m c #CE9811",
"M c #D19711",
"N c #D39911",
"B c #D59A10",
"V c #DB9F10",
"C c #DBA011",
"Z c #DCA111",
"A c #E1A211",
"S c #E1A511",
"D c #E6A711",
"F c #E3A812",
"G c #E6A811",
"H c #EBAB12",
"J c #ECAB11",
"K c #EDAD10",
"L c #EFAD10",
"P c #F1AC11",
"I c #F6AF10",
"U c #F7AF12",
"Y c #F3B211",
"T c #F7B010",
"R c #F7B012",
"E c #F6B412",
"W c #F8B110",
"Q c #F9B311",
"! c #F8B112",
"~ c #F8B812",
/* pixels */
"                                                                                                                                ",
"                                                                                                                                ",
"                                                                                                                                ",
"                                                                                                                                ",
"                                                                                                                                ",
"                                                                                                                                ",
"                                                                                                                                ",
"                                                                                                                                ",
"                                                                                                                                ",
"                                                                                                                                ",
"                                                                                                                                ",
"                                                                                                                                ",
"                                                                                                                                ",
"                                                                                                                                ",
"                                                                                                                                ",
"                                                                                                                                ",
"                                                                                                                                ",
"                                                                                                                                ",
"                                                                                                                                ",
"                                                                                                                                ",
"                     ,ewereeewwewwweeeeereee1                                      0rrrrrrryppuapfsjspiajp>                     ",
"                     7URRRR!RRRURUU!UR!UUUUUe                                      NRURRU!RRUU!!RR!RRU!RRU1                     ",
"                     6RRRURRRRRRRRRRRR!RRRUUr                                      bRR!!RRR!!!!RRRRRRRRRRU1                     ",
"                     6!RR!R!RR!RRRRR!!RR!RRUr                                      vRRUR!!R!UUU!!!R!RR!!RR3                     ",
"                     8!R!!RRRRRRRR!R!!RRRRRRe                                      v!URR!!R!!!!!RRRR!!RR!R1                     ",
"                     8!RUU!RRRRRRR!RR!RRRRRRt                                      zRRRR!R!!!!R!!!RR!RR!!U2                     ",
"                     8RR!!R!RRRRRRRR!!!RRRUUu                                      kRRR!R!RR!!R!!!!!!RRRRU3                     ",
"                     8RRRR!R!R!RRRURR!RRR!UUi                                      pRRR!RRRRR!!!!R!!R!!RRU1                     ",
"                     8!RR!R!R!R!RR!R!!RRRRRUi                                      fRUR!UR!R!!RR!!!R!!!RRR3                     ",
"                     8URRR!RR!!R!R!RRRURRRR!p                                      uRRRR!R!!!!!!R!!R!!!RUU1                     ",
"                     8URRR!RRRRRRRRRR!!RRRRUp                                      r!RURRR!RRR!R!!!!!RR!!U1                     ",
"                     8!R!!RRRU!RRRURRR!!RRR!g                                      t!RRRRRRR!R!!R!!R!RRR!U1                     ",
"                     8RRRR!RRR!!RR!R!RR!RUR!z                                      rRRRRR!RRURRR!!!!!R!RR!1                     ",
"                     0R!!RR!R!!RRRRR!RRR!RR!z                                      r!!RRR!!R!R!R!!!!!!R!!R1                     ",
"                     <09098b!R!R!RU!RRR!R!R!z                                      wRR!!!R!RRR!!!R!Rberrtt:                     ",
"                           uURRRRR!!RR!R!!!Rz                                      eR!R!!!!R!R!!!R!!0                           ",
"                           tRRRR!!RR!R!RRRRRv                                      wR!RR!!R!RRR!R!RRq                           ",
"                           iRRRRRRR!R!R!R!RRb                                      qRR!RRR!!RR!!!!RRe                           ",
"                           t!RRRRRR!R!RRR!!!b                                      wRRRRR!!R!!!!!!!Re                           ",
"                           iURRRRR!!!!R!!!RRb                                      0RRR!R!!!!!!!R!!Ue                           ",
"                           pR!RRRR!!RR!R!!RUz                                      0RU!R!!!!!!!!!!!Rw                           ",
"                           i!R!!!!R!!RR!R!!!b                                      0RR!R!!!R!!!RR!!Rw                           ",
"                           iR!!RR!RRRR!R!RRRPVVVZZF.                         jnNNBBDRR!RR!!!RR!RR!!R0                           ",
"                           iR!!!!RRR!!RR!R!RRRRRRRRX                         VURR!R!RR!R!!R!!URR!!RRq                           ",
"                           iRR!!RR!RR!!!RRRRRR!RRUR.                         ZU!RRRU!!!!R!R!R!!!!!R!0                           ",
"                           iRR!RRRRRRRRRRR!!!!!!RUR                          ZR!RRRRRRRRR!R!!RR!!!!R0                           ",
"                           iU!RR!RRRRRRRRRRR!RRRRRR                          ZURRRR!!RRRRRR!RR!!U!RU0                           ",
"                           iRR!RRRRRRRRU!R!!RRRRRRR                          AURR!!!!!RR!!R!!!RUR!RU8                           ",
"                           0bbbvzAUR!RUUR!RR!!RRRRR                          SURR!!!!!R!!!R!RRHZVVVC5                           ",
"                                 iRR!!!!!!!!!!!!RRP                          HRRR!R!R!!!!!R!RR8                                 ",
"                                 pRR!!!RR!R!R!R!RRY                          JRRR!!!!!!RRR!R!U0                                 ",
"                                 s!R!!RR!R!R!!!RRRY                          KR!RR!!!!RRRR!R!!9                                 ",
"                                 k!!!RR!UR!!!R!RR!E                          KU!!!R!R!!!R!!!RR8                                 ",
"                                 l!R!!!RRRR!R!R!R!R                          YRR!!!R!!!!R!!!UR9                                 ",
"                                 fRR!R!!R!!!!!!!R!Y                          HR!!!U!RRR!!!!R!U0                                 ",
"                                 fURR!!!!RRR!RRR!RY                          KRR!!!!R!!!R!!!!R0                                 ",
"                                 p!RR!!!!!R!!!!RRUR                          KRRR!!!!!!!!R!!R!0                                 ",
"                                 iR!RR!!RR!!RR!!!RR                          YR!RR!!!!!!R!!R!!0                                 ",
"                                 i!RR!!!!R!!!RRUR!R                          PR!!R!!!RRR!RR!!Rq                                 ",
"                                 iR!!R!R!!RR!R!!RRR                          KR!!!!!!R!!!!!RRR0                                 ",
"                                 t!!RRR!RR!R!RR!RUY                          HU!R!R!RR!!!RR!!R0                                 ",
"                                 tU!URRU!RR!!R!!RUH                          J!RR!!!!!RR!RR!RR0                                 ",
"                                 tRUURUUUR!R!!R!RRG                          KRR!!!!!RRRRURU!R8                                 ",
"                                 *,>>>:zR!!RRRR!!RRRRHDBz              jgzbbvU!R!R!R!R!!x>,,12;                                 ",
"                                       jUR!R!!!RRR!!!R!Rm              JURUUURRR!!R!!R!!d                                       ",
"                                       iRRR!R!RRR!RR!!RRn              HRUURRR!R!!RR!RRRl                                       ",
"                                       iRRR!R!!RURR!!R!Rb              GRRRRRRR!!!RR!RRUh                                       ",
"                                       iUR!RR!!!!!RR!RRRz              PURRUURUR!!!!!R!Rz                                       ",
"                                       iR!RRR!R!!R!R!RRUl              HRRRR!R!RR!URRUR!b                                       ",
"                                       uRRR!!R!!!RRR!R!!l              KRR!R!RR!!!RRRUR!m                                       ",
"                                       tU!!R!!!R!!!!!!!Rf              KR!RRRR!!!R!RURRRN                                       ",
"                                       t!R!!!!RR!R!!R!!!p              PR!!!!R!!R!!!R!RRN                                       ",
"                                       rU!R!!!R!!RRR!RRRu              RRRRR!R!R!!RRRRR!B                                       ",
"                                       tU!!R!!R!!!!!R!!!t              PRR!R!URR!R!!R!!RM                                       ",
"                                       tR!RR!!!!R!!!!R!Rt              PRRRRRRRRRRRR!!RRB                                       ",
"                                       eRRR!!RRR!!!!R!!Rt              PUURRRR!!!R!!!R!!N                                       ",
"                                       wURR!R!!R!!!RR!!!t              YRRRR!!RR!R!!R!!!N                                       ",
"                                       -33434bRRUR!R!R!Rr              YRRRR!!R!!!A088765                                       ",
"                                             pR!R!!!R!!!r              KR!R!!R!!!!m                                             ",
"                                             d!!RR!!!!!!e              PRRRRR!!!R!m                                             ",
"                                             f!R!!!!!R!!eX..      .  .XPRRRR!R!R!!B                                             ",
"                                             lR!!!!R!RR!RERERm   X~EREER!R!RR!!!!!m                                             ",
"                                             zRR!!R!R!!R!RU!!b   .K!!RR!!!RR!!!!!UN                                             ",
"                                             z!!RR!!!R!RR!R!Uz    GUURRUR!R!RR!!RRN                                             ",
"                                             z!RRRR!!RRRR!!RRz    A!RRRR!RRRRR!!R!m                                             ",
"                                             hR!!RRRR!R!!!!!Rs    ZURRRRR!!U!!RRU!m                                             ",
"                                             zURRRR!!R!!R!RRRs    ZRRR!R!!R!RRRRRRB                                             ",
"                                             zRRR!R!!R!RR!R!!HccnmPURR!!!!!RRRR!!Um                                             ",
"                                             zUR!R!R!!!!!!R!RU!RRRU!RRR!R!!RR!R!URN                                             ",
"                                             b!RRRRRRRR!RR!R!!RRRRRRRRRR!!!!!!!RR!N                                             ",
"                                             vR!R!!R!!!R!!R!!!!R!!!U!!!!!RRRRR!U!!N                                             ",
"                                             b!RE!R!RRR!!!R!RRRRR!!RRRRR!!!RRRREEEC                                             ",
"                                             +@+$X%!RRRRRRR!!RR!RR!RR!!R!!R!Z  ...$                                             ",
"                                                  #RRRRR!!!R!!R!RRR!RR!R!RR!Z                                                   ",
"                                                  OR!RR!R!!!!R!!!RRRRRR!!!RRG                                                   ",
"                                                  oRR!R!R!R!!R!!!!R!!R!!!!RRS                                                   ",
"                                                  XRRR!!!RRR!!R!RRR!!!!R!RRRZ                                                   ",
"                                                  XRR!RR!R!!RRR!R!!RRURR!!RRG                                                   ",
"                                                  XERRR!!R!!!!R!RRRRR!!R!!RRH                                                   ",
"                                                   !URRRR!RRU!R!RRRRRRRRRURRH                                                   ",
"                                                   RRRR!R!RRUURRRR!RR!!RRRUUH                                                   ",
"                                                   RRR!U!R!RR!!R!!!RRR!U!!URH                                                   ",
"                                                   VNBNcZRRRRRR!!R!!!R!Nbcncb                                                   ",
"                                                        7RRR!!!R!!R!URR:                                                        ",
"                                                        8RRR!RRR!!U!!RU;                                                        ",
"                                                        8RRRU!RR!RRRR!R>                                                        ",
"                                                        8!!!!RRRRRRRRRU>                                                        ",
"                                                        6URR!RURUURU!UU>                                                        ",
"                                                        O&***&***=&*-=-O                                                        ",
"                                                                                                                                ",
"                                                                                                                                ",
"                                                                                                                                ",
"                                                                                                                                ",
"                                                                                                                                ",
"                                                                                                                                ",
"                                                                                                                                ",
"                                                                                                                                ",
"                                                                                                                                ",
"                                                                                                                                ",
"                                                                                                                                ",
"                                                                                                                                ",
"                                                                                                                                ",
"                                                                                                                                ",
"                                                                                                                                ",
"                                                                                                                                ",
"                                                                                                                                ",
"                                                                                                                                ",
"                                                                                                                                "
};
