/* XPM */
static char *_226a88c0b1b46ab94db24c446fbe3ebDFdmvVtEegr9Y2ym[] = {
/* columns rows colors chars-per-pixel */
"128 128 76 1 ",
"  c #050505",
". c #080705",
"X c #0D0B05",
"o c #100D05",
"O c #151405",
"+ c #1B1705",
"@ c #1D1B05",
"# c #231E05",
"$ c #242205",
"% c #292604",
"& c #2C2905",
"* c #322D05",
"= c #363105",
"- c #3B3405",
"; c #413704",
": c #433B05",
"> c #4A3F04",
", c #4B4004",
"< c #534505",
"1 c #574805",
"2 c #5C4C05",
"3 c #614F05",
"4 c #625204",
"5 c #685605",
"6 c #735D05",
"7 c #746006",
"8 c #7C6405",
"9 c #7F6905",
"0 c #816705",
"q c #826904",
"w c #8A6F05",
"e c #8C7105",
"r c #937505",
"t c #9D7E05",
"y c #A17F05",
"u c #9F8005",
"i c #A18004",
"p c #A98905",
"a c #B18D04",
"s c #BA9305",
"d c #BB9505",
"f c #BF9604",
"g c #BF9704",
"h c #BF9803",
"j c #BF9804",
"k c #C09704",
"l c #C09804",
"z c #C09904",
"x c #C49A05",
"c c #C59D05",
"v c #C69C04",
"b c #C99E04",
"n c #CAA004",
"m c #CDA104",
"M c #CFA304",
"N c #D2A304",
"B c #D2A604",
"V c #D7A904",
"C c #DCAB03",
"Z c #DDAD03",
"A c #DFAF03",
"S c #D8AA04",
"D c #D9AB04",
"F c #E6B403",
"G c #E2B004",
"H c #E3B204",
"J c #EDB804",
"K c #F3BB03",
"L c #F5BF03",
"P c #F3BE04",
"I c #FEBF02",
"U c #FEC103",
"Y c #FEC403",
"T c #F8C104",
"R c #FEC104",
"E c #FDC604",
/* pixels */
"                                                                                                                                ",
"                                                                                                                                ",
"                                                                                                                                ",
"                                                                                                                                ",
"                                                                                                                                ",
"                                                                                                                                ",
"                                                                                                                                ",
"                                                                                                                                ",
"                                                                                                                                ",
"                                                                                                                                ",
"                                                                                                                                ",
"                                                                                                                                ",
"                                                                                                                                ",
"                                                                                                                                ",
"                                                                                                                                ",
"                                                                                                                                ",
"                                                                                                                                ",
"                                                                                                                                ",
"                                                                                                                                ",
"                                                                                                                                ",
"                                            .%$$$$$$%&%$$$$&$$$$$$$$$$$$$$$$$$$$$$@                                             ",
"                                            $UURUIUIUUUIIIUUIUUUUUUUUUUUUUUUIIUUUUV                                             ",
"                                            $UUUUUUUUUUUUUUUUUUUUUUUUUUUUUUUUUUUUUZ                                             ",
"                                            $UUUUUUUUUUUUUUUUUUUUUUUUUUUUUUUUUUUUUZ                                             ",
"                                            $UUUUUUUUUUUUUUUUUUUUUUUUUUUUUUUUUUUUUZ                                             ",
"                                            $UUUUUUUUUUUUUUUUUUUUUUUUUUUUUUUUUUUUUD                                             ",
"                                            %UUUUUUUUUUUUUUUUUUUUUUUUUUUUUUUUUUUUUC                                             ",
"                                      8ittrraUUUUUUUUUUUUUUUUUUUUUUUUUUUUUUUUUUUUUKiiiiii<                                      ",
"                                      gUUUUUUUUUUUUUUUUUUUUUUUUUUUUUUUUUUUUUUUUUUUUUUUUUUq                                      ",
"                                      gUUUUUUUUUUUUUUUUUUUYUUUUUUUUUUUUUUUUUUUUUUUUUUUUUUq                                      ",
"                                      jUUUUUUUUUUUUUUUUUUUUUUUUUUUUUUUUUUUUUUUUUUUUUUUUUUq                                      ",
"                                      jUUUUUUUUUUUUUUUUUUUUUUUUUUUUUUUUUUUUUUUUUUUUUUUUUUq                                      ",
"                                      jUUUUUUUUUUUUUUUUUUUUUUUUUUUUUUUUUUUUUUUUUUUUUUUUUUq                                      ",
"                               .XXXXX.gUUUUUUUUUUUUUUUUUUUUUUUUUUUUUUUUUUUUUUUUUUUUUUUUUUrXXXXXX                                ",
"                               2YYYYYYUUUUUUUUUUUUUUUUUe555559q78765778qaUUUUUUUUUUUUUUUUYYYYYYE=                               ",
"                               1UUUUUUUUUUUUUUUUUUUUUUU$                4UUUUUUUUUUUUUYUUUUUUUUU%                               ",
"                               :UUUUUUUUUUUUUUUUUUUUUUU$                4UUUUUUUUUUUUUUUUUUUUUUU$                               ",
"                               :UUUUUUUUUUUUUUUUUUUUUUU$                4UUUUUUUUUUUUUUUUUUUUUUU$                               ",
"                               :UUUUUUUUUUUUUUUUUUUUUUU$                4UUUUUUUUUUUUUUUUUUUUUUU$                               ",
"                               :UUUUUUUUUUUUUUUUUUUUUUU$                4UUUUUUUUUUUUUUUUUUUUUUU#                               ",
"                         #---::7UUUUUUUUUUUUUUUUUFFGMbl@                ,BcbBMDUUUUUUUUUUUUUUUUU2:::::O                         ",
"                         0UUUUUUUUUUUUUUUUUUUUUUb                              TUUUUUUUUUUUUUUUUUUUUUR:                         ",
"                         8UUUUUUUUUUUUUUUUUUUUUUM                              LUUUUUUUUUUUUUUUUUUUUUU:                         ",
"                         7UUUUUUUUUUUUUUUUUUUUUUb                              LUUUUUUUUUUUUUUUUUUUUUU:                         ",
"                         8UUUUUUUUUUUUUUUUUUUUUUn                              LUUUUUUUUUUUUUUUUUUUUUU:                         ",
"                         7UUUUUUUUUUUUUUUUUUUUUUb                              LUUUUUUUUUUUUUUUUUUUUUU:                         ",
"                         8UUUUUUUUUUUUUUUUUUUUUUb                              LUUUUUUUUUUUUUUUUUUUUUU:                         ",
"                         8UUUUUUUUUUUUUUUUUUUUUUb                              PUUYUUUUUUUUUUUUUUUUUUU:                         ",
"                         8UUUUUUUUUUUUUUUUUP1:*$@                              #$$$$bUUUUUUUUUUUUUUUUU:                         ",
"                         8UUUUUUUUUUUUUUUUUb                                        hUUUUUUUUUUUUUUUUU:                         ",
"                         8UUUUUUUUUUUUUUUUUc                                        gUUUUUUUUUUUUUUUUU:                         ",
"                         8UUUUUUUUUUUUUUUUUl                                        gUUUUUUUUUUUUUUUUU:                         ",
"                         qUUUUUUUUUUUUUUUUUl                                        lUUUUUUUUUUUUUUUUU:                         ",
"                         qUUUUUUUUUUUUUUUUUx                                        lUUUUUUUUUUIUUUUUU:                         ",
"                         qUUUUUUUUUUUUUUUUUl                                        gUUUUUUUUIUUUUUUUU:                         ",
"                         0UUUUUUUUUUUUUUUUUx                                        gUUUUUUUUUUUUUUUUU:                         ",
"                         qUUUUUUUUUUUUUUUUUl                                        jUUUUUUUUUUUUUUUUU:                         ",
"                         0UUUUUUUUUUUUUUUUUl                                        dUUUUUUUUUUUUUUUUU:                         ",
"                         qUUUUUUUUUUUUUUUUUl                                        gUUUUUUUUUUUUUUUUU:                         ",
"                         0UUUUUUUUUUUUUUUUUj                                        gRUUUUUUUUUUYUUUUU:                         ",
"                         rUUUUUUUUUUUUUUUUUg                                        gUUUUUUUUUUUUUUUUU:                         ",
"                         rUUUUUUUUUUUUUUUUUl                                        lUUUUUUUUUUUUUYUUU>                         ",
"                         eUUUUUUUUUUUUUUUUUg                                        jUUUUUUUUUUUUUUUUU1                         ",
"                         rUUUUUUUUUUUUUUUUUd                                        jUUUUUUUUUUUUUUUUU2                         ",
"                         rUUUUUUUUUUUUUUUUUg                                        gUUUUUUUUUUUUUUUUU2                         ",
"                         eUUUUUUUUUUUUUUUUUg                                        jUUUUUUUUUUUUUUUUU4                         ",
"                         wUUUUUUUUUUUUUUUUUs                                        cUUUUUUUUUUUUUUUUU2                         ",
"                         qUUUUUUUUUUUUUUUUUj                                        lUUUUUUUUUUUUUUUUU2                         ",
"                         wUUUUUUUUUUUUUUUUUj                                        jUUUUUUUUUUUUUUUUU2                         ",
"                         qUUUUUUUUUUUUUUUUUj                                        jUUUUUUUUUUUUUUUUU1                         ",
"                         eUUUUUUUUUUUUUUUUUd                                        gUUUUUUUUUUUUUUUUU1                         ",
"                         qUUUUUUUUUUUUUUUUUa                                        jUUUUUUUUUUUUUUUUU1                         ",
"                         qUUUUUUUUUUUUUUUUUi                                        jUUUUUUUUUUUUUUUUU1                         ",
"                         8UUUUUUUUUUUUUUUUUu                                        gUUUUUUUUUUUUUUUUU1                         ",
"                         7UUUUUUUUUUUUUUUUUy                                        dUUUUUUUUUUUUUUUUU1                         ",
"                         7UUUUUUUUUUUUUUUUUt                                        iUUUUUUUUUUUUUUUUU1                         ",
"                         8UUUUUUUUUUUUUUUUUi                                        rUUUUUUUUUUUUUUUUU2                         ",
"                         8UUUUUUUUUUUUUUUUUt                                        wUUUUUUUUUUUUUUUUU2                         ",
"                         7UUUUUUUUUUUUUUUUUr                                        qUUUUUUUUUUUUUUUUU1                         ",
"                         7UUUUUUUUUUUUUUUUUg4444:                              42444pUUUUUUUUUUUUUUUUU3                         ",
"                         0UUUUUUUUUUUUUUUUUUUUUUl                              YUUUUUUUUUUUUUUUUUUUUUU3                         ",
"                         0UUUUUUUUUUUUUUUUUUUUUUl                              YUUUUUUUUUUUUUUUUUUUUUU6                         ",
"                         qUUUUUUUUUUUUUUUUUUUUUUn                              YUUUUUUUUUUUUUUUUUUUUUU6                         ",
"                         0UUUUUUUUUUUUUUUUUUUUUUc                              UUUUUUUUUUUUUUUUUUUUUUU6                         ",
"                         8UUUUUUUUUUUUUUUUUUUUUUb                              LUUUUUUUUUUUUUUUUUUUUUU6                         ",
"                         8UUUUUUUUUUUUUUUUUUUUUUM                              ZUUUUUUUUUUUUUUUUUUUUUU6                         ",
"                         8YYYYYYUUUUUUUUUUUUUUUUb                              GUUUUUUUUUUUUUUUUEYYUYU6                         ",
"                         .ooooo1UUUUUUUUUUUUUUUUULLLLLL%                1PPPPPPUUUUUUUUUUUUUUUUU$@+#@$+                         ",
"                               <UUUUUUUUUUUUUUUUUUUUUUU%                2UUUUUUUUUUUUUUUUUUUUUUU$                               ",
"                               <UUUUUUUUUUUUUUUUUUUUUUU$                :UUUUUUUUUUUUUUUUUUUUUUU$                               ",
"                               <UUUUUUUUUUUUUUUUUUUUUUU$                :UUUUUUUUUUUUUUUUUUUUUUU$                               ",
"                               <UUUUUUUUUUUUUUUUUUUUUUU$                :UUUUUUUUUUUUUUUUUUUUUUU$                               ",
"                               <UUUUUUUUUUUUUUUUUUUUUUU$                :UUUUUUUUUUUUUUUUUUUUUUU$                               ",
"                               :DCZZZGLUUUUUUUUUUUUUUUUeqqqqqqqqqqqqqqqqtUUUUUUUUUUUUUUUUJZZCZZZ&                               ",
"                                      cUUUUUUUUUUUUUUUUUUUUUUUUUUUUUUUUUUUUUUUUUUUUUUUUUUq                                      ",
"                                      kUUUUUUUUUUUUUUUUUUUUUUUUUUUUUUUUUUUUUUUUUUUUUUUUUUq                                      ",
"                                      cUUUUUUUUUUUUUUUUUUUUUUUUUUUUUUUUUUUUUUUUUUUUUUUUUUq                                      ",
"                                      gUUUUUUUUUUUUUUUUUUUUUUUUUUUUUUUUUUUUUUUUUUUUUUUUUUq                                      ",
"                                      lUUUUUUUUUUUUUUUUUUUUUUUUUUUUUUUUUUUUUUUUUUUUUYUUYUq                                      ",
"                                      gUUUUUUUUUUUUUUUUUUUUUUUUUUUUUUUUUUUUUUUUUUUUUUUUUUr                                      ",
"                                      ;444444UUUUUUUUUUUUUUUUUUUUUUUUUUUUUUUUUUUUUG8q88qq<                                      ",
"                                            $UUUUUUUUUUUUUUUUUUUUUUUUUUUUUUUUUUUUUM                                             ",
"                                            $UUUUUUUUUUUUUUUUUUUUUUUUUUUUUUUUUUUUUN                                             ",
"                                            $UUUUUUUUUUUUUUUUUUUUUUUUUUUUUUUUUUUUUZ                                             ",
"                                            $UUUUUUUUUUUUUUUUUUUUUUUUUUUUUUUUUUUUUD                                             ",
"                                            $UUUUUUUUUUUUUUUUUUUUUUUUUUUUUUUUUUUUUG                                             ",
"                                            $UUUUUUUUUUUUUUUUUUUUUUUUUUUUUUUUUUUUUZ                                             ",
"                                            .%&&&$&*&$%&**=-=*&===******=--=&=**%$$                                             ",
"                                                                                                                                ",
"                                                                                                                                ",
"                                                                                                                                ",
"                                                                                                                                ",
"                                                                                                                                ",
"                                                                                                                                ",
"                                                                                                                                ",
"                                                                                                                                ",
"                                                                                                                                ",
"                                                                                                                                ",
"                                                                                                                                ",
"                                                                                                                                ",
"                                                                                                                                ",
"                                                                                                                                ",
"                                                                                                                                ",
"                                                                                                                                ",
"                                                                                                                                ",
"                                                                                                                                ",
"                                                                                                                                ",
"                                                                                                                                "
};
