/* XPM */
static char *img_51748350344[] = {
/* columns rows colors chars-per-pixel */
"128 128 59 1 ",
"  c #090705",
". c #0A0906",
"X c #0B0A08",
"o c #110D04",
"O c #141005",
"+ c #1D1807",
"@ c #181408",
"# c #251D0A",
"$ c #27210B",
"% c #2B220B",
"& c #322707",
"* c #31260A",
"= c #352A0A",
"- c #3A2D09",
"; c #3E3109",
": c #483A07",
"> c #463B0B",
", c #4E410B",
"< c #544307",
"1 c #53440A",
"2 c #57480C",
"3 c #5C490A",
"4 c #614D0B",
"5 c #65500E",
"6 c #6C530A",
"7 c #725A0B",
"8 c #7B5F0A",
"9 c #856A0E",
"0 c #896E0E",
"q c #95740E",
"w c #9B770E",
"e c #8A7012",
"r c #A6810C",
"t c #AB840B",
"y c #AD880B",
"u c #B1890C",
"i c #BF9407",
"p c #B99008",
"a c #B18A10",
"s c #C2950C",
"d c #C49A0E",
"f c #CE9F0A",
"g c #C49A11",
"h c #DBA907",
"j c #D5A50B",
"k c #DDAB0B",
"l c #E1AE0C",
"z c #EFB607",
"x c #EFB907",
"c c #E4B10B",
"v c #EDB60A",
"b c #EEB90B",
"n c #F1B704",
"m c #F2BA03",
"M c #F0B708",
"N c #F0BB0A",
"B c #E2B313",
"V c #EEBC11",
"C c #F1BE11",
/* pixels */
"  XX............................ . .... .. .. ....X.. . . .X. .  ..X... ....  ............. ....... .............. .. .. . ... .",
"    .. ..... ... ... ... .... . ... .  ..... . ..   .... ..  . X...... X.X. .. .............. . . ...... ........ . ....... ... ",
"  X ....................... ...... . .. .. . . ... ......... ..X.  . ..X........... ... . .....   ...... .. ...... . .......... ",
"XX X.. . ............ .................... .X .  ... . .. . X . ... .. ........ ........................ ............. . .... ..",
"......... .... ........ .. .......... ...... ....X. X .... ... .... .... .... ........ ......  ........ ...... ..  X . .... ....",
"............. X........ ... .......... . ......   .. . .  . ....... . . . . .. . ... ..  .......  .. ......   . .. XX ...... .. ",
"..... ...XX..... . ........... ..... ...   ..... X. .....X.. X .............................................. ..     ...........",
"....... ................... ...X. ......  . . ..  .. ..  ..  X... .....  . .X.. . ...................... ...... .. .... ....... ",
"  .....  . .. . ..........X............ . . ... .. .. X . ....  .  . ...X ....... . ........  ... ........ ........... .........",
"...  . X..X .............X  .......... ... ... . ..  . ...XX.........X   ....  .... . .......  . ...... . ...  .................",
". .  X.  ... .. ......X.  ...X..... ..... .. .......  . ... .... X X...X..... .. .... ....X.. ........................... ......",
".. .. X.... ............X.X..   .. . ............ ..X .. .... . .... . ... ... .... ...... .............. ... . ...... ...... ..",
". ....X    ..  .............X........ .. . ......X. ..X........X . ...... ........ ............ . ... . ..... . .... ....  ... .",
".....   .................. ........ . .. XX... .X X... ............ .  .XX  .  ..................... .... . .  .................",
".....   ... . .................. .. ...... ..............X....... X....X .... .........X........  .  XX...... . . ... ..........",
"...  .. .. ............................X...........X . ... ......X... . ..X . X. ...................   .................. .... .",
".. ..X. ....X...................... .. ................................................... ..........X.X..X.. ....... .. .. ....",
".. .. ... .X......... .....X..X..............................X.................................. ....... .. ... .... ...........",
"... ...... . .....................  . .....................................X......................... . .X.................. . .",
".......  ................. X.......Xoooo..o.oo..o..oo.ooooooo..oooOoooo.ooOO.oo.ooooooo.ooo@o. .. . ....... . ......... ........",
" .. .......  .....X.. ............&bxNzmxxvxxvxxxcxbNxxNxxNxVxxbxxCNxxxNmCmNxxNCNxbxxxbbxNmNB.....X.X. ... .. ..... ............",
".... ........X.... ..X....X..... .-bnmmnmxmmxxzmmxmmmmmmmxmmmmmmmmmmxmmmmmmmxmmmmmmmmmmmmmmmho..... .... .X .......  ........ ..",
"...XXX .X ..... .   ..............-nNmmmmmmmmnmmmmmmmmmmmxmmmmmmmmmmmmmmmmmmmmmmmmmmmmmmmmmmco.. ....  ...X  ............... . .",
".. . ... .. ...X.. ......X.X...   -xmmnmmmmmmmmmmmmmmmmmmxmmmmmmmmmmmmmmmmmmmmmmmxmmmmmmmmmmh. X...X..X.  ... ................ .",
" ........... X......X........... .;xmmnmnnmmmmmmmmxmxxmmmmmmmmmmmmmmmmmmmmmmmmmmmmmmmmmmmmmmho......... ... .....  X ... ...  ..",
".... .X.. ..X..XX... ........... .=mmmmmmmmmmmmmmmmmxmmmmmmmmmmmmxmmmmmmmmmmmmmmmmmmmmmmmmmmc. ..............X..X.X .......X.. X",
".... ..  ... .. .X.. ....X.. ...  =mmmmxmmnmmmmmmmmmxmmmmmmmmmmmmmmxmmmmmmmmmmmmmmmmmmmmmmmmho.....X....... .... .........  .X..",
"..........  ................X.....=NmmmmmmmnmmmmmmmmmmmmmmmmmmmmmmmmmmmmmmmmmmmmmmmmmmmmmmmmhO...... ... ... ..  ... .....X.....",
". ........... .......... X.... . .=mmnmnnmmmmmmmmmmmmmmmmmmmmmmmmmmmmmmmmmmmmmmmmmmmmmmmmmmmv.... ...... ... ...X.. .. ....... .",
"... .  . . .....X.........X..... X=Nmmmmmmmmmmmmmmmmmmmmmmmmmmmmmmmmmmmmmmmmmmmmmmmmmmmmmmmmco.. X ..X........... X..... .... ..",
".. .... ..................... X.  -nnmmmmmmmmnxmmmmmmmmmmmmmmmmmmmmmmmmmmmmmmmmmmmmmmmmmmmmmh.......X............. .. .X....... ",
".....................X..........  =nmmmmmmmmmmmmmmmmmmmmmmmmmmmxmmmmmmmmmmmmmmmmmmmmmmmmmmmmh...........X .. ........ X.........",
"......... ...........X.. .........=xmmmmmmmmmmmmmmmmmmmmmmmmxxxmxxxxmmmmmmmmmmmmmmmmmmmxmmmmh..............XX...X...............",
".. ..  XX..............XX.........-xmxmmmxmmmmmmmxmNNmCmmCCmxxxxmmmVmmmmmmmCmmmmmmmmmmmmmmmmh.....X..X..........................",
"........... .........X....X.......-xxmmmmmmmmmmmmpe8e8e888r88re88r8re88er888e8e88e00ee0ee9097...........X....X..................",
".. ................X..............;xxmmxmmmmmmmmm2o.o.o.@ooo..o.oXXoX@o.XXooo@..XO....o.............X.X...............X.........",
" . ..............X................-xmmmmmmmmmmmmm2o.....XX..............Xo......X..............................X................",
"....... .. ..... X ...............=mxmmmmmmmmmmmm4o.....oo..............Xo...X..X...................X.......... .X.....X........",
"................  ..X.X.... X.....&xmmmmmmmmmmmmm5......X...................................X...................................",
"........ .......X. . ......X......-mmmmmmmmmmmmmm4......X.......................................................................",
"...... X.........X.X. .......X....;mmmmmmmmmmmmmm3....X.X......X...X...X......X...........X...X...........................X XX..",
" .  .....X. . ...........X........=xmmmmmmmmmmmmm6........X........X....X.........X..X................X...................X  ...",
"...X. .. ..X....X. ...X...........-xmmmmmmmmmmmmm5....o..o............X..X....X.......X..X...........X...................   ..X.",
"..X .X.......................X....;xmmmmmmmmmmmmm<.......XX....XoX.X.X.....X................X...X.....................X...  ....",
".....X  .  ....... X..X......X....;xmmmmmmmmmmmmm3...X.....X.......X....X................ .......X...XX......................  .",
"..... ...XX.X.......X.........X...=xmmmmmmmmmmmmm<.....X......X.....X........X.............  .........................X ........",
". ..... .  ......X................;xmmmmmmmmmmmmm3..............X..............X.....X...... X.............X....................",
"...... . X. ........X.......X.....=xmmmmmmmmmmmmm<.........X.....X..X........X....X.......X.........X.X.X....... ...... ........",
"....... .X.......X .. .. X........=mmmmmmmmmmmmmm5.............................................. ...X.X... X ....X. . .......X..",
".... .X........X. ..X.............=xmmmmmmmmmmmmm6..ooo..Xo...........o..o...oo..oo..o........... X...... X .. ....X. .. X......",
" ..... X .X... .. ..... .X...X.X..;xmmmmmmmmmmmmmcckkkkkclccclcckkckkBccckccckcccccccfX.....X...... ................XX ... .....",
"X ........  ...X XX........X......=xmmmmmmmmmmmmmmmmmmmmmmmmxmmmmmxmmmmmxxxxmmxxmmmmmho......... .. X....... ... ............. .",
" .X . .. X.  X .....X.....X.......;Nmmxmmmmmmmmmmmmmmmmmmmmmmmmmmmmmmmmmmmmmmmmmmmmmxh.. .X.....X..........  .. .X.. .X ...X.X .",
". ....... .X.X. XX................;xmmmmmmmmmmmmmmmmxmmmmmmmmmmmmmmmmmmmmmmmmmmmmmmmmfo.......... ...X.... . X......... ....... ",
". ...  ... X. ....X.....X ..X.....;mmmmmmmmmmmmmmmmmmmmmmmmmmmmmmmmmmmmmmmmmmmmmmmmmmi.......... ..... X..X.. X. .  .. X. .. ...",
" .............X .. X...........X..;xmmmmmmmmmmmmmmmmmmmmmmmmmmmmmmmmmmmmmmmmmmmmmmmmmio.....X.....X . .X.. ... ......X..........",
". ........... .X..............X...;xmmmmmmmmmmmmmmmmmmmmmmmmmmmmmmmmmmmmmmmmmmmmmmmmmio.........X...... ..X. ... X.... .......X.",
"............X. .............X.....>mxmmmmmmmmmmmmmmmmmmmmmmmmmmmmmmmmmmmmmmmmmmmmmmmmcqwqqqre... X..X... XX ....X.. ....X.......",
".X. .. ... ......X.. .X .....X....;xmmmmmmmmmmmmmmmmmmxmmmmmmmmmmmmmmmmmmmmmmmmmmmmmmmmmmmmmc......X..X.. X.. ...........X...  .",
". ......X......... .... .......X..;xmmmmmmmmmmmmmmmmmmmmmmmmmmmmmmmmmmmmmmmmmmmmmmmmmmmmmmmxc........X... ...... ...... . ...X..",
".....X...  ..... ....X......X.....,xxxxmmmmnmmNmmmmmmmmmmmmmmmmmmmmmmmmmmmmmmmmmmmmmmmmmmmmmh...............X.. .. ..... X .....",
". ... . .XX. . ..... .X...........;mmxmmmmmmmmmmmmmmmmmmmmmmmmmmmmmmmmmmmmmmmmmmmmmmmmmmmmmmlo........... ...X.... ......X. ....",
"X.........X.. XX.....XX..X.X......;mxxxxmmmmmmnmmmmmmmmxmmmmmmmNmmmmmmmmmmmmmmmmmmmmmmmmmmmmh..........X.X. . .X............ X..",
".X....X.. .. XX .X.X.. XX.....X...;NxxxmNxxxnxxMNmxxNxbxNxxxxxnxNnnNNnNmmmmmmmmmmmmmmmmmmmmml........... .XXX ......X..X...X.. X",
".... X........X....X.....X.....X..+1,,1,,,,,,,2,,,,2,,12,,,21,,222,2<,<smmnmmmmmmmmmmmmmmmmml. ......o........  X.. . .......X..",
"...... .....X....X..XX........X........................................tmmxmmnmmmmmmmmmmmmmmc. ..........X....X X..X........ X. ",
"....X... X.............XX..............................................rmmmmmmmmmmmmmmmmmmmml........... X   X  .... ...........",
"...........X .............X..X.........................................rmmmnnmmmmmmmmmmmmmmmlo..........X XX  XX.............X..",
"............. X ........X....X.........................................rmmnmmmmmmmmmmmmmmmmmco ..X.X.... .............X... . ...",
"....  ...XX X. X.......XX..............X.......X......X....o..X........rmmmmmmnmmmmmmmmmmmmmc.........X.X  .. .. ..X.  ...X.... ",
"...X........... ............X..X.........X...X..X.....X.X.....X.......otmmmmmmmmmmmmmmmmmmmmlo ..X..X...XX X.... . X..  ........",
".........X..X XX....X.X....X......X...X.X..X..XX....X.............X....tmmmmmmmmmmmmmmmmmmmml.  ........  XX. . X.   XX... .X...",
"....X.X .....X. ......X..........X..................X...X..X....o......ymmmmmmmmmmmmmmmmmmmmco........... ..X .X .X ............",
"..............X.......X...XX...X..X......XX......X.X..X.XX....XX.......ymmmmmmmmmmmmmmmmmmmml.......... .X......X. . ......... .",
". ..X.X ..........XX....X......X.....X.....XX....X...X....X....X.......ymmmmxmmmmmmmmmmmmmmxc................. .. . . .X.X......",
".... .......X...X...X.X...X.X............X....X...........XXXX.........tmmmmmmmmmmmmmmmmmmxmk......X.X .... X...X ..............",
"... ...........X......X..XX....X.XX........XXo...Xo..X.XXXX.X.X........ymmmmmmmmmmmmmmmmmmmml..........X..  X .. .... ......  X.",
".X.X.XX...X.......X..XX.X....XX...X...............X.X.X.X........X.....tmmmmmmmmmmmmmmmmmmmmk...........X.X X .... ..X..X.. X..X",
".  ..  .... .X.....X................o..o...............X...XX..........tmmmmmmmmmmmmmmmmmmmmho......... . . ........ . . ...X   ",
" ...X.X........X..X......X.......X+44244443443342+......X.......X..X...ymmmmmmmmmmmmmmmmmmmmk. ...X.X. X . X .........XX... ... ",
"..X..............X.........XXXX. .;mxmmmmxxmxmmmm2....X....X.X....X..X.ymmmmmmmmmmmmmmmmmmmmko....X........X . .....X . XXX..X. ",
"..................X...........X...;Nmxmmmmmmmmmmm2....Xo...X......X.  .ymmmmmmmmmmmmmmmmmmmmho..XX..X..X......X..... .X. . .. XX",
"............. ...............X....;xmmmmxmmmmmmmm2......X..X.X..Xo X...ymmmmmmmmmmmmmmmmmmmmlo.......X.... .........X XXXX .   .",
"........... .......XX......X.X....-xmmmmmmmmmmmmm<......XX..X.X........rmmmmmmmmmmmmmmmmmmmmk.... ..X ........ .. .       .  X  ",
".. ...... . .....X. .. ..XX.......-xxmmmmxmmmmmmm<........X....X.......tmmmmmmmmmmmmmmmmmmmmh...X.............. . ..... . ..XX X",
"X X .. .X...........XXX.....X.....;mxxmmmmxmmmmmm<.....X....X..........rmmmmmmmmmmmmmmmmmmmmh.... ...... ......... . X.X..X. .. ",
"...X........X...XXX ... ..XX......&xxmxmmmmmmmmmm<...........X.XX......tmmmmmmmmmmmmmmmmmmmmho....XX....X..  ........ X.. .. X  ",
"X.. ..X.. ... .X X.X..............;xmmmmmmmmmmmmm2..XX.....X...........rmmmmmmmmmmmmmmmmmmmml............X..... . X......X... ..",
".......... X.X. .X.X...X...o......;mxmmmmmmmmmmmm<o...X..X.....X.......rxmmmmmmmmmmmmmmmmmmmh... ..X. X..... ........ .X....... ",
"....X...   X  X...................;xmmmmmmmmmmmmm2....XX....XX. ......ormmmmmmmmmmmmmmmmmmmmlo......X. X.X..X.X . .....  XX X. .",
"........X..XXX X..X..X............;mmmnmmxmxmmmmm<.....................rmmmmmmmmmmmmmmmmmmmmk...X.  X X. .. .........X.X X.X...X",
"........ X     X....X  ..X....... =xmmmxmmmmmmmmx<.....X.. ..X.X.X.....wmmmmmmmmmmmmmmmmmmmmh....X..X.X ...X. ....... ...   . X ",
".. . ... ...XX X................. -mxmmmmmmmmmmmm:...X.X....  . ..X...XrmmmmmmmmmmmmmmmmmmmmbO....X. X . . ........ .. X..  .X .",
".X. .......X.. ..X.............. .-mmmmmmmmmmxmmm6-=&%&=&&=%-=&===&=&=-pmmmmmmmmmmmmmmmmmmmmho...... .X ... .. ..X..X.. ...... .",
". ............X.........X....... .;xxmmmmmmmmmmmmxmxmmmmNxxmNmmxmmmmxmmmmmmmmmmmmmmmmmmmmmmmko.. .... ... .. ........ X .. X....",
"X.X....... .... ..................-mmmmmmxmmmmmmmmmmxmmmmmmmmmmmmmmmmmmmmmmmmmmmmmmmmmmmmmmmjX...X.... X. .. . . ..... .X . . ..",
"........X....X ...X.X. X.X........&xmmmmmmxxmmmmmmmmmmmmmmmmmmmmmmmmmmmmmmmmmmmmmmmmmmmmmmmmh... X.. X  . ....X. .............. ",
".......X .. ...X...  ...X... .X...;mmmmmmmmxmmmmmmmmmmmmmmmmmmmmmmmmmmmmmmmmmmmmmmmmmmmmmmmmh... ...X.X   ...X . ........... ...",
"....X  X ............  X .XX......;xxmmxmmmmmmmmmmmmmmmmmmmmmmmmmmmmmmmmmmmmmmmmmmmmmmmmmmxmj...X. . X XX.... X.... . ... .... .",
".... . .............X . ..........;mmmmxmmmmmmmmmmmmmmmmmmmmmmmmmmmmmmmmmmmmmmmmmmmmmmmmmmmxj... .... .   X. .   ...X ......  ..",
"....X.......X .  ..X....  ... ....&ddddgddcmmmmmmmmmmmxmmmmmmmmmmmmmmmmmmmmmmmmmmmmmmhidigddr......... X... . .X.X. X .. ...X.. ",
".X.. .. .. .. XX..... ....XXX........oo.ootmmmmmmmxmmmmmmmmmmmmmmmmmmmmmmmxmmmmmmmmmm8oooX.oX........ .  .X ....... X... .. .. X",
" .X.....X......  . .. .X.................oymmmmmmmmmmmmmmmmmmmmmmmmmmmmmmmmmmmmmmmmmm7.....X ...X......  .... .. .. . ......X ..",
"...... .... .. .X.X X.X.X. .X.............yxmmmmmmmmmmmmmmmmmmmmmmmmmmmmmmmmmmmmmmmmm7......X. ... ................X.......... X",
"...X...............X ...X..X..............ummmmmmmmmmmxmmmmmmmmmmmmmmmmmmmmmmmmmmmmmm8......X ...... . ....  .. X . ........... ",
"....X........X.X.X...X ...X....X.X.......oummmmmmmmmmmmmmmmmmmmxmmNmmmmmmmmmmmmmmmmmm8.....X..X.......X.......... X...X X...X..X",
"..........X......... ..X..................ummmmmxmmmmxmmmmmmmxmmmmmnmmmmmmmxmmxmmmmmm7.....XX...X........ ... X  ..........X.X X",
".X..X................. ......X...X.......oaNNCCCCCCNbbbxCNNCCCbCCNNVCNNCNbbbVVbbCCCCV5... ........... ...X.X.X .......X. X... ..",
"....X. ...X.......... X.X.........X.......$=$$*$$%$%$$#%$%$%$%%$%%%$&$%%$$&%*==$%$$$&@...... .........X....... ....... .... .X..",
"... ........... ..................................... . ....  .. .  ....................X ..X.......... . X  .. .X........... ..",
"........ .X ..X...X....X.....................  .. .. . ..... . .   . .......................    .......X...X.X............X X...",
".......... ......... . .............X...........................  . ....................X.X..XX............. ............. .... ",
" ...............XX..X.... .........X.....X. ........X........X...... ....X. ..... .X....XX.. XXX ..X........ ..X..............X.",
"X..... .X ....X.. X......X..X.....X.... ...........X..X........X........X..X.X.......X .........X......X..X... ....X........... ",
".XX.........X. XX ..X... ..XX..X...XX X.X..X.X.X..X....XX.X..X.......X....X......X.X. ......X.....X X.X...........X..X......X. .",
"...........X..X .X......X..X..........X..X...X.....X..X.........X.....X.X.........X ...X.............X................. . ......",
"....X.. X..X.....X..X..X..... X........XX ...X..X.X..........X... .........X....X.... ....X.... X................X .XX.X. .... .",
"...X...X.... .X...............X......... ..XX.........X.X..........X.XX.......X... ..........X.......X..X....... X.X. X..X. X...",
". ..X .X ..............XX...........X.........X....X..............X...............  . ..X......X................XX.... ...X.....",
".... ......X.X...X.XX. X.........X.X....XXX X..............X.........X..X....... XXXX............X................. X....X.....X",
" XX XX....X..............X.........X.X.....X.  .............XX.. ... XX ..... ....X..X.X X X.XX .X.....X.................. X.X..",
".. .. .......X..X..X.X....X..X...X....X.X ..XX........X....... .X..XXX X....X.  ....X ... X.X.... ....X ..............X...... ..",
".... X...X........X.............X.....X. ......................X.X..X X XX ...X..X. .X ..XX..X.X  X. ..................X..X.X.X.",
"..X.X X ....X.X.X....X X.X........ X..........X .......X.X..X...X ..X..X....... ....... X..X.....X..XX....X.....X.X.X......X..X ",
".X..XX.....X......X...X..X.....XX... X...X.X .X.X..........X.XX .X....X. ..X. .X... .XXX X X ........ X...............X.........",
"...XXX..X...X.X..X.XX .X....X... X.. .XXX... XX...XX....X..XX X.....X..XXX..XXX..XX.... X.X.X...X....X.....X.....XX....XXX...X..",
"....X .....X.............X.XX..XX  .X.....X. . .......... .. ..X. X X .....X.X........ ... X X.........X...X......X...X.....X.  ",
".. ..X..............X................X.X.. .X ...X.......X.X...X..X X  . X. X...X...X.X X ....X..............X.................X"
};
