/* XPM */
static char *img_71748350344[] = {
/* columns rows colors chars-per-pixel */
"128 128 48 1 ",
"  c #0A0905",
". c #110E06",
"X c #1C1504",
"o c #1C1708",
"O c #231A05",
"+ c #291F06",
"@ c #2D2207",
"# c #3C2C07",
"$ c #322508",
"% c #352908",
"& c #3D2E09",
"* c #412F07",
"= c #402E08",
"- c #443309",
"; c #493609",
": c #47380B",
"> c #4D3B0A",
", c #513D0A",
"< c #4E400C",
"1 c #52410C",
"2 c #654C0C",
"3 c #694F0D",
"4 c #6D520E",
"5 c #71550E",
"6 c #77590F",
"7 c #7A5D0F",
"8 c #765B10",
"9 c #7A5D10",
"0 c #7E6110",
"q c #806110",
"w c #8A6610",
"e c #957112",
"r c #9F7713",
"t c #9D7815",
"y c #A47B14",
"u c #AA7E14",
"i c #A58017",
"p c #B48815",
"a c #C69417",
"s c #C89616",
"d c #C69618",
"f c #CC9918",
"g c #DEA71A",
"h c #DFA81A",
"j c #E1A71A",
"k c #E5AB1B",
"l c #EBAE1B",
"z c #ECB01B",
/* pixels */
"                                                                                                                           .    ",
"                   .           .                                                                                                ",
"                                                                                                                                ",
"            .                                                                                                                   ",
"                     .                                                                                                          ",
"              .                                                                                                          .      ",
"                                                                                                                                ",
"   .                           .                                                                                                ",
"                                                                                                                                ",
"                                                                                                                  .             ",
"                     .                                                                                                          ",
"                                                                                                                                ",
"                                                                                           .                                    ",
"                                                                                                                                ",
"                                                                                                                                ",
"                                                                                                                                ",
"                                                                                                                                ",
"                              .                                                                                                 ",
"                                                                                                                                ",
"                           .     o&%%$%%@$+$%%@@$@@@@@@@@$@@@O@@$$$$$+$+$+%$$$+$%%$$$$O$@$$@$$.                 .               ",
"                                 ,zkzzllzzzzzkzzzkzzzzzzzkzzlzzzzzzzzzkkzzzzzlllzkzlkzzzlzkzzz1                                 ",
"                                 :kzzlzlklllzklkzkzzllkkkkzzllzkzkzkkzzzllzkklllllzzllzklzzzkz>                                 ",
"                                 :kllzlzzlllzlzzzkzkzlzzzzzzlzllzkzkzzzzlllzlllllllkzzzzllzzzz,                                 ",
"                        .  .     :kklzllllllllllzzzzzlzzkzkzzllzzzzzkkzzlzlllllllkzlzkzzzzkzkz>    .                            ",
"  .   .                          >lklzllllzlllllzzllllllllllllzlzzzzlllllzlzllllzlllllzllzllzk>                                 ",
"                                 >llllllllllllllzllllllllzllzlllzkzklzzllllllllllzlzzlllzzlzzz>    .            .               ",
"                                 ;jllzzllllllllzlllllzzlllllllllkkzkzllzlzllllllllklllzzllllzz,                                 ",
"                                 >jlzllllllllllllklllllllllzllzlzzzzlllllzzzllllllzllzzzllllzz1                                 ",
"                             .   ;lllllllllllzlzzlllllllzlzlllzlzzllllllllllllllllllllllllllzl>   .                             ",
"                                 ,jllllllllzllzlllllllllllllzlllzzllllllllllzlllllllllllllllll>                                 ",
"                   .             ,llllzlllllzllllllllllllllllzzllllzllzlllzlllllklllzlllllllll,                                 ",
"                                 ,jllllzllzllzlllzllllllllzlllllzlllzllzzlllllllllllllllllllll>                                 ",
"                                 <kzlllzlllzzlllllllzlzzllllzlzzlllklzlllllllllllllzzzlllzzkkz:                          .      ",
"                                 <kzzlzlllzzlzlzllllllzlzllllzlkllzzllllllllllllllzzzlzllzlzzz,   .            .                ",
"                          .      <kklzlllllzllllllllzlllzllzzkzlkzzzklllllllzllllzlllllzllzkzk>.      .            .            ",
"                                 <kzlllllzllllllkjjggjhkkggkjhhjhhkkhkjggkjgjkjklllllllzlzkzzz, .                    .          ",
"                                 :kzzzlllllllllleXXOXoooXXXXXXXXXXXXXXXXXoXOXXXfllllzzlllzllkz:                                 ",
"                                 <kzkzllllllllllq      .                      .allllllzlzlllzz,                                 ",
" .             .                 :kkzzkllzllllll9                             .fllllllllllzlzz,        .                        ",
"  .                              <kzzzlzllllllll9                             .allllllzllzzlzz,                                 ",
"                                 ;kllllllzllllllq    .                        .aklllllzlzlllll,                      .          ",
"                                 >klllllzlllllllq                              allllzlzllllllk>                                 ",
"                                 >jlllllllllllll9                             .fllllllzlzlllll>           .                     ",
"                                 ;kklkklllllklkl9                             .fllllllllkkklkj-                                 ",
"                                 X>,>,,,,>,>>;>>$                      -6qqqqqqjlllllls,>>>,>:o                                 ",
"                                              .                        0klkkjlkkllllllu.                           .            ",
"                                                                       9kkklllllllllllu                                         ",
"                                                                       9llllllllllllllu.                                        ",
"                                                                       8zlllllllzzzzzlu.                                        ",
"                                                                    .  5klllllllkzzklzu                                         ",
"                                                                 .     2klllllllzkzzzzu.                                        ",
"                                                                       2klllllzzkkkkkkp                                         ",
"                                                               $tiyytyydlzllllk4::::::%                          .              ",
"                                                               &kkkkkkkllzllllz=                                                ",
"                                                               -kzklzzzllllllll:                                                ",
"                                                               -kkzzzzkzlllllll-                                                ",
"                                                               =lllllllllzlzzll-                                                ",
"                                                               -lllllllllllllll>                                                ",
"                                                               -lllllllllllllll>                                                ",
"                                                               =jlllllzzllllllk>                                                ",
"                                                               =jlllllzzlllllll;                                                ",
"                                                               &lllllllzlllllll;                                                ",
"                                                               &lllllllllllllll;                                                ",
"                                                               %llllzlzllllllll;                                                ",
"                                                               *kllllllllllllll=                                                ",
"                                                               *lllllllllllllll;                                                ",
"                                                               *kllllllllllllll;                                                ",
"                                                               *llllllllljljklk*                                                ",
"                                                        2676q66ekllllllw-;=;;;>X                                                ",
"                                                       .ykjllllllllllll5     .                                                  ",
"                                                        ujlllllllllllll5                                                        ",
"                                                        ulkllllllllllll5                                                        ",
"                                                       .yjllllllzllllll5                                                        ",
"                                                        yllllllllzlllll5                                                        ",
"                                                       .yllllllllzlllll5.                                                       ",
"                                                        yllllllllzllllk5                                                        ",
"                                                        ullllllzzlzllll5                                                        ",
"                                                       .rllllllllzzllll5                                                        ",
"                                                        ujllllzllzlllll4                                                        ",
"                                                       .ullllllllllllll5                                                        ",
"                                                       .ulklzzlllzlllllq                                                        ",
"                                                        rklllzlllzlllll3  .                                                     ",
"                                                       .ukllzzzllllllll4                                                        ",
"                                                        yllllzlzlllllll4                                                        ",
"                                                    .   yllllllllllllll4                                                        ",
"                                                        ykzllllzlllllll4                                                        ",
"                                                       .rlkllllllllllll5                                                        ",
"                                                        ylkllllllllllll5                                                        ",
"                                                        ylllllzllllllllq                                                        ",
"                                                       .rllllzlllllllll4                                                        ",
"                                                        yllllllllllllll5                                                        ",
"                                                       .ullzlllllzlllll3                                                        ",
"                                                        yklllllzlllllll3                                                        ",
"                                                        yllllllllllllll3                                                        ",
"                                                       .ukkllllllzlllll4                                                        ",
"                                                        ulklzllllzlllllq.                                                       ",
"                                                        yljllzlllllllll4                                                        ",
"                                                        yjlllzlzlllllll5                                                        ",
"                                                        ylllzzzllllllll5                                                        ",
"                                                        ylkllllllllllll4                                                        ",
"                                                        yllllllllllllzl5                                                        ",
"                                                        yjllllzlzzzlllz4                                                        ",
"                                                        ukllllllzllzllz3                                                        ",
"                                                        rlllzllllzlzlll2                                                        ",
"                                                        ykllllllzllllll4                                                        ",
"                                                        ulllkzllzzlklll4                                                        ",
"                                                        yllkzllllklllll5                                                        ",
"                                                        ykkkzkkzlllllll4                                                        ",
"                                                        #;;;;;;;*;;-,*,+                                                        ",
"                                                                                                                                ",
"                                                                                                                                ",
"                                                                                                                                ",
"                                                                                                                                ",
"                                                                                                                                ",
"                                                                                                                                ",
"                                                                                                                                ",
"                                                                                                                                ",
"                                                                                                                                ",
"                                                                                                                                ",
"                                                                                                                                ",
"                                                                                                                                ",
"                                                                                                                                ",
"                                                                                                                                ",
"                                                                                                                                ",
"                                                                                                                                ",
"                                                                                                                                ",
"                                                                                                                                ",
"                                                                                                                                "
};
