/* XPM */
static char *img_91748350342[] = {
/* columns rows colors chars-per-pixel */
"128 128 52 1 ",
"  c #0B0A05",
". c #110E04",
"X c #141004",
"o c #191605",
"O c #1E1805",
"+ c #241D05",
"@ c #262005",
"# c #2B2305",
"$ c #2F2805",
"% c #312705",
"& c #352B06",
"* c #392E06",
"= c #373007",
"- c #3B3106",
"; c #443506",
": c #473906",
"> c #4A3B06",
", c #423608",
"< c #503F08",
"1 c #554507",
"2 c #594607",
"3 c #5C4907",
"4 c #564408",
"5 c #5A4608",
"6 c #5D4A08",
"7 c #665108",
"8 c #6F5808",
"9 c #7B610A",
"0 c #8D6D0B",
"q c #906F0B",
"w c #92710B",
"e c #AE860D",
"r c #AF880D",
"t c #B1870C",
"y c #B48C0D",
"u c #B88E0E",
"i c #C3960F",
"p c #C6990F",
"a c #CB9D0E",
"s c #C59A10",
"d c #CA9C10",
"f c #CEA10F",
"g c #D4A40E",
"h c #D9A60F",
"j c #DBAA0F",
"k c #CEA110",
"l c #D6A510",
"z c #DCAB10",
"x c #E5AE0F",
"c c #E6B10F",
"v c #E5AE10",
"b c #E6B110",
/* pixels */
"            .                                                                                                                   ",
"                                                                                                                                ",
"                                                                                                                                ",
"                                                                                                                                ",
"                                                                                                                                ",
"                                                                                                                                ",
"                 .                                                                                                              ",
"                               .                                                                                                ",
"                                                                                                                                ",
"                                                                                                                                ",
"                                                                                                                                ",
"                                                                                                                                ",
"                                                                                        .                                       ",
"                                                                                                                                ",
"                                                                                                                                ",
"                                               .                                                                                ",
"                             o                                                   .                                              ",
"                                                                                                                                ",
"                                              . .   .      . . .   .. .    ...   .                                              ",
"                                          %ljgljfzzgjhgghfhghghxslllhzfhjghxhhhggjhjj&                                          ",
"                                          *vvvvcxxvxcbxbxxxxxxxxxbbxxxvvbcbbxbxbxxxxx&                                          ",
"                                          %vxvxxbxbxvxxxxxxcxbbxbxbxxxxxccxxxxbxcccbx*                                          ",
"                                          &vvxvxbxbxcxccxxcxxcxcbxbxcbxxxxxcxbxxxxcxb&                                          ",
"                                          &vvxvvxxxbcccbccxcbxxcbxbbxxbbxcxxbbcxxxxxc&                                          ",
"                                          *xxxxxbbxxxxxbxxxxccbxxbxxbcxcxbxbxcxxcxccb&                                          ",
"                                          &xxbbxbxxxxbcxxbxxccxbbxxxxxcxbxxcxccbxccvx&                                          ",
"                                          %xxxbbxxxxxxbcxcxbxxbxxxbxbccxxcxxxcxcxxxxb&                                          ",
"                                  ,66653559xxxxxbxxbcxcxbxxbxxcxccxbxccxbbbcxxxxxxxxv933661522o                                 ",
"                                 .pxbxxxxxxxxbbbxxxccxxxbbbcxbbxcbxxxxxxcxbxxxxxcccccxxbxxbxbb@                                 ",
"                                 .pcxxxxxxbbxxbccccxxxcbxxbccxxbcxxxcccxbxbxbbcxxccxxcxxxxxcbb@                                 ",
"                                  axxbbxxxxxcxxxbxbxcxxcxxxcbbbxxcccbxbxbxcxbxxxxccxcxxbxxxcxx+                                 ",
"                                 .ixbxbbxxbbccxxxcbxxxxxxcxxbxxxcccxcxcbcbxbbbxcxxxcccxcxxxcbv+                                 ",
"                                  kbvvbbbvvbbvvbcxxxbxbxxxxxcccbxxcxxbxxbxxxxxxxxxccxcxxxbxxxv+                                 ",
"                        o         sbbvbvvvbbbvvbcxxbxbbbbbbbxbcxxccbxxxxbbxxbbbbxccccccxxbxxxv@                                 ",
"                                  sbvbvvvvvbxxbxccxxbxcbcxxcxxxxxcxcxxxxbbxxbxxbccccccccbxxxxv+.                                ",
"                                  dbvvvvvbbbxvbbccxgghhgjfgjhhggggjjgjhgghggjbxxcxcxcccxxbxxbv+       o                o        ",
"                                 osvvvvvcxxbxxxbccc;.X............X.........%vxvxxcccbxxbbxxxv@                                 ",
"                                  sbvvvvxxbxbxxbccc&     .          .       &vxxxxxxccbxxxxbxx+.                                ",
"                                 osbvbbvbcbbbbxxccx;          .             *xcccbcxcxxxccbcbv+.                                ",
"                                  dbbbvbccxbxxxxxcx*                        &xbbcxxxxxcbxcccbv+                                 ",
"                                 .axxxcxccxxcxcccxc$                        %xbbxcbcbxcccccxxb#                                 ",
"                                 Xaxcxcxccccxcccccx*                    .   %xxxxccbbbbcccccbv+                                 ",
"                                 Xaxxcxccccxxccxccc&                        &xxxcxccxxccxcxxbx+                                 ",
"                                 .axxxcxxccxxxcxxcx-                        &xxxxcxbxxccccxcvx+.                                ",
"                                 .pxxcccxxcxccccxxc&                        &bxcccxxbbccxcxbvv+                                 ",
"                                  pxxxxcccxcccccxxx&                        *bxcxxccxxcxxxccbv+                                 ",
"                                 .axxxxxxxcxxxxcxxx&                        &xxxxbxxccxxxbcvvv+.                                ",
"                                 .ixxxxxcxccxxxxcxc*                        &xxxxxcccxxxccbxcb+                                 ",
"                                  avvxxvccxccccxxxc&                        &xxxxxbbbxcxxxxbxx+                                 ",
"                                 .axxxvxccccccbxxxx-                        *vxxxcbxcbccxxcbxx#                                 ",
"                                 .pxbbxvxccbxccccxc-                        &xxccxccccccxccccx+                                 ",
"                                 .axxxxxxxcbcccxxxx-                       .*xxxxxccccxcxxcxxx+                                 ",
"                                 .dbxbxxxxcxxxbxxcb&  ... . . ... ..  .   . *vxxccxccccxxxxcxx+.                                ",
"                                 .axxbbxxcccxbxccbbvhhjghchjhhghxglhlggljxgvxvxxcccxcccccbxxxb+                                 ",
"                                 .axcxbbbcbxbxbcbcxxcxcxccccxxccxxxxxbxbcxvccxxbccxxxxxccxcxxx%                                 ",
"                                 .axxxbxcxbxbxxxcccccxxxcccxxxxxxxxxcxxbxcxvxbxxxccccccxcccxbx%                                 ",
"                                 .sxxccccbccccbxcxcxxbxxcxxbcxxcccxcccccxcxbcxxxvbcxbbxcbbbbbb#                                 ",
"                                 .avxccxcxcxxxxccccxbxxxxxxbcxxccccxcxxxcxbxxcxxvvbccbcxzbzbbb+                                 ",
"                                 .avxcbcbcccccvxcxcxxbxxccccxcxcxxccccxcxxbbxcxxbbbvxxcxbbbbbz@                                 ",
"                                 .pvxxxxcxcccxbcxxcxxbxxxcxcxcxxxxcxcxcxxxxbxcxcvvvbxcxcbvbbbb+                                 ",
"                                  avxxxxxxxxbxxccxcxccxxcxxccxccxcxxxccccxcxcxxcvbvbvvbvbvvbbb+                                 ",
"                                  ;51441348xxxcbxxxxxcxxcxxxcxxxxcxcxxxcxcxxcxxcvvbvvvvvbvbvzbo                                 ",
"                                          -xcxxcxccxxxxxxcxcxxccxxcccxcccxbbcxxxbbbbbvvvvvvvbb+                                 ",
"                                          &xxcxcxxccbvxxxcxcbxxxxcxxccccccxxxxxcbvbvbvbbvvvvbb#                                 ",
"                                  .       &xcxcxxcccxxxcxxxxxcxxxcxxxxxxxxxxxxxxccxcxxccxccxxv+                                 ",
"                                          $vxxcxxxxcxccxxxxxxxxxcxcxxxxxxxxxxxxxxcxxxxxxbxxvbx+                                 ",
"                                          -xcxxxxxxxcxcxxcxxccxxcxxxxxxxxxxxxxxxxcxccxcxxxcxxx@                                 ",
"                                          &xxccxxxxxxxxxccxcccxxcxxxxxxxxxxxxxxxcxxxcxcxcxxxcc@                                 ",
"                                          &xbxxxxxcxbxxxxcccxxxxxcxxxxxxcxxxcxcxxxxxxxxcxxxxcv@                                 ",
"                                          $aaaffaffaaagaafaaafgaafpgiaafppgfgxxxxxxxxxcxcxcxbj@                                 ",
"                                           ..X.......XXXX.......XX.......X..*xxxxxcvxxxcxxxcxv+                                 ",
"                                                   .                        &bxccccxxbccccxxxv@                                 ",
"                                                                            &xxxxxxccxxxxxxccx#                                 ",
"                                                                            &xxxcccxxcxxxxxxcc+                                 ",
"                                                     .                      &cxxxxxxccccxxxxcc+                                 ",
"                                         .                                  %xxxxxccccxcxxxcxb+                                 ",
"                                                                            &xxxcxccxbcccccccx+                                 ",
"                                   .                                        *xxxcxxcbccccxvbxxO                                 ",
"                                 .9wqqqq0qq0q0qwq0w+                        %bxcxxxcxxcxxcxxcc+                                 ",
"                                 .sxxxxxcxxxcxcxxxc*                        &bccxcccxccxxbcxcc+                                 ",
"                                  sxbxbccxxxxxcxbcx-                        %xbccccccccccxxcxb+                                 ",
"                                 .ivvxxcxxcxxcxcccb-                        &cccccccxxcxxxxxxb+.                                ",
"                                 .dvxxxxccxcccxxcxx*                        &ccxcxcxcccxcccxxc+                                 ",
"                                 .avxcxxbcxcxcbcxcx-                        *xcccxcxxcxcxcccxx#                                 ",
"                         .        axbccxxxcccccxcxx&                        *xcxxxxxcxxcbbxcxv#                                 ",
"                                 .abxvxcxcxxxcccxcx-                        *xxxxccxcxcxbcxcbv#                                 ",
"                                  avxcxccccxxcxxxxx1*&-*-=&&=&&-&=&-=-**&&&&<bxxxccxxxcxbxxxbx@                                 ",
"                                 .axxxccxjcxcxcccxxxxxbxxccccxxccxxxxxcxxvvxbxcccxccxcccxbbbxb+                                 ",
"                                 .sxxbxxccccxcxxxxcxxxxcccxcxxcbccxcxxcxxccxbbvcxxccxbbxxxxxxv@                                 ",
"                                  pbccbxbxccbxcxccxxxxccxccxxxxxxcxxcxcxbcbccbcbxxcxbxccccxvbb+                                 ",
"                                 .axxxxxcxcxxcxcxbbxbbcccxcxbxxxxxxxcccccccxxcxxccccxxxxcxcxxx+                                 ",
"                                  dxxvbcxxcxxccxccxbxxxcxcxbccbxxcxxxcxcccxxbccccxccxccxxxccxb+                                 ",
"                                  pcxxxvxxccxcxxcxcbxxxcxxxcbxxccxcxxcxxccxcxcxccxcxxcxxxxxxcx+                                 ",
"                                 .icxbvxxxxxbxcccxxcxxxxbcxxcxxxcxxcxxxxbxxcccxxxxccxxxxxcxxxx$                                 ",
"                                  pxvxvbvvccxxcccxxxcccbxcxcbxccccxccxccxbcccccbcxxcxxxxxbbcxx+                                 ",
"                                  ;::::>:;7xcxxxxxcxxxxcxxxxbxbxxcxxcccxcccxbxxxcxcxx7:>;>:>:*.                                 ",
"                                          %xxxxbcxxxbxbbxcxcxcxcxxxxcxxxcxcxxxxxxcccx&                                          ",
"                                          %xvxbxcxxxxbxcxxxbxcxbxxvvxxxcbbxxccxccccxx&                                          ",
"                                          &xvxxxxxccxbxccccxcxcxxxcxccccxcbcxxxcccxcc$                                          ",
"                                          &xxxxxbcxcxbxxxcxxxxxcccxxxxcxxxxcxcxcccccc&                                          ",
"                                          *xxxxxccccxcxbxcxxxxxxxjxccccxxxxxcxcxccxbx#                                          ",
"                                          %xxxxxxxxccxbxcxcxxxbxcxxccxcxcxxbxxcxcxxcx&                                          ",
"                                          %bbxbxxxcxxxxxxxxxxxxxccccccbbbbxxxcbxccxbx$                                          ",
"                                          +tyyuutryttututrytuyyyuyytruutttutyutyryrteO                                          ",
"                                                X X  ... ... ..... X XX     .  .. X..                                           ",
"                                                                                                                                ",
"                                                                                                                                ",
"                                                                                                                                ",
"                                                                                                                                ",
"                                                                                                                                ",
"                                                                                                                                ",
"                                                                                                                                ",
"                                                                                                                                ",
"                                                                                                                                ",
"                                                                                                                                ",
"                                                                                                                                ",
"                                                                                                                                ",
"                                                                                                                                ",
"                                                                                                                                ",
"                                                                                                                                ",
"                                                                                                                                ",
"                                                                                                                                ",
"                                                                                                                                ",
"                                                                                                                                ",
"                                                                                                                                ",
"                                                                                                                                ",
"                                                                                                                                ",
"                                                                                                                                "
};
