/* XPM */
static char *img_21748350343[] = {
/* columns rows colors chars-per-pixel */
"128 128 56 1 ",
"  c #070705",
". c #080706",
"X c #070806",
"o c #080806",
"O c #120E05",
"+ c #161205",
"@ c #1C1606",
"# c #1F1806",
"$ c #1B1709",
"% c #1E1908",
"& c #211A07",
"* c #231B08",
"= c #291F08",
"- c #29220A",
"; c #372B0B",
": c #382B0A",
"> c #3F3209",
", c #40330A",
"< c #4F3E0B",
"1 c #513F0A",
"2 c #55420C",
"3 c #5A460D",
"4 c #5D480E",
"5 c #654E0C",
"6 c #67500B",
"7 c #6C530B",
"8 c #71570B",
"9 c #74590C",
"0 c #7B5E0D",
"q c #84650D",
"w c #8D6C0C",
"e c #916F0C",
"r c #94720D",
"t c #9B760D",
"y c #9E790D",
"u c #A37D0D",
"i c #AD840E",
"p c #B2870E",
"a c #B5890E",
"s c #B98C0E",
"d c #B28710",
"f c #C4950E",
"g c #C8970D",
"h c #CB9A0F",
"j c #D19E0F",
"k c #D39F10",
"l c #D4A10E",
"z c #DBA60D",
"x c #E5AD0D",
"c c #E8AF0F",
"v c #ECB30F",
"b c #F3B709",
"n c #F4B80A",
"m c #ECB410",
"M c #F0B710",
"N c #F2B911",
/* pixels */
"   o .   .. .XX.... .X .  ..o...X  .    ..X ..   ....  X X. X      X. . XX.... .  . X .   XXX.X  X   XXX .X   X . X..   .. . XX ",
". X .  ..oX . .. . o  .. .. X o.X   .  . . .    X. X...X       X  X.XX  XX.  X. ..    .X  .X........ X.. . X.  XX.  X ...   .X X",
"  X  o o      . X X.. .  .  ..X  X   . X .X. .   .  .  .  .    X..    ......      X    X. ..XXXX   X  ......XXX.X   X... X. X . ",
"oo  o  .  . .X.X .X.  . .    .. .X.X  . ..      X  X    ..   ..       . XX. X.X  ..  .  X ..XXX   .      ..X X....X.. ....X.X .X",
".o  .     .X oX XX.... . .   X.X .XX    ..XX  X     .       .X X  .         . .. .      .           X          X. X.X. X..  . XX",
"   X..     .. o.XXX..X    X   ...o ..     .                 . X .            .   .    .           X.X. .   .    . XX. .. .   X X",
" .  o   oX.X..o  . ... .X.   . X   o    .  X        .    .X .   ....  X    .  .     .             ...   ..      X.XX   X. . ..  ",
"   o.     o   .  . X  . X.X XX .          . .     .      ..  .  . .   . XX  .       . .X X      .X.X. X         .X . XXXX..  .  ",
"X. . o    X o .  .X   . ..X  .XX            .              X            .. XX   .     .    .X.X  .X XX X   .   .X X... X.XX.XX .",
".       .      o ..   ..X. .    . ...   .  ...          X XX   .            ..      . . . X X.   X.. ..    .    ...X   X.X    ..",
"     . .o    X ..XX. XX.  . XX   o X  o   .  .   ..X        XX.X X          .    .      X.. .   X.  . ..X.        ....  ..X.  X.",
"o     .  X  .    . ..X..  ... ...      . ...      .X X      X . X             .          . .X  ..X  XX.XXXX      X....    X .X  ",
"o           o    . X.. .XXX.X..  .       . o     ..    X. .    ..                  .... .XX.   .   ...   . X .  .. ..  X   X  ..",
"   X  .  .     .X..X.....X...    .     .  ..   o. X..X           .             . .   . ..X.X       .X.X..X. .   .X...  X        ",
"o   X         .      . XX X..        .  X  .     .XX.   .     X.              .  X  .  X.  ... .  . ... ...X          .  .X.XX  ",
".    X      o.   .XX ....X.  .    .    ...  .   .  . .        X              .        .  ..     .....   X.XX      .X. X.   XX.. ",
" .. ...  .X.XX  ..  XXX  .. .X X    o X ..               .        .     .  .     ..             X . X. .X..     ..XX   . .   . X",
".   ..    ..XX  .    X   .XX. .. . .                  ..          X     ..    ..    .    .   .   XXXXXX. ..  XXX. X.   ...    .X",
"  .... . .. XX     .    X ..  .    .  .                          ..     ....               .  .    X     X    .XX . .X     X XX.",
"  XX.. . .....  .  .    ...X     o  o       .       o          ...      .....  .......        . .   XX.         . . ..  .X X X X",
" .  .  X           XX.  XX..X    o..      5ppspassapsaspppsspsspspasppiiuaadususpppsa1.     . ..X X. . X.XX ...XXX      . X     ",
"                X      .. .X..     .      wbnbbbbbbbnnbbbbbbnnnnnnnnbbnbnnbbnnnbbnnbb0   .        X   ..X     .. X     XX. .  . ",
".   .           ..  X. .. .. .  o.        wbnbbbnnbbnnnnbbbbnnbnnnnbbbbbnnnnnnnbbbbbb9     ...     .              X  X  XXXX .. ",
".    .               .. ...X X            ebbbbbbbnnnnnnbbbbnbbnnnnbbbbnnnnnnnnbbbbbbq  .          .       .     .  . .  XXX  XX",
" .. ... .         XX   X   .X     o. .    tbbbbbnbbbbbbnbbbbbnnbbnnbnnnnnnnnbnbnbbbnb0           X XX.XX.X  X      XXXX.  XX XX.",
" . X X      X   X..X       ...    .       tbbbbnnbbbbnnbbnbbnnnbnbbnnnnnnnnnbnnnbbbnb0          X.X..XXX. .X..  .X.  . . .. X  .",
"   X .          XXXX  .  X...X            ebbbnbbbbbbnnbnnnnnbnbbnnbnnnnnnnnnnnbbbbbbq            X.     X.X     XX X..  X   ...",
".            .  ..X X   . .   X  oo3555555pbbbbbnbbnbbnbbbnnbbnnnnbnnnnnnnnnbbbbbnnnbp6655565        .XX  XX     X     .. XX XXX",
"         X.   . ....   X   .X. X  @bbbbbbbbbbnnnbbbbnnbbnnnnnnnnbbnnbnnnnnnbbbnnnnnnnbbnbbbnc.       .        X  .  .      .    ",
"           .    .XX.       ... .  @bbbbbbbbbbbnbnnnbbbbnbnnnnnnnbbnbnnnnnnnnnnnbbnnbbbbbbbbbb.              X XX    X     XX.   ",
"                ...X ..   .       #bbbbbbbbbnbbbnnnnbnbbbnnbnnnbbnbnnnnnnnnnnnnnnnnnnnnnbbbbc       XX    .X  .   X   XX  X     ",
"  .  .          ....  ..XX.       &bbbbbbbbbbnbbbbbbbnbbbbnbnbnbnnbnnnnnnnnbnnnnbbbbnnbnbbbbc     X X.....X        XX  X. X.   .",
"          .     . X    .  X... .  @bbbbbbbbnnbnnnbnnnbnnnnbbbbbnbnbbnnnbnnnnnnnnnnnnnnnnbbbbx    .X   ..   X..   .. .. . .X.  X ",
" .      X XX     .. ...X...X.  .  $bbbbbbbnnbbbnnbbnnbnnnnnnbbnbnnnbnnnbnnbnnnnnnnnnnnnnbbbbx    .. .. XX X .  .X..X..X....X    ",
" .         X    . . X.. .XX       *nbbbbnnnbnbnbbxgggghhhhhhffhffhgjfggxnnnnnnnnnnnnnnnnnbbbx   . . X .XX   .    ...     X      ",
"           X .XX.. ..  .  ..  .   *nbbbbnnnbbnnbbu    ooo oo      ... .ennnnnnnnnnnnnnnnbnbbx      XXX. .X   X . ..   .       XX",
" .        .      . ..... ..       &nnnnbbbbbnbbbnu                  .  qbnnnnnnnnnnnnnnnnnbnx        .X ...     X....   XX  ... ",
"             .X     ...      .    &nnnbnbbnbnbnnnu                  .  qnnnnnnnnnbnbnnnnnbnnz          . ..XX  X XX  . X       X",
"              ..    ..X.    .     +nbnbbbnnnnnbbbu                  ...qnnnnnnnnbnnnnnnnnnnnx         .X X        X  XX.    .   ",
"              . . .  . .          &bbnbbnnbnnbnbbu                  ...ebbbnnnnnbbbbnnnnnnnnx           XX      .    X..    ..  ",
"  .    .  X. . .      .....X  .   #bbbbbbnbbbbnnby                ..   wbnbnnnnnbnnnnnnnnnnnx        .     X  X ..  .. X XX.  ..",
"        XX  ..X       XX..X .  .  -bnbbnnbnnbnnnbu                  .  qbnbbbnnnbnnnnnnnnnnnv         X   X     X X    X ..X  X.",
"  .   . .      .      XX..    X   -bbbbbbnbbbnnnbu       o o       o   qbnnnnnbnnnnnnnnnnnnnb        X          ..  ...   .   . ",
"      .        .       X.X  .X.   -nnnbbnbnbbnbnbu                .    enbbnnnbnnnnnnnnnnnbnc.  ..  .X...       .   . X X.    . ",
" ..    .    .  X     .X .    XX   #bbbnnnnnbnbnnbu      o o            qnbnnnnnnnnnnnnnnbnnnc   .. .XX...   .   X X ........ ..X",
"         .  X .... . ..... .      &bbbbbbbnnnnnnbu        ..           qbnnbnnnnnnnnnnnnnbnbn   .     .  X  XX  X X.. X.  ... . ",
"           ......X  ...  ..  X    #nbbbbbbbbbbnnbu      .  o           qbbbnnnnnnnnnnnnnnnnnc      ....X. X.    X X           .X",
"             ... .   .   X        $nbbbbnbnbbbbbbt   o                 qnnbnnnnnnnnnnnnnnnnnn.      . . . .           ..  X.. X ",
" X          .            .        @nnbvnnbbnbbbbbt                     wbbbbnbbnnnnnnnnnnnnnb                 .  XX   XXXX. . X.",
".X .  .X  .             X  X      &bnbbnnnbnnnnnbt              ..     qbbbbnnbnnnnnnnnnnnnnv.                    . ..X  X    X.",
"     . X                ...       o22342132123421;              tsffffgxbbbbbbnnnnnnnnnnnnnnv                    X. ..       X. ",
"  X. . ...              .. .        X  X    X                   xbbbbbbbbbbbbnnnnnnnnnnnnnnnv                .            .     ",
"   .         .   . ...    .    X..                              kbbbbbbbbbnnnnbnnnnnnnnnnnnnb.                   .X   XX.X X    ",
"  .X    .       X.   .     .X  .    X            o              xnbbbbbbnbnnnnnbnnnnnnnbnnnnv.                        X        .",
"           . .  .... . X. . X  . X.           .  .              jbbbbbbnbbnnbnnnnnbnnbnnnnbnv                   .       X  X    ",
"              . XX X.        X .                               oxbbbbbbbnbnnnnbbnnnnnnbbnnnnc                   .         ..    ",
"    X     X    .  .    X  ..     o       X  ...                 cbbnnnnnnnbnnbnnbnnnnnbbbbbbx        XXX   X     .  X  . ..     ",
"    .    X.X.     X.XX X  X XX.X .     X  XX . . .      O1235433xbbbbbnbnbnnnnnnnnnnbxappsapu       XX.X  X      X. X . .XXXXX.X",
"    X    ....        X    .X XX  .oX  o XXXX. .  .X     1nbbbnbnbbnnbnbnbnnnnnnnnnnbbu              X             .        .    ",
"        ..X .           X   XXX.        X   . X         1bbbnnbbbbnbnbbnbnbnnnnnnnbnbt              .     .       .        . XX.",
" X  .X  ..               X        .. .   .  .   .       1bnnbbnnnnnbnnnnnbnbnnnnbnbnbe           ..     .  X        X.   X  .. .",
"X .            .  ..  XX.XX  X XX      X.  .  .X        1bbbbbbbnnnbnnnnnnbnnnnnnbnnbe            ..    . XXX   X   XX  X.  .  .",
".  X.    . .X  .   . X.. ...  X. o.         .X...       2nnbbbbbnnnnnnnnnbnnnnnnnnnnbe      .     ..X.    X XX       . ..     X ",
" .      X     X.  XXX.. XXXX XX    o  .o..  X.   .      1nnnbnbnbnbnnnnnnnbbnnnnnnnbbe       .     . XXX X.           X .. .   X",
"    .X .    . XX o X   X  X       .             .O**&&&&1nnbbnbnbnbnbbbbbnbbbnguuiuuu5                           .           o  ",
" .. .X       ...    o ..   .                    .8Mnbbnnbnbbnbnnnnnbnnnbnbbnbbw.                     .             .    o X     ",
"    .    X      o     . o       ..   .           8bbbbnnnnbbnnnnnnnnbbbbbnbbbbq                       ..               . X    . ",
"     .   .   .         . o   o       .           8bbbbnbbbbnnnnnnnnnbbnbbbbbbbq                       . X.    . o          . X  ",
"X  . X.   X.  .  X    X.. X.      ..             8bbnbbbnnnnbnnnbnbbbnbbbbbbbbq       .          . ..                         X ",
". .  .  ...X .     .   .     .X ....             8bbbbnnnbnnnnnnbnnnbnnnnbbbbbq        X           .  .  .        ...  X   .   .",
"   .X.   ..  .  .X   X       X X   .          .. 9nbbnnnnnnnnnnnnnbnnbnnnnbbbbq                  .      ...       .      X      ",
"         X       XXX.o .  .X..   . .           . 8nnnnnnnnbnnnnnnbnbnbnnnnbbbbq   .    X            .  .  ..    XX    o     X  X",
" X  X..  .   ..       . o  X              1eeerrranbnbnbnnnnnnnnnnnnbbbq,,:>>>+            .     .  X.  . . X  .     X ..       ",
" .  . .X                     . .  .       ebnnbbnnnnbbnnnnnnnnnnnnnnbbn1             X                  .. .  .     XX.         ",
"   .. .   ...  .  .. ...  .   Xo .   .    wbnnnnbnbbnnnnnnnnnnnnnnbnNbb1           X            .     .      X  XX       o .    ",
".  X    .  .. .   ... . . o    . ..       ebnnbbbbbnbnnnnnnnnnnnnnNbbbb1            .                .          X     .  .X   . ",
". .     .. . .X   .. .  . X.    ..        ebbnbbnnnnnbnnnnnnnnnnnnnnbbb1            .  ....     XX  . X.    .     .   .     o . ",
"....X. .XX. . X       .. ...  oX.         rbbnbbbnnnbnnnbbnnnnnnnnnnnbb1        X        .        .  .           ..X ..        .",
"      .X.      . ..X  .X  . .   .         tbbbbnnbnnnnnnnbnbnnnnbbnnbbb<        .           ..  X     X X          . . X X      ",
"     . .   X.  X. ....    .    .  O2212315ubbbnnbbnnnnnnnbbbbnnnuuuutue:              .      .   X     X   .       .. Xo        ",
"X .  X  X       ..   ... . o....  =bbbbbbbbbbbbbnnbnnnnnnbbnnnbn&.          . . .. ..        .. X    XX         X .             ",
".       .X        o  o  ...   o   &bbvbbbbbbbnbbbnbnbbbnbnbbMbbMO.      .       ..  .        .  X.X   X         ...X     .    ..",
"X             X .  o   ....  . .  &bbbbbbnnnbnbnnbbbbbnbnbbnbbbnO             .   .      .  .   X XXXXX X       . X.    . .    .",
". .X             .  . .  o  ..    #nbbbbbbbbbnnnbnnbnnnbnnnnbnbNO              .   . .             XX                .          ",
".   .        . .   o o  ooX.      &nnnbbbbbnnnbbbbnbnbnnbnnbbbbN.                               X                    .    X    .",
".                    o  o Xo      &nbbbbbnbnbbbnbbbbbnbnnnnnbbbNO                       .           X              . ... .X     ",
"     . .         oo   o  o o      +bbbbbbbnbbnbbnbbbbbnbnnnbNnNnO                        .      X                     .         ",
"   .X..        ..           X     &bbbbbbbbbnbnnnnbnnbnbs+O++oO+         .                      X XX X  X X      . .  ..    X   ",
"      .             oo .   XX   XX&nbbbbbbnbMnbbnnnbbnnnp                 .                               .        .  ..  XX....",
"    .                X          XX&nbbbbMbnbnnnnnbnbnbbnu                 .        .                  X  .         X     X   X  ",
" .  X.             o         X  XX%nbbbbnbbbbnbnnnnnnnnnp                                           ..        .     .. ..      X",
" .   .           o  X    X      XX$bbbbbbnbbbnnbbnnnbbbnp                                        .  ..                        ..",
" ..      .         o            X &nbbbbbnbnbnbnnnnnbnnni                                            X          .            .  ",
"XX  .  . X       o              XX+nbnbbbbbbbbbnnbnbnbbbp                  .   .                     X      .   X.         .. .X",
"X     .X.    X     o o  o  o     X&nbbbnbnbbbbbnbbbbnnbnvhglljjljggjghjhjjjjhjjjjjjjjjjjjjjjf                     .X  .        .",
"X X   .X                       X X&nbbbnnbnbnbbbbnbnbnbbbnbnbbbbbbbbnbnnnnnbnnnnbbbbbbbnbbbbx                      .            ",
"..   .  ...  .    .    XX. X.     @nbbbbbnbbbbbnnnbbnbnnbnbnbnbbbbbbnbnbnbbnbbbbbnnnbnbbbbbbx                                   ",
"..            ...             X   &bbbbbbbbbnbnbnbbbnnbnnbnnbbnnbnnbbbnbnnnbbbbnnnnbnnnbbbbbv                              . .  ",
" ..           X.  .      ..  .X.  @nbbbbnbnbbnbbbbnnbnbnnbnnnnnnbbbbnnnnnnnnbbbnnnnnnbnnnbbbv                                   ",
"    X     .        .     X .      #bbbbbbnnnbnnbbnbnbnnbnnbbbnbnnbbbbbbbnbbnbbbnnnnnnnnbbbbbv                      .            ",
" ..XX .  .       ...        X  .  +bnbbbbnnbnbnnnnbnnnbnnnbbbbbnbbbbbnnnbnbbnnbbnnnnnnnnnbbbc                                   ",
".X ..      ..     .    .    .     @bbnbbbbbbnnnnnbbbnbnbnbnbnnnbnnnnnnnbnnbnnbnnnbnnbnnnbnnnb           .X.     ..  ..          ",
" ...  . ...        ..   .  . .    #bnbbnnnnnnnnnnnbbbnnbbbbbnbbnnnnnnnnbnbnbnnnbbnbnnbbnnbnnc.           X     .          X    X",
".    .  .   ..       .. .  . X    -nbbbbbnbbnnnnnbnnbnbnbbbbnnnnnnnnnnnbnbnbnnbnbnnnbnnnbbbnn.           .   .   ..        ..  .",
".  X X X . ..   ...     . ..      @bbbbbbnnnnbbbnnnbbbbnbnbnbbnbnnbnnnnbnbnbbbbnnbnbnbnbbnnnm.                     ...    .     ",
"  .XX   XX  XX   X            XX  @bbbbnnbnbbbbbnnnnbbbbbnbbbnbbnnnbnnnnbbbnnbbbnnbbnbnbbbbbb                ..     X.     .. X.",
".X.X     . .. X        . .    .   &bbbbbbbbbnbbbbbbbbbbbbnnbbbbbnbnbbnnnbbbbbbbbbnbbnbbnnnnMm.         ...XX          X XX .   .",
"XX .    .  .   X          ..X..   +bbbbnbnbbnnbnnnbnbbbbbbnbbbbbbbnbnbbnbbbbbbbbbnnbnnbbnbnnM.  .       ....         X.  X  .   ",
".. ..   .. X      X.        ..    o6666575776777666699988876676665778688778888865665888878877.  ..       . X                  .X",
"....     .        .        .            XX    X XX                  .  .                  ..              .           .   .     ",
".....  . .   .. X .       .                     X X                                       .       . . .   ..X.  .X  ..X   X    .",
"XX..     .   X. .  .   ..X ..                   XXX                                             ..  .    ..     .    .  .  X    ",
"....         ..XXX.   .  .  X                X   ..X X      X X                 .   .    . X      X.     .   X.  X..  .. X.  ...",
". . .. ..   . . .  . .    .X..XX             X    .                     ....     X   X X.  X  .  X  ..X.  .      X...X..X    X  ",
"..     .      ..X.  X.        .. .  .   .X . XX .   X   ..             .. .    . X     X          . .. .      XX. . XX.   X.    ",
"...  .  .  .X X ..X X . ..   ... XX  .  X.XX .   . X       X            ....      .               XXXX ...      .. . ..   X . X.",
"..    .  . X      .  . .     . XX  .   X.  X X  X..                      . . .      .     .X     X      .  X .X .   .X .. X    .",
"   . . . X..  ..X  . .   . .. X. .  ..    ..    ..         X.           .             .    ..   . .  .. .    .  XX.XX .. .X .   ",
" X  .         .X. .. X.. XX.  X.    X    X  .X      .    .                  .                  X.                .XX.  .  .. X .",
". .  . .. .X . X   X   X . .X  .X.  .X. X.. .   .   XX                             .           X      X.  X.  .  X. X. ...    ..",
"  .       X       .X..           .  ...         .         . .        .                  XX X..       . .   X X  X .. X. .   X  .",
"    .  . .... X..X . .X .       .X     .          X    X        .    X                   X X.     .  ..    . X     .. . . XX   X",
"  . .X.  X       X . X. X.     X      .             . .               .             X. . .XXX..   X       X   .    . . XX.X.X.X.",
"  ..X    .  . X ..  ..XX.X X.          X      .      .          X  .     ..   .     X . X. .  .      XX.X ..  . .X...  .  X.. .X",
" X  ...  X  X   XX.X         X      ..XX               .     . ..   .     .               X  .      .X.   XX  .X. . XX.XX...    ",
"   ..X. .  .     ...   X             .             .      .    X    .    .  ..  .X X       X..    .  X.  XX..   XX.XX X..X..    ",
"  X . ..           . X          X    ..            .           X       . .. ... XX .                 . X   ..  X ... ..   .     ",
"    X ..         ..           . .   XX                   .          .      .. ...X. ..    X   .      X   .  XX . X .X.X..       "
};
