/* XPM */
static char *img_41748350343[] = {
/* columns rows colors chars-per-pixel */
"128 128 59 1 ",
"  c #070705",
". c #080705",
"X c #070806",
"o c #080806",
"O c #120E06",
"+ c #161106",
"@ c #1B1507",
"# c #1E1807",
"$ c #1C1608",
"% c #241D07",
"& c #231C08",
"* c #2D2407",
"= c #2E2508",
"- c #342A07",
"; c #302808",
": c #3A2E08",
"> c #433509",
", c #483709",
"< c #4B3A09",
"1 c #513F09",
"2 c #554309",
"3 c #5A450A",
"4 c #5E480A",
"5 c #624A0A",
"6 c #67500A",
"7 c #69510A",
"8 c #72560B",
"9 c #765A0A",
"0 c #7B5E0B",
"q c #7E610B",
"w c #83640C",
"e c #89670C",
"r c #8B6A0C",
"t c #96720D",
"y c #9B760D",
"u c #9E790D",
"i c #A27C0E",
"p c #AC830E",
"a c #B2870F",
"s c #B48A0E",
"d c #BE900F",
"f c #C7960E",
"g c #C9970F",
"h c #CC9B0F",
"j c #D29F0F",
"k c #C59510",
"l c #CE9C10",
"z c #D19E10",
"x c #D5A20F",
"c c #DAA40F",
"v c #D4A110",
"b c #DAA510",
"n c #E3AC0F",
"m c #EDB30F",
"M c #E3AC10",
"N c #EEB410",
"B c #EFB810",
"V c #F0B710",
"C c #F1B810",
/* pixels */
"   . .   .... X.  . .     . ...    o     o  .      ..       o .    o..  X.     .  . ..    ... .  .   ...            .   o. .    ",
".   .   ... . .. . .  .. ..   .            o        ..   .     .  ..XX  XX.  .  .  .      ..     .   .           .    .     o   ",
"  X  .    X     .   .    .   . .             o   ..    o .     . .     XX.   .        .   .. o                       oo   o     ",
".. X.  ..   .    .    . . X   .   o   o                     .       .   ..  . .         . ..        .            .  .  o   .  o ",
"..  .   X  X     X ...   .                          .                    .       .                    .         .  .        o   ",
"    ..X    .. ..   ..X        .Xo   .     o                     .        XX           .           .    o            o  o ..     ",
"X.  .   . . ...  . ...   .  X.     .        o       .    X      .. .          .         .o o       o.                     o  o o",
"   .    . .      .    .  .    X.          Xo             X   o              X       .  ..          o               .    .o      ",
"     .      .  . ..     ..              .                  o o                        .           o      .      . .  o   .     o",
" .                .   .  .   X  .. ..      . X                                          o    o    o   X.   .       .     o    o ",
"     .   .       ..  ..   .      .        . XX    .                              .       .o o   o o X    .        ....   ..    .",
".  XX                ...X   . .           ..XX          .      o                           .o          o        ...o .      .   ",
".           .      .   .  ...       .            o     o       X    .          .   .    o   o      ..        .  .  .            ",
"         .       ...    ... .    .       X     X  ..                    .      .        . .o        o.    .       ...           ",
"    .              .   .             .   .  X. .  oo    o              .               .                  .           .    o    ",
".          X.      . ... .            .X.   X  X                       .      .       o   ..       .     .          .  o        ",
" .       ...o . .   ..   .. .. X    .    o  XXX o         oX  o         XXX....  X      .    o       o.. ..           o  o      ",
"   .       ..     .       X. X.. .            X.      oo                XXXX..X. .  .                 .         o.     o    o . ",
"               ..X   ..X X..   X   .          X   o                 .   XXXX....  . .                .             o           .",
"   . .          .          X     o  o        .X     o           .... .  .XXX..........    .            ..         o   o o       ",
" .     ..       .        .  . X    o                           &iiuuuyuyyuiuuuuuuuuiu7oo            ...                         ",
"     .   .       .     ..  X .     o                         oo=VNNmNNNNNNNNmmNmNNNNNu.. .                    .            ..   ",
"    .  .         . ..       X   ...  .           o            o;NNNmNNNNNNNNNNNNNNNNNuo.    o o           .   .                 ",
"              . X     . ...X .    . ..  .            oo o.  o o=NNNmNNNNNNNNNNNNNNNNNy..       o                                ",
"    .     .      X  ...  X  .      . .          o      .    .. =NNNNNNNNNNNNNNmNNNNNNyo              o  o                       ",
" . . .      . .              X X  ....     .  .         ..   . =NNNNNNNNNNNNNNNNNNNNNto o   o    .  o        o oo      o  o     ",
"   . .          XX   .  ..           ..       ..     .     .  .=NNNNNNNNNNNNNNNNNNNNNy..           o      o           o      oo ",
".            . ...    . . .  X     .  .. .              $>>:::>2NNNNNNNNNNNNNNNNNNNNNy         o     o                 o .      ",
"         .  .              X ...  .             .       wNNNNNNNNNNNNNNNNNNNNmNNNNNNNy..             o              o          .",
"                X..          .  . .  .  . ..    . .    .0NNNNNNNNNNNNNNNNmNmNNNNNNNmNy..             o            o       o     ",
"                   .  .   .               . .   . .  . .0NNNNNNNNNNNNNNNNNNNNNNNNNNNNyo.            o                           ",
"                    .  ..X             .                0mmNNNNNNNNNNNNNNNNNNNNNmmmNNuoo               oo        o             .",
"    .       . X ...       .  . X   .  .    .   X  ..   .0NNNNNNNNNNNNBNNNNNNNNNNNNNNNi.   .   .  o    o  o o    . o o ..   o  o ",
"        .           .. .. .X  .     .      .X      .. oo0NNNNNNNNNNNNNNNNNNNNNNBNNNNNu.  .       .ooo   o . o  ... o ....  o    ",
"              X   . ..    .   .  X .     .    .     .  .wNNNNNNNNBNBNNNNBNNNNNNNNVNNNu...           o       .      .           .",
" .               . .   .  X              .    .        .wmNNNNNNNNBNNBNNNNNNBNNNNNNNNu..              o        o      o.        ",
"   .  .                ....      X  X..            .   .0NMVVNNNNNNNNNNNNNNNNNNNmNNNNu.                      o      .    .   .  ",
" . X  .     X..                         ..        .  . .0NNNmNNNNNNNNNNNNNNNNBNNmNNmNi..   .   .            o    o              ",
"        .      X    ...     .              .     .     .0mmNNNNNNNNNNNNNNNNNNNNNNNmNNu.  .            o                   .     ",
"            X  ..    .     .       XX.  .       .     ..wmNNNNNmNNNNNNNNNNNNNNNNNNNNmu .  .                           ..        ",
" ...      .   . ....        X                   ........wNmmNNNNNNNNNNNNNNNNNmNNmCNNNy..      .      o       o     ..X . . XX  X",
"            . .  . .  .       ..         X.   X ........wmNmNNNVNNNNNNNNNNNNmNNmNNNNNi...                 o       .    X    . ..",
"            .        ..        ...              .:>>>:>>tmNNNNNztytuyuymNNNmNNNNNmNCmi.X                        .   XX    .     ",
"      .  .X        .X. ..   .X..              X .zMNNmMNMmNmmNNa  o ooogNmmNNmmmNVmNmu.X        o    o              ..X       . ",
" .     .    .    .   ..     . X   ..           ..zNNNNNNNNNNmmmd.o o...kNNNmNmNNNNNNNu.X           o oo    o      .  .   X    .X",
".        .  X  .      ..   .  .            .X.X .zNNNNNNNNNNNmmi.   ..olmNNNNNmNNNNNNuXX          o   o           .X. .        .",
"                 .           .  .             . .bmNNNNNNNNNmmNs.    o gNmmNNNNNNNmmmy                          X        X  .X X",
"               . .   .   .                    . .zNNmNNNNNNNmNVs.    .olNNNNNVNNNNCmmu                o        o.     ..X    .X.",
" .                       .                 ...  .zNNNNNmNNNVNNmi.     .fmNNNNNNNNNNNNu.   .                               .    o",
"   .   .                            .   ..#%#&%&$bNNNNNmzpiaaakwo    ..gmNmNVNNNNNNNNi..                         ..X     o     .",
"       .                .     .  .   X   #VBNBNVmNNNNmNN0 oooooo .  ...zmNNNmmNNNNNNNu.  .                        . .         o ",
"  . X              .       .             @NNNNNNNNNNNNmNq           ...kNNmNNNNNNNNNNi.                             ..   o      ",
"      .            .     ..    . ..   .. $mmNNNNNNNmmNmNq     .   .   .zNNmNmVmNNNNNmi.                           .             ",
"                .           .  .X   X    $CmNNNNNNNNmmNNw    ..       .kNNNNNNVmNNVNNi.   .          .            .            .",
"                  .  . .  .   ..  .  X  .$NNNmNmNNNNmmNNqo   . .      .hNmNNNNmNNVmNmi              .         X .               ",
"   .          .    ..      .  ..X        +NmNNNNNNNNNNmm9o            .zNNNNNNmmmNNNmu.   . .                 .      .     .    ",
"         .         .           . .       %mmNNNNNNNNNNNNw...          .hNNNNNNNNNNVNNi .         . .                   o      X ",
"            .     ..           . .    ...@BmNNNNNNNNNNNN8...          .kNmNNmNNNmmNNNi .                       .             o. ",
"                                  ..  ...@BmNNNNNNNNNNMN0...         .olNNNNNVmNVmNNVio.           .  .           o      X      ",
"                                 X      .+BmNNNNNNNNNNNm0...          okmNNNNmNVVNNNmu..             ..           X            .",
"    ..                        ..  .      oBmmNNNNNNNNNmm0oo         . .zNNNNNNmNNNNNNt                       .       o   o   X. ",
"                 ...    .         X    ..@mmNNNNNNNNNNmm0o          ..ohmNmNNmNNNNNNNt                   .               Xo     ",
"   ..      .              .      . . . . +mmmNNBNNNNNNmm0o.         ...gNmNNNmNmNVNVNy              o    X      o               ",
"      .    .  .                 X .X. .X.#BmNNNNNNNNNNmm0o          .o.zNNNmNNNNNNNNNy                  .XX                     ",
"     o      o  . . o            ..&6665659NmNNNNmirrrrrr>   . X       .jmNmNNNmmNVNNNu..     . .    .          . .           .  ",
"     o     .        o           .o1NNNNNNmmNmNNNC, .. .             . .jNmmNNNNNNmmNNi..             .                  .       ",
"  .             .     o o       ..3NNNmNNNNNNNNNm, .        ..X     . .jNmNmNNNNNVmNNi..  .    .                            .   ",
"             .   .              ..5NNNmNNNNNNNNNm<          X       ...cmmmmmNmNVmmmNy...             .        ..               ",
"            .          oo     o . 3mmmmNNNNNNNNNm,..          X       .xNNNmNNNNmmmmmu    ..     .                              ",
".    .   o o .                  ..2mmmNNNNNNNNNNm>.         ..        .cNNNmNNmNNNNNmy.   ..                       .            ",
".  . o   . ...                  oo2VNNNNNVNNNNNNm>.   ....  .. X       jNNmmNNNNmmNNmi.  ... .......                            ",
"   .     o           o    o     ..2mmNNNNNNNNmNNm3$OOOOOooo.oO.OOOO+$@$cNNNNNNNNNmVmma&O.o+OO@O@@@+$O     .           .         ",
"    .       . ..      o      .  ..3mNNmmmNNNNNNNmVVVVNNNNmNNVNmVVNVVVNVNmNNNNNNmNmmVNNNVNNNVNVVNNVNV0..                         ",
".     .       .                 ..4mmmNNNNNNmNNNNmNNNNNNVNNNNNNNmNmmNNNNNNNNNmmNNNmNmNmNmNNNVNNNNNNm0.                          ",
"    . .            o    ...    ...5mNNNNNNNmBmNNmVNmNNVNNNmNNNNNNNNmNVmNVNNNmNNNNNmmNNNNNNNNNNNNNNNmw.                     .    ",
"        o   .       .   ...      .1mmNNmNNNNNmNmmmmNNNNNVmVNNNNmmVVmmmmNmNNNmNNNNNNNNNNNNNmNmVNNNNmm0.                .    .    ",
".                    .    ..    ..3mNmmNNNNNNNNNNNVNmNNNVVmNNNNNVNNmNNNNNNNNNNmmVmNNNNVNNNNNNNNmNNmm0.                      .   ",
"   .o    oo            o   .   ...1mNmmNNNNNmBmNmNNmNNNNmNNNNmNNmVVmNNNNNNNNNNNNNNmVNNNNNNNNNNmmNNNm0o. .            ..        .",
"             o             .    ..3NNNMVmNNNNNNNmNNNmmNNNmNNNmNmNNmNNNNNNNNNNNNNmNmNNNmNmNmNNNmNNNmm0                           ",
"     .             o            ..1NNNNNNmNNNNNNmmBCmmNNNmmVmmNNNNNNNNNNNNNNNNNNmVVNNNVmNVNNNNNmNNNmw.                 .        ",
". .              .   ...   . .....5NmNNmNmNmmNNmNNmNVNmNNNNmNNNNNNVNNNNNNNNNNNNNmBVNNVNNNNNNNVNmVmNN0                           ",
"               . ..  .  . o  .....3NmNmNNmNmNNNNNNNNNNNNNNmNNNNNNVNNmNNNNNNNNNBNBNmNNNNNmNNNmNNNNVNN9           ..      X       ",
"                .  .   .  .  . ...5mNNNNNNmNNNNNNNNNNmNNNmmNNNNNmNmNNNNNNNNNNNNNNNNNNNNNNNVNmNNNNNNN0             .     .      .",
"     .           .    .      .  ..1NNNNmNNmmNNNNNNNNNNNmNVNNNNNNNNNmNNNNNNNmNNNNNmNNmCNNNNmVmmNNNmmm0.                          ",
"                   o .  o. .    ..4mVNmVNNNNNNNNNNNNNNNNmNNmNNNNNVNNNNNmNNNmNNNNNNmmNNNNNNmNmmmVVNNN0                          .",
"                    ..  .  o    ..2VNNmmNNNNNNNNNVNNNNNNNNNNNNmNNNNNNNmNmNNmNmNNmNNmVNNmmNNNmVmmNNNNw                 X         ",
"              .  .o      .      ..-yttyyyyytutyiuytuttyuyyuuutuyiyutuyymNNNNNNNNNNVNNguyiiytuyyytiyu<                           ",
"      .        . . .            .... ...   oooooooo..o  .. .. ..... .  MNNNNNNNBNNNNNr.. .......  ..                            ",
" .                   o    .             o o                      . .  .MNNNNmNNNNNNNNe                                .         ",
"    .                                 .     o  .                      .cVNNNNVNNNNNNNr                                          ",
" .   .                                       .                      ...cNNNNNNNNNNNNNr         .                           .   .",
".                o       .                    .            .        ...cNNNNNNNNNNNNNw                                          ",
"  .                       .                                 .          cVNmNNNNNNNNNNr                                       .  ",
"       .         .                                                    .cNNNNNNNNNmNNmr                                         .",
"       .           .                                       .           cmVNNmNmNNmmNNr                             .           .",
"o .             o                                        . .           jVNNNNNNNNmNNNwX                                         ",
"        .     .                    .            .  .        .       ...xNNNNNNNNmmVVmr                                          ",
"              . .         ..  o .  .          ..   .       .  .      ..xNNmNNNNNNVmmmr         .                                ",
"               .      ..  o.                       .                  .bNNNNNNNNNNmmVr..                                        ",
"                 ...       .              ..         .                .bNmNNmNmNVNVVVe.                                         ",
"   .                                   .          .                   obmNmmNNNNNNmNm9..                                        ",
" .                                                        .           ojmmmNNNNNNNNNm0..                                        ",
"                        .              o               .              ovNmmmNNNNNNNNV9                                          ",
".                     . .  ..   . o           .                     ooobNmNNNNNNNNNNm9                                          ",
".  .                      o                                           .cNmNNmmmNNNNNN0    .                         .           ",
"        .   oo o               o                                      .jNNmNmmNmNNNmN8.                               .         ",
"   .       .     o                                                  ...nmmmmmmmNNNmmN9  .                                       ",
"..  .          o             o                                      ...nmmmmNmmNNNNmN8. .                          .            ",
"..  ..  .                                                              34153335221113*.                                         ",
"     .            o                     o                                     ........                           .              ",
" . .            o o               o      oo     .                               ..                              .               ",
"..                                                                            .  .  .                            .      .       ",
"             . .oo   .   .  .  .                  .                             .   .    .         .          .        .      ..",
".   .   .   .                 ..  .                .                                    .    .      .. .  .                     ",
" .       .     .o   .   .                       ..       .                                  .       . .  ..   .   .   .    .    ",
"  .         . .     .   .     .  .       .       .                                              .                               ",
"  .        .      o  .       . .        .       . .                                                              .   .         .",
"       . ..   . o  o                      ..                                                .               .    . .  .  .  .   ",
"       .                  .   .              .                                          .                        ..     ..      ",
"       .   .   o       o          . .  . ..                                       .                   .   .         .   ..    ..",
"   .   .  .          .             .                 X                .                .    .          .    ..    .            .",
"    .       .   .  . .           .  .                 .             ..                     .        . .      .        o   .     ",
" .       .              .  .                     ..  .         .  .                      .     .                   .         ...",
".. ..    .  .          .        .  ..                  .         .                       . .        .     ..    .           . . ",
"   .             o .  .              .               .       .    . ..     .           .        .     .           .     . .     ",
"   . . .         o .                   ..          .      .         .           .               .     .    .      .    o   .    ",
"     .                .    .                       .                ..                       .       . .    .      . .      .   ",
"      ..         o        .      .               .       .     .    .  .   .        .                                     .     "
};
