/* XPM */
static char *img_81748350342[] = {
/* columns rows colors chars-per-pixel */
"128 128 55 1 ",
"  c #0B0A06",
". c #110D04",
"X c #151106",
"o c #1B1606",
"O c #1F1906",
"+ c #231C06",
"@ c #281F03",
"# c #241D08",
"$ c #2B2204",
"% c #312604",
"& c #352A04",
"* c #392D05",
"= c #382D08",
"- c #3D3005",
"; c #443606",
": c #44360A",
"> c #47390A",
", c #4A3C0B",
"< c #4E400C",
"1 c #634F09",
"2 c #655109",
"3 c #6B550A",
"4 c #6E590C",
"5 c #735C0D",
"6 c #76600F",
"7 c #7B630D",
"8 c #80660B",
"9 c #846A0C",
"0 c #896E0D",
"q c #8C710D",
"w c #92740C",
"e c #826810",
"r c #917713",
"t c #9D7D10",
"y c #AE8C0F",
"u c #B5910F",
"i c #BA930F",
"p c #A18111",
"a c #A88611",
"s c #B38F11",
"d c #B59111",
"f c #BB9511",
"g c #BF9812",
"h c #C39D13",
"j c #C99F12",
"k c #C7A013",
"l c #CCA414",
"z c #CFA816",
"x c #D1A714",
"c c #D4AA15",
"v c #DEAF13",
"b c #D2AA18",
"n c #DEB114",
"m c #E0AF13",
"M c #E2B214",
/* pixels */
"                          X                                                                                                     ",
"                                                                                                                                ",
"                                                                                                                                ",
"                                                                                                                                ",
"    .                                                                                                                           ",
"                                                                                                                                ",
"                                                                                                                                ",
"                                                                                                                                ",
"                                                                                                                                ",
"                                                                                                                                ",
"                          X                                                                                                     ",
"                                                                                                                                ",
"                                                                                                                                ",
"                                                                                        X                                       ",
"                                                                                                                                ",
"                                                                                                                                ",
"                                                         .                                                                      ",
"                                                                                                                                ",
"                                                    . .                           X                                             ",
"                                        6mbbMbcbccMbmcccbxcbmccczzbbbbzbmbmMbmbbbmbmvbme.                                       ",
"                                        emMmMMMMMMMmMMMMMmMMMMMMMMMMMMMMMMMMMMMMMMMMmMMe                                        ",
"                                        6mmmMmMMMMMMMMMMmmmMMMMMMmMMMMMmMMMMMMMMMMMMmmme                                        ",
"                                        emMMMMnMMMMMMMMMMMMMMMMMMMMMMMMMMMMMMMMMMMMMMMMe     .                                  ",
"                         X              emMmmMMMMMMMMMMMMMmMMMMMMMMMmMMMMMMMMMMMMmMMMMMe                                        ",
"                                        eMMMMMMMMMMMmMmmMMMMMMMMMMMMMMMMMMMMmMMMMMMMMMM7                                        ",
"                   X                    5MmMMMMMMMmMmMMmMMMMMMMMMMMMmMMMMMMMMMMMMMMMMMMe                                        ",
"                                        4mmmmmMMMMmmmMmMMMMMMMMMMmMmMMMMMMMMMMMMMMmmMMM8                                        ",
"                                45255555tMMMMMMMMMmMmMMMMMMMMMMMMMMMMMMMMMMMMMMMMMMMMMMy65655564                                ",
"                                bMMMMMmMmMMMMMMMMMMMMMMMMMMMMMMMMMMMMMMMMMMMMMMMMMMMMMMMvMMMMMMd                                ",
"                                bMMMMMMMMMMMMMMMMMMMmMMMMMMMMMMMMMMMMMMMMMMMMMMMMMMMMMMmMMMMMMMd                                ",
"                   X            bMmMmMMmMMMMMmmmMMMMMMmMmMMMMMMmMMMMMmMMMMMMMMMMMMMmMMMMMvMMMnMy                                ",
"                                bMvMmMMMmMMMMMMMMMMmMMMMMMMMMMMMMMMMMMMMMMMMMMMMmMmMMMMMmMMmMMMdX                               ",
"                                bMMMMMMMMMMMMMMMMmMMMvMMMMMmMMMMMMnnMMMnMMMMMMMnMMMMMMMMMMMMnnny                                ",
"                                bMMMMMMMMMMMMMMMMvMMMMMmMMMMMMMMMMMnMMMnMMMMMMMMMMMMMMMMMMMMMnMuX                               ",
"                                bMMMMMMMMMMMMMMmMMMnMmMmMMMMMMmvMMnnnnnnMMnnMMnnMMMMMMMMMMMMMMnu                                ",
"                                bMMMMMMMMMMMmMMMMgiidhhhhsshigiigghgghggfguggkhMMMMMMMMMMMnMMMMf    X                           ",
"                                bMMMMMMMMMMMMMMMv. . . .. . . . .. . .   . .  oMMMMMMMMMMMnMMnMf                                ",
"                                nMMMMMMMMMMMMvMMc.     .            .         onMMMMMMMMMMMMMMMf                                ",
"                                bMMMMMMMMMMMMMMMv.                            oMMMMMMMMMMMMMMMnfX                               ",
"                                bMMMMMMMMMMMMnMMx.                            onMMMMMMMMMMMMMMnf                                ",
"                                xMMMMMMMMMMMMMMMx.                            XnMMMMMMMMMMMMMMMf                                ",
"                                xMMMMMMMMMMMMMMMc.                            XnMMMMMMMMMMMMMMMi                                ",
"                                xMMMMMMMMMMMMMMMv.                             nMMMMMMMMMMMMMMMi                                ",
"                                xMmMMMmMMMMMMMMMc.                             nMMMMMMMMMMMMMMMi X                              ",
"                                zMMMmMMMMMMMMMMMx.                             nMMMMMMMMMMMMMMng                                ",
"                                cMMMMMMMMMMMMMMMx                              nMMMMMMMMvMMMMnngX                               ",
"                                xnvMmmvMmvMvMMMMx.                             cMMMMMMMMMMMMMMMg                                ",
"                                xMMMvMMmMvMvMMMMx.                             cMMMMMMMMMMMnMMMg                                ",
"                                zMMMMMMMMMMMMMMMb                              lMMMMMMMMMMMMnMMh                                ",
"                                zMMMMMMMMMMMMMMMb                              lMMMMMMMMMMMMMMMk                                ",
"                                bMMnMMMMMMMMMMMMb.        ..                   lMMMMMMMMMMMMMMMl                                ",
"                                lnnnMnMnnnMMMMMMl.         .                   kMMMMMMMMnMMMnnng                                ",
"                                7090e099aMMMMMMMx,,,,:,,,,,,;,,,<<<<;<;;;<,,>,>lMMMMMMMsee909995                                ",
"                                        3MnMMMMMMMMMvvMmMMMMmMMMncnnnvMnMMMMMMMnMMMMMMM8                                        ",
"                                        5MMMMMMMMMMMMmMMMMMMMmMMnMnnMMMMMMMvMMMMMMMMMMM0                                        ",
"                                        6MMMMMMMMMMMMMMMMMMMMMMMMnMMMnmMMMMMMMMMMMMMMMM9  .                                     ",
"                                        4MMMMMMMMMMMMMMMMMMMMMMMMMMMMMMMMMMMMMMMMMMMMMMw                                        ",
"                                        4nMMMMMMMMMMMmmMMMMMMMMMMMMMMMMMMMMMMMMMMMMMMMM0                                        ",
"                                  .     6MMMMMMMMMMMMMMMMMMMMMMMMMMMMMMMMMMMMMMMMMMMMMMw                                        ",
"                                        6MMMMMMMMmMMMMMmMMMMMMMMMMMmMMMMMMMMMMMMMMMMMMMr                                        ",
"                                        4nMnMMMMMmMMMMMMMMMMMMMMMMMMMMMMMMMMMMMMMMMMMMMe                                        ",
"                                        6MMMMMMMMmMMMMmMMMmMMMMMMMMMMMMMMMmMMMMMMMMMMMMr                                        ",
"                                        4nMnMMMMMMMmMMMMMMMMmMMMMMMMMMMMMMMMMMMMMMMMMMMe                                        ",
"                                      . 5nMMMMMMMMMMMMmmMMmMMMMMMMMMMMMMMMMMMMMMMMMMMMMe                                        ",
"                                        5MMMMMMMMMMMMMMMMMMMMMMMMMMMMMmMmMMMmMvMMMMMMMM9.                                       ",
"                                        6MMMMMMMMmmMMMMMMMnMMMMMMMMmmMmMMmMMMMMMMMMMMMmq.                                       ",
"                                 .      5MMMMMMMMmMMMMMMMMMMMMMMMMMMMMMMMMMMMMMMMMMMMMM9                                        ",
"                                        4MMMMMMMMMMMMMMnMMnMMMnMMMMMmmMmMMmvvMMMMmMmMMMw                                        ",
"                                        4MMvMMMMMMMMMnnnnnnnnnnnMMmmmMvmnnMvMnMMMMmmMMMw                                        ",
"                                rpappttpgvMMMMMMc%%=%*-*=&==&=-&&;*&*%&&==&&&&$zMMmMMMMjppppptp0.                               ",
"                                kMMMMMMMMMMMMMMMb.                             xMMMMMMMMMMMMMMMh                                ",
"                                hMMMMMMMMMMMMMMMc.                             cMMMMmMMMMMMMvvMk.                               ",
"                        X       lMMMMMMMMMMMMMMMx.                             lMMMMMMMMMMMMMMMi                                ",
"                                lnnMMMMMMMMmMMMMx.                             xMMMMMMMMMMMMMMMk                                ",
"                                kMMMMMMMMMMMMMMMl.                             xMMMMMMMMMMMMMMMk.                               ",
"                                lnMnMMMMMMMMMMMMl                              zMMMMMMMMMMMMMMMl                                ",
"                                lMmvMMMMMMMMMMMMl.                             xMMMMMMMMMMMMMmMg                                ",
"                                bMMMMMMMMMMMMMMMl . .                          cMMMMMMMMMMMMMMMk .                              ",
"                                bMMMMMMMmmMmMMMMl                              cMMMMMMMMMMMMMMml.                               ",
"                                zMMMMMMMMmmMMMMMj                              bMMMMMMMMMMMMMMmk                                ",
"                                zMMMMMMMMMMMmMMMl                              cMMMMMMMMMMMMMMMj                                ",
"                                zMMMMMMMMMMMMMMMlX                             cMMMMMMMMMMMMMMMj                                ",
"                                lMMMMmMmMMMMMMMMx                              vMMMMMMMMMMMMMMMj                                ",
"                                zMMMMMMMMMMMMMMMx                              cMMMMMMMMMMMMMMMx                                ",
"                                znMMMMMMvMMMMMMMx.                             bMMMMMMMMMMMMMmvk                                ",
"                                zMMMMMMMMMMMMMMMx.                             zMMMMMMMMMMMMMMmk                                ",
"                                zMnMMMMMMMMMMMMMl                              zMMMMMMMMMMMMMMMk                                ",
"                                bMMMMmMMvMMMMMMMcX       .                     bMMMMMMMMMMMMMMMk                                ",
"                                lMmMMMvMMMMMmMmMl                              bMMMMMMMMMmvmMMMk                                ",
"                                lMMMMMMMMMMMMMMMz.                             zMMMMMMMMMMMMMMMk                                ",
"                                lnMMMMMMMMMMMMMMx.                             lMMMMMMMMMmMMmnMj                                ",
"                                lMMMmMMMmMMvMMMMc.                             zMMMMMMMMMMMMmMMk.                               ",
"                                knMMMMMMvMMMMMMMx.                       .     zMMMMMMMMMMMMMmMk                                ",
"                                hMnMMMMMMMmMMMMMz$$O#OoOO+#o+++OOoOOO#OO$#$###ozMmMMMMMMMMMMmMMj                                ",
"                                lMMMMvMMMMMMMMMMMMMnMMnMMnvMMMMMMnnnMnMnnMMMnMMMMMMMMMMMmMMMMMMj                                ",
"                                lMMMMMMMMMMMMnMMMMnMnMMMMMnnMmMMMMMMMMMnMMMnnnMMMMMMvMMMmMMMmmMh                                ",
"                                bnMMMMMMMMMMMMMMMMMMMMMMMMmMMMMMMmMMMMMMMMMMMMMMMMMMMMMMMMMMMMMh                                ",
"                                bMnMMMmMMmMMMMMMMMmMMMMMMmMMMMMMMMMMmmMMMMMMMMMMMMMMMMMMMMMMMMnl                                ",
"                                zbMnMMMMMmMMMMMMMMMMMMMMMMMMMMMMMmMmMMMMMMMMMMMMMMMMMmMMMmMMMMMl                                ",
"                                zMnMMMMMmMMMMMMMMMmMMMMMMMmMmMMMMMmMMMMMMMMMMMMMMMMMMMMnvMMMMMMh.                               ",
"                                hnnnMMMMMMMMMmMMMMMMMMMMMMMMmMvMMMMMMMMMMMMmMMMMMMMMMMMMMnMMMMMj                                ",
"                                gnnnMnMMmMmMMMMMMmmMMMMMMMMMMMMMMMMmMmMMMMmMMMMMMMMMMMMMnMnMMnnh                                ",
"                                $$$$$O+$6MMMMMMMMMMMMmMmMMvMMMMMMMMMMMMMMmMMMMMMMMMMMMMr%$$$@##o                                ",
"                                        5mmmMMMMMMMmmMmMvMMMMMMMMMMMmMMMMMMMMMMMMMMMnMMe                                        ",
"                                        6MMMMMMMMMMMMMmMMMMMMMMMMMMMMMMMMMMMmMMMMMMMMMMw                                        ",
"                                        6MMMMMMMMMMMMMMMMMMMMMMMMMMMMMMMMMMMMMMMMMMMMMMq                                        ",
"                                        6MMMMMMMMMMMMMMMMMMMMMMMMMMmMMMMMMvMMMmmMMMMMMMq                                        ",
"                                        4MMMMMMMMMMMvvMmMMMMMMMMMMMMMMMMMMMMMMMMMMMMMMMq                                        ",
"                                        4nMMMMMMMMmMvMMMMMMMMMMMMmmMMmMMMvMMMMMMMMMvMnMq                                        ",
"                                        6nnnnnnMMMnmnMvvMMvvvvMMvvMmMMmmMvvvvMMMMvvvMmvq                                        ",
"                                        =3444121333331333533131344343333352343332332223;                                        ",
"                                                   .                                                                            ",
"                                                                                                                                ",
"                                                                                                                                ",
"                                                                                                                                ",
"                                                                                                                                ",
"                                                                                                                                ",
"                                                                                                                                ",
"                                                                                                                                ",
"                                                                                                                                ",
"                                                                                                                                ",
"                                                                                                                                ",
"                                                                                                                                ",
"                                                                                                                                ",
"                                                                                                                                ",
"                                                                                                                                ",
"                                                                                                                                ",
"                                                                                                                                "
};
