/* XPM */
static char *img_11748350343[] = {
/* columns rows colors chars-per-pixel */
"128 128 39 1 ",
"  c #060605",
". c #080706",
"X c #070806",
"o c #090806",
"O c #1D1607",
"+ c #1F1807",
"@ c #241D06",
"# c #272006",
"$ c #2A2306",
"% c #2F2806",
"& c #302706",
"* c #322A06",
"= c #3B3106",
"- c #4C3D06",
"; c #6E5406",
": c #785B06",
"> c #8E6A04",
", c #946E05",
"< c #977104",
"1 c #9C7204",
"2 c #A17604",
"3 c #A47A04",
"4 c #AC7E04",
"5 c #AE8103",
"6 c #B38303",
"7 c #B98704",
"8 c #B78803",
"9 c #BB8903",
"0 c #C18C03",
"q c #C79202",
"w c #CB9403",
"e c #CF9802",
"r c #D19702",
"t c #D39A02",
"y c #DA9E02",
"u c #DDA102",
"i c #E2A402",
"p c #ECAA01",
"a c #FCB300",
/* pixels */
"   X     o    o        o   o         X   .          .                          X          .       .  X .                        ",
"                   o           .    X   .            . .            X  XXX                       .                              ",
"              o           o               .                             X                  .       X                   X  .     ",
"                             o  .X     ..          .   .                XX   .                                                  ",
"    .              o                                                          X                                                 ",
"     .                        o                                                                    X                  X         ",
"                 .  o                      .                      X   X                 XX           X                          ",
"                 .             .                                                                                                ",
"                         .                                                                        X               .     X       ",
" .                                                                                                X                .         X  ",
"                 .    .                                                                  X                          .       . . ",
"                     ..                                                                                           . .           ",
"                   o      o                                                          X     X                      .       .     ",
"                      .                                                                 X X         . X         .               ",
"                       o                                                                                           .           .",
"                   .        o                                                                                                   ",
"                             o  .                         X   .                  X                              .  .            ",
"                                                       X    X             X         X                                           ",
"                                   .                  X                   XX                                      .            X",
"                           o.          X            X    X     .        XXXX                                                    ",
"                         .                                     :06776666588988O      X                                          ",
"                 .           .                                 2aaaaaaaaaaaaaa+     X                                    X      ",
"                           .                                 . 4aaaaaaaaaaaaaa@       X                                         ",
"                        .  .                                   4aaaaaaaaaaaaaa@                                                 ",
"                          .                                    4aaaaaaaaaaaaaa+                                                X",
"                . .                                      .    .5aaaaaaaaaaaaaa#                       X         X X        XX   ",
"                 X                                            .6aaaaaaaaaaaaaa+X                                            X   ",
"                  X       .                               X   .3aaaaaaaaaaaaaaOX                     X                          ",
"                                                           . .o4aaaaaaaaaaaaaa@X                     X                     X    ",
"                                                              .5aaaaaaaaaaaaaa+X                 X                              ",
"                   X                            .              3aaaaaaaaaaaaaa#X                                                ",
"                      X                       . .             .3aaaaaaaaaaaaaa#X                                 X  X   X       ",
"                  X                        X       X        . .4aaaaaaaaaaaaaa@                          X X X      . XX     .  ",
"                    X      X       X  o    X     X   Xo  X   ..4aaaaaaaaaaaaaa@                      XX          X     .        ",
"                  XX                              XX X o. o    4aaaaaaaaaaaaaa#                      X  X               .       ",
"                X      X   X            o3444646588835386444446iaaaaaaaaaaaaaa#                  X    X      X      .  X       .",
"                                    X    uaaaaaaaaaaaaaaaaaaaaaaaaaaaaaaaaaaaa#                      X              .           ",
"                                        Xuaaaaaaaaaaaaaaaaaaaaaaaaaaaaaaaaaaaa$X                                 X              ",
"                                        Xuaaaaaaaaaaaaaaaaaaaaaaaaaaaaaaaaaaaa#                        .                        ",
"                     X                  Xtaaaaaaaaaaaaaaaaaaaaaaaaaaaaaaaaaaaa#                                   .   X         ",
"                                        Xtaaaaaaaaaaaaaaaaaaaaaaaaaaaaaaaaaaaa#                                                 ",
"                            X           ouaaaaaaaaaaaaaaaaaaaaaaaaaaaaaaaaaaaa@                         X                       ",
"                                        otaaaaaaaaaaaaaaaaaaaaaaaaaaaaaaaaaaaa@                      X           .              ",
"                             X          otaaaaaaaaaaaaaaaaaaaaaaaaaaaaaaaaaaaa@                      .                X         ",
"                                        Xuaaaaaaaaaaaaaaaaaaaaaaaaaaaaaaaaaaaa@                      X                          ",
"                                        otaaaaaaaaaaaaaaaaaaaaaaaaaaaaaaaaaaaa#                                                 ",
"                                        Xyaaaaaaaaaaaaaaaaaaaaaaaaaaaaaaaaaaaa@                                                 ",
"                                        oiaaaaaaaaaaaaaaaaaaaaaaaaaaaaaaaaaaaa+                                                 ",
"                                        Xeaaaaaaaaaaaaaaaaaaaaaaaaaaaaaaaaaaaa%X                                                ",
"                                         >112121121122211paaaaaaaaaaaaaaaaaaaa#X                                   X            ",
"                                            X       . . oraaaaaaaaaaaaaaaaaaaa+X                                 X            . ",
"                                                       .oraaaaaaaaaaaaaaaaaaaa#X                                                ",
"                                                        owaaaaaaaaaaaaaaaaaaaa+X                                                ",
"                                                 .      .raaaaaaaaaaaaaaaaaaaa@X                                                ",
"                                                        owaaaaaaaaaaaaaaaaaaaa@X                                X               ",
"                                                        oraaaaaaaaaaaaaaaaaaaa+X                                                ",
"                                                        oraaaaaaaaaaaaaaaaaaaa@X                                                ",
"                                                         waaaaaaaaaaaaaaaaaaaa#X                                                ",
"                                          X             owaaaaaaaaaaaaaaaaaaaa@X                                                ",
"                                                        owaaaaaaaaaaaaaaaaaaaa+X                                                ",
"                                   X                    o9aaaaaaaaaaaaaaaaaaaa@X                                               .",
"                                        X         .  .. .eaaaaaaaaaaaaaaaaaaaa+X                                                ",
"                                                        owaaaaaaaaaaaaaaaaaaaa@                             .                   ",
"                                       X                oeaaaaaaaaaaaaaaaaaaaa#                                         .       ",
"               . .                                 .   .o0aaaaaaaaaaaaaaaaaaaa+X                                                ",
"  .                    X.                        .      owaaaaaaaaaaaaaaaaaaaa$X                                                ",
"                      X                               . oraaaaaaaaaaaaaaaaaaaa+X                                                ",
"                                       X  X     .   .   owaaaaaaaaaaaaaaaaapaa#X                                                ",
"             .             .                      .  X  oqaaaaaaaaaaaaaaaaaaaa$X                                                ",
"          . .          X  .                             owaaaaaaaaaaaaaaaaaaaa@X                                                ",
"   .          .                                  .     Xoqaaaaaaaaaaaaaaaaaaaa#X                                                ",
"         .                        X     X   .       .  Xowaaaaaaaaaaaaaaaaaaaa#                  .                              ",
"    .                                     .             owaaaaaaaaaaaaaaaaaaaa+X                                                ",
"                               .                   .  . ouaaaaaaaaaaaaaaaaaaaa@                                                 ",
"               .                            X    .      oraaaaaaaaaaaaaaaaaaaa+X                                                ",
"        .           .     o.   .                        oraaaaaaaaaaaaaaaaaaaa@    .                                            ",
"                                                  .    .oraaaaaaaaaaaaaaaaaaaa@X                                                ",
"  .      X            .                           . .   owaaaaaaaaaaaaaaaaaaaa@X                                                ",
"                  .       X  X                         .owaaaaaaaaaaaaaaaaaaaa#                                                 ",
"           X                   X                  .     .0aaaaaaaaaaaaaaaaaaaa@                                                 ",
"  X                           X                         .qaaaaaaaaaaaaaaaaaaaa#                                                 ",
"                                 X                      .raaaaaaaaaaaaaaaaaaaa$                                                 ",
"                                                .       .raaaaaaaaaaaaaaaaaaaa#                                                 ",
"                                                        .waaaaaaaaaaaaaaaaaaaa#X                                                ",
"                           X                            .raaaaaaaaaaaaaaaaaaaa#                                                 ",
"                        X          X                    owaaaaaaaaaaaaaaaaaaaa#                                                 ",
"                           X                           .owaaaaaaaaaaaaaaaaaaaa+                                                 ",
" X                                              .       oraaaaaaaaaaaaaaaaaaaa#                                                 ",
"                                          X             .raaaaaaaaaaaaaaaaaaaa#                                                 ",
"                                           X          . .qaaaaaaaaaaaaaaaaaaaa#     o                                           ",
"                                           XX.       .  oraaaaaaaaaaaaaaaaaaaa@X                                                ",
"                                         $&&&$*@&*&$***=&uaaaaaaaaaaaaaaaaaaaa-%%%%%**=@*$*%&@                                  ",
"                                         iaaaaaaaaaaaaaaaaaaaaaaaaaaaaaaaaaaaaaaaaaaaaaaaaaaa>                                  ",
"                                        .waaaaaaaaaaaaaaaaaaaaaaaaaaaaaaaaaaaaaaaaaaaaaaaaaaa<                                  ",
"                                       ..yaaaaaaaaaaaaaaaaaaaaaaaaaaaaaaaaaaaaaaaaaaaaaaaaaaa1                                  ",
"                                       ..yaaaaaaaaaaaaaaaaaaaaaaaaaaaaaaaaaaaaaaaaaaaaaaaaaaa>                                  ",
"                                         iaaaaaaaaaaaaaaaaaaaaaaaaaaaaaaaaaaaaaaaaaaaaaaaaaaa,                                  ",
"                                         taaaaaaaaaaaaaaaaaaaaaaaaaaaaaaaaaaaaaaaaaaaaaaaaaaa,                                  ",
"                                        .waaaaaaaaaaaaaaaaaaaaaaaaaaaaaaaaaaaaaaaaaaaaaaaaaaa>                                  ",
"                                        .uaaaaaaaaaaaaaaaaaaaaaaaaaaaaaaaaaaaaaaaaaaaaaaaaaaa,                                  ",
"                                        .yaaaaaaaaaaaaaaaaaaaaaaaaaaaaaaaaaaaaaaaaaaaaaaaaaaa<                                  ",
"                                        .raaaaaaaaaaaaaaaaaaaaaaaaaaaaaaaaaaaaaaaaaaaaaaaaaaa,                                  ",
"                       .                .yaaaaaaaaaaaaaaaaaaaaaaaaaaaaaaaaaaaaaaaaaaaaaaaaaaa,                                  ",
"                                        otaaaaaaaaaaaaaaaaaaaaaaaaaaaaaaaaaaaaaaaaaaaaaaaaaaa>                                  ",
"                          . .           .yaaaaaaaaaaaaaaaaaaaaaaaaaaaaaaaaaaaaaaaaaaaaaaaaaaa>                                  ",
"                             .          .yaaaaaaaaaaaaaaaaaaaaaaaaaaaaaaaaaaaaaaaaaaaaaaaaaaa,                                  ",
"                             ..         .<477744474447944744646444774744664544444474744466444;                                  ",
"                                         .      ....    o  o    .   .         .   ..  ..                                        ",
"                              .                 ..                                                                              ",
"                                                                                                                                ",
"                                                                                                                                ",
"                                                                                                                                ",
"                                                                                                                         .      ",
"                   .                                                                                                X           ",
"                                                                                                                                ",
"                                                                                                                                ",
"                               .                                                                                               .",
"                                                                                                                                ",
"                                                                                                                  .             ",
"                       .                                                                                                        ",
"                                                                                                                                ",
"                                                                                                                                ",
"                                                                                                                                ",
"                                                                                                                   .   .        ",
"                                                                                                                                ",
"                                                                                                                 .              ",
"                                                                                                                                ",
"                                                                                                                                "
};
