/* XPM */
static char *img_01748350343[] = {
/* columns rows colors chars-per-pixel */
"128 128 44 1 ",
"  c #060605",
". c #090705",
"X c #070806",
"o c #0A0805",
"O c #1B1405",
"+ c #261D07",
"@ c #291E07",
"# c #231A08",
"$ c #291E08",
"% c #2C2207",
"& c #2E2309",
"* c #312407",
"= c #342807",
"- c #322609",
"; c #35290A",
": c #3A2C0A",
"> c #473508",
", c #543D09",
"< c #5C4409",
"1 c #60470A",
"2 c #624809",
"3 c #936E0C",
"4 c #96710C",
"5 c #9C750D",
"6 c #A47B0D",
"7 c #AA7F0D",
"8 c #A07A10",
"9 c #AD810D",
"0 c #B3860D",
"q c #B6890E",
"w c #BC8D0D",
"e c #BF910E",
"r c #C08F0C",
"t c #C1910D",
"y c #C9970E",
"u c #CE9B0D",
"i c #D09C0D",
"p c #DDA20C",
"a c #E3A60B",
"s c #E6AA0C",
"d c #EAAD0C",
"f c #EEB10D",
"g c #F5B70C",
"h c #F6B80C",
/* pixels */
"   X           X           X.                                      X                                 X              X           ",
"                   X     ..                X                   X    XX  XX                            X                         ",
"                         X                                     X       X                                                  .  X  ",
" X  .            .      X                                               X   X                                    X            . ",
".                  X.    .                                                                                         X  X         ",
"           X  o                                                 X                                      X            X     .     ",
"                    X                                           X                       XX        X                           X ",
"   X      o      .          X  X                                X                            X     X                    XX      ",
"                           X                                                                                    .        X      ",
"                                                                                                                   .     X      ",
"                 .    X                                                                   X                                     ",
"                                          X                                                     X    X X         X X        X   ",
"                           .                                                                                                    ",
"                    X                          X                                    X   X                  X     X              ",
".                                                                                                     X                   X     ",
"                                        X                                                                X                      ",
"                     X        XX    X    X                .             X        X                                              ",
"                           X     X X          X        X  X    X        XX    XX                                  X             ",
"                          X                    .      .       .X        XX.o                                                    ",
"                X          X      X           ..X .   ..      ..        XX.o     XXX                                            ",
"                   X     X                ,700700077777777797008q70077788777777777878;                                  X       ",
"                 X                        4fgggggggggggggghhgggggggghhghhhhhgghghghhg,                  X                   X   ",
"                                          5ggggghhggggggggghggggghgggghgggghghgghghgh1        .           X     X               ",
"                        X. X              5ggggghgggghghgggggggggggggghgghghhhggggghh2                                          ",
"                               X        XX8ggggghhgggggggggghgggggggghghgggggggghgggg2.              X                          ",
"                X                       X.8ggggghghgggggghgggggggggggghgggggggggghghg2                                          ",
"                XX         .      .. .. X 5ggghggggfgggghgghgggggggghghgghggggggggggg1.. .             X                        ",
"                                 ..,1<<1,<7gggggggggggggggghgggggggggggggghgggggggghg8,111,,>  .                                ",
"                             X    #fgggghhggghgggggghggghhhhghhggghhhggggggggggghhhghggggggga.        X                         ",
"                  X              .-ggggghhghggghhggggggghghhhgghgggghhgghghghhggggggggggggggd.       X                          ",
"                    X             &ggggggggggggghghggggggggghghggggghghggghgghgggggghggggggga..                    X            ",
"                         X       .-gggggggggghggghggggggghghggggggggggghhgghhhgggggghgggggggd...    X                           ",
"                                  *gggggggggggghgggghgggghhghghggggggggghhghghhggghgggggggggi        X                X         ",
"                                  -gggggggghhhgggggggghghhhgghggggggggggggghhgghgghhhhggggggd .   X  X                          ",
"                          .      .;ggggggghggghggggghggsuuuuttittiyiruytfhgghggghhhhghggggggdo         X                        ",
"                           X     .;ggggggghgggghhhhgggge        XXX... .0gghhhgghggghgghggggso        X               X       X ",
"                                  -gggggghghggghhhghgggw           X    rgggghghgghghhgggggga       X             X             ",
"                                  -ggggggggggghhhggggggw                rgggghggggggggggggggs.                   X    X         ",
"                      X           -gggggghgghhgghhggggg0                ygggghgghhgggggggghgd.                                  ",
"                                  ;ggggghhhhghhghhggggg0o           .   rggggghggghggggggghgd.      X                           ",
"                                  :gggghhghggghhgggghggq                tggggggghhghgghghghgso           X             X        ",
"                                  :gggggghghghhghggghhg0                rgggggggghghghhgggggd.        X                         ",
"                                  :ggggggghgghhghggghghw               Xwggggggggghhgghhggggd.       X     X                    ",
"                         XX    X  :ggggghggggggggggghggw                rgggggggghghghgghgggd.       X                X         ",
"                              .   :hgggggghggghgggggghg0                rggghgghghgghhhgggggso       X                          ",
"                                  =gggggggggghhhgggghhh0                rgggghgghggghgggggggdo   X X    X             X         ",
"                 X                =ggggghggggggghggghggq                rgggggggghggghggggggpo                  X              X",
"                               X  ;gggggggggggggggghggg9                rgggghgggghghhggggggfo            X                     ",
"                                  -hhhggghghgghggghgggg0                qggggggggghhhghghhggdo                                  ",
"                                  ;ghhhgghghghhgggghhghq                rgggggggghggghghggggdo                                  ",
"                        .X        ;gghggggggghghgggghhhq                wghggghghgghhgggggggdo                                X ",
"                                  =ghggggggghhhgggggghhq                wggggghggghggghgggggs                                   ",
"                                  :hggghgggghhghghhghggq                whggghgghgggghhhggghdo                                  ",
"                                  ;ggggggggghhhghhhhggh9                tgggggggghhgghggggggao                                  ",
"                           X      :ghghghgggggggghggggh0                rhgggggghhggggghggggdo                                  ",
"                           X      ;gghgggghhhghghhhggggq                wgggggggghghgggggghgdo                             X    ",
"                                 .:ggggghgggghhggggggggq.               rhhghgggghhghhghgghhd                                   ",
"                                  ;hhghgggggghhhghhhhgg0                rggggggggggghhggggggd                                 X ",
"                                  :hgghhhghhhgggghhggggq.              .rghhgggghhghggghggggd                                   ",
"                                 .:ghghggggggghhgggghgg7                rgghggghhhggghggggggd                         X        X",
"                                  :ggggggggghgghhghhhhgq              . rgggggghghgggghgggghdX.                      X          ",
"                                 .-ggggghggggghhgghgghg0                rgghgggggghghgggghggd.                           XX     ",
"                                  :gggghgggghgghgghggggq                rhgggghgghghggggggggd.                       X   XX     ",
"                                  :ghggghhhgghhghghhhhfq.              Xrhgggggggghgggghggggd                                   ",
"                       X        XX:hgggggghgggggghghghh0                qggggggghhgghgghghggdo                                  ",
"                                XX:hgggggggggggggghgggg0                qgggggggghgggggghgggdo                                  ",
"                      X         X =hghggggggghgggggghggq                wggggggghhggggggggggdo                                  ",
"             X                    :gggghghhgghgghgggggg0                qggggggggggghghgggggs                                   ",
"                                  :gggggggggghgghghgggg0                rgggggggghggggghggggdo                                  ",
"                     X X     X    :gggggggghggghgggggghw                rgggggggggggggghggggfo                                  ",
"                              X   =hggghggggghhggghggghq                thggggggggggggghggggdo                                  ",
"         X           X            =hgggghghhgggggghgghgq                rhgggghgghhgggggggggdo                                  ",
"                                  =hhgggggghgggghggggggwo               rhggggggggggghghggggdo                                  ",
"                                X =ghhggghggghggghggggg0                rghgggggghggghgggggggo                                  ",
"   X                              &hgggggggghgggghggghgwo               rhggggggggghggggggggdo                                  ",
"X                         o       :hggggghghhgggggggggg9                whgggggggggggghgggggd                                   ",
"X                               X ;ggggggggggghggggggggq                wggggggghgggghhgggggfo                                  ",
"   X         X                    ;hgggghgggghggggggghgw                wgggggggghghggggggggfo                                  ",
"              X                   ;hgggggggggggggggggggq                wgggggghgghgghggggggso                                  ",
" X                                ;ggggghggggghggggggggq                wgggggghghhgghggggggdo                                  ",
"                                  :hhhhghggggghgghgghggq                whhghgggggghghhgggggso                                  ",
"                        .         *hfgghggghghgghhhggggq                rghhggggggggggggggggso                                  ",
"                                  ;gggggggggghgghhhhgghqo               qgggghhggggghgggghggfoo                                 ",
"                                  *gggggghggghhhggggggg0                wgggggggggggghggghghdo                                  ",
"                         . X      ;ggggggggghgggggggggg0                wgggggggghggggggggggdo                                  ",
"                           X      :gggggghgggggggggggggq   o            whggggggggggggggggggfo                                  ",
"                                  *gghggghhggggggghgggh0                whgggggggggggghghgggso                                  ",
"                                  :hgggggggghggggggggghq                wggggghhgggghgghggggso                                  ",
"                                  :gghgggghggggggggghhh0               .qgggggghgggggghgggggdo                                  ",
"                                  ;hgggghghhgghgggggggh0                eghhghhgggggggggggghfo                                  ",
"                                  ;ggggghgggghgggghhghh0                rghhggggggggggggggggdo                                  ",
"                                  *gggggggggghhggghghhh0       .        whgggggggghgggggggggso                                  ",
"                                  ;hgggghhghgggggggggghw**=&--***&:**:*=uhghgggghghgggggggggd                                   ",
"                                  *hghgggfggggghggggggggghhhgggggggggggghhgghgggggggghggggggso                                  ",
"                                  -hgggggghgggggggggggghghghggggggggggggghhhggghhgggggggggggd                                   ",
"                                  :hgggghhgggggggghgggghghghggggghgggggghhgghgggggggggghggggso                                  ",
"      X                           %gggggggggggggggggggghgggggggggggggggggghgggggghggggggggggd                                   ",
"                                . -hggggggggggggggggggggggggggggggggggggghggggggggggggggggggd                                   ",
"                                 .$gggggggggggggggghgghhggggggggggggggggggggggghgggggggggggga                                   ",
"       X                          @ggggggggggggggggggggggggggggggggggggggggggggghggggggffggga                                   ",
"                                   @*@#&$&6ggggghggggggggggggggggggggggggggggggghgggg3O+@@*=O                                   ",
"                             .          ..4gggggggggggggggggggggggggggggggggggggggggg2                                          ",
"                                          5gggggggggggggggggggggggggggggggggggggggggg,                                          ",
"                                         .4ggggghgggggggggggggggggggggggggggghghhgggg2                                          ",
"   X                      .X              5ggggghgggggggggghggggggggggggggggggghhgggg1                                          ",
"                                          5gggggghgggggggghhggggggggggggggggggggggggg1                                          ",
"                                          3gggggggggggggghghggggggggggggggggggggggggg,                                          ",
"XX                           X            1666555484555455666665656565564663466364555@                                          ",
"                                                ..                                                                              ",
"                                                 .                                                                              ",
"                                                                                                                                ",
"                       .                                                                                                        ",
"                              .                                                                                                 ",
"                           X                                                                                        .    X      ",
"                    .X                                                                                                          ",
"            .                                                                                                                   ",
"                                                                                                                                ",
"              . .                                                                                                               ",
"                              .                                                                                                 ",
"                    X                                                                                                           ",
"          .                                                                                                        .            ",
"                   .                                                                                                            ",
"                                                                                                                                ",
"                                                                                                         X .                . . ",
"                X  .                                                                                  X                         ",
"                                                                                                           .      X     X       ",
"                                                                                                                                ",
"      .                                                                                                             X           "
};
