/* XPM */
static char *img_31748350344[] = {
/* columns rows colors chars-per-pixel */
"128 128 65 1 ",
"  c #070704",
". c #080705",
"X c #070804",
"o c #080805",
"O c #100D04",
"+ c #161106",
"@ c #1A1506",
"# c #1E1807",
"$ c #171308",
"% c #1C1609",
"& c #1F1809",
"* c #241C06",
"= c #231C09",
"- c #281F09",
"; c #272006",
": c #2A2106",
"> c #27210B",
", c #2C2309",
"< c #3C2E07",
"1 c #312609",
"2 c #352A09",
"3 c #3E3008",
"4 c #453508",
"5 c #4A390A",
"6 c #57450B",
"7 c #5A4708",
"8 c #5D4A08",
"9 c #624D09",
"0 c #6A5107",
"q c #67500A",
"w c #6C540A",
"e c #6F590A",
"r c #715707",
"t c #715609",
"y c #745B0B",
"u c #7A5E0C",
"i c #7B610C",
"p c #82640C",
"a c #88670C",
"s c #8E6C0B",
"d c #936F0B",
"f c #96740B",
"g c #99750B",
"h c #9D7B0C",
"j c #A47D0B",
"k c #AD850B",
"l c #AF880C",
"z c #B18609",
"x c #B48B0B",
"c c #B98F0B",
"v c #BD920C",
"b c #C3950B",
"n c #C6980B",
"m c #CA990C",
"M c #D2A10A",
"N c #DBA70B",
"B c #DCAA0B",
"V c #EFB606",
"C c #EFB807",
"Z c #EFB708",
"A c #EFB808",
"S c #F0B706",
"D c #F1B806",
"F c #F0B708",
"G c #F0B908",
/* pixels */
"   ...    .... .. . ..    .. ..    .    ..         ..  ....   .    ....  . ... .   ...    .   .. ..  ...       ...........   ...",
".   .   ...   .. . .  .. ...  .. ..    . . . .  .   ..   .        .... ...  ....    .. .   .     ..  .   .     ...    ....      ",
"     .   .   ..    .... ..  ....  .  .   .....   .     .         .  ..... . ..      .   . .. ..    .  . ...  .....  .... ....   ",
"..  .  .   . ... ..  .. .. .......... .. .     ... .  .  .          .   ..  ....  . .. .  .      .  .    ... ...... . .......   ",
"..  ..  .  ..  . ..... . . . ......      .  .  .    .       . ..  . . .  .... .. ..        .    ... .           . .......   .  .",
" .  ..   . ..  .   .. . .... ..... ...    .         .       . ...   .   .. ...  .            .    ..       .    . ... ....   . .",
".. ..   .......  . ...  ............    ..    .         ... .   .. ...  ..... ..    ..  .. .   . .....  . .     ....  .... ..  .",
"   ..   ...... . .    . .........    .    . . ..         .. ..  .     . .....       .   .    .. ..... .         .. .  ....      ",
" .   .     ..   ... ...... .  ...       .                  . . .  .. . ...   .           .      .... .            .... ......  .",
".               ..  . . ..     ..  ..        .            ..         .       ..         .   .. .....  .         . .. . ...  . ..",
"    ..  .     . ...   ..    .    .    .      .   .        . . .   ...   ..  . .. .       .. . .......   ..        ....  . .     ",
". .   .       .     . ...  .. ..       .  ....  .        . .  .   ...   ..  .              ..   ....... .        .....    .     ",
".           .   ..   ........   ... . .  .       .  .....      .          ... ..   ... ...  .              .     .......  .   ..",
"         .  .  ....   ....... .  .     . . .      ....     ..         ... ....   .   .  ......      . . ......  .....  .       .",
".             .. ...  .........  .   .   .       ....  ..    . .                  .. . .            .   .... .  ..  . ..   .    ",
".       .   .    ... ...... .       .  ..         ..       .                       .      .       ... ......    . ..  .  . ...  ",
"   .  .  ....   ...   .   ......    .    .    oX           Xo           X                       .   ... ...  .  ....  ....   .  ",
"    ..     ..   ...     . ...... .   .  o     XX           X  o          X                       ...... ...  . .....   ...    ..",
".   ..          ..    ......  ..        XX  X XX X  X XXXXXX            XX   X             .  .     .   ..  .  .. . ..     . ...",
" .....      .   .  .   .....     .. .     Xo  XX           ooo   ...    ooo.    ooooo           .   ..         ..   ...  ...   .",
"       .      . .. ..   .. . .            yvnnbbnbbvbbnbbbbbbbbcnbmbbbvbbnbnbbbbnbbbn6   X  . ...  ... .. .    ...      .... .  ",
"     .   .  ..  ..    ........   X        fVVVVVDSSVSSSSSSVVSFSFFVVVZZAFDFVVVVFVZDSFSt        . ..     ..     .. .  .. .......  ",
"     . .     .. ..   .. . ... .   X       gVVVDVSSSSSSSSSSSSDSSSDDVDSDFFSSSDSSSSVSDSDr    X  .    ...         ..    .   ....  . ",
"            ....     .. .....   X         hVVVSDSVDSSSSSSSSSDVSSDCDSVSDDVDFVDDDSSVSSDr     XX      ....  ...  .   ...  .....  . ",
" .   ...         .. ..  ........XX        jSSVSSDDSSVVVSSSFSSSFDVSSSSDSDSSSFVSSSSSSSDyXXXX      .......... ..   ................",
" .  ....  ... .....   ..  ....   X  X   X hSVVSDDVVSSSDSSSSVSSSSDVSSSDDSSSSDVSSSSDSFStXX        ........   ... ........ ... .  .",
"...    .       ... .    ...     XX     XXXfSVSSDVSVVVSDDSSSDVSDVSSDSSDDSDDSSSSSFSSSSSy     X    ............      ..... ..   . .",
"..  .  .     ....         .  .. ..oqww0t0evVSSVSCSSDVSDVSSSDSSDSSSSSSSSSDDDDVVSSSSSSDlttrw00eO X  .. ...  ..    ...     . .. ...",
"      .               .. ... . .XX*VDSVVVDSSVDSDSSSSDDVVDSDDSDDSSDDSSDSSSSDSSSSSDSDVDVSDVVSVF*XX    ....      .. .. .      .    ",
"  .             .        .. ... XX*ZVFVSVSSDVSSSDSDSVSSDSDDSDVDDDSSSDSSDDSSSDSSSSSDVSSSSSSSSF#XX    ....    ... ... ..  .. .    ",
"     . .  ..    ..  . ..      .. X*FSSSVSSSVSVSSDSSSSSVSVSSCDDSSSSSSDSDSDSDSSSSSVDDSDSVSVSSSA@X   .... .. ..  . .... .......    ",
"     ....     ..   ......       X *ZZSSDVSSDSSSSSDSVSSVSVSSVDSSCDDSSDSSDDDSSDSSSDVVVDSSSVVSVF#X   . .....  .. . ...........   . ",
"   ..    . . .  . .       .       &ASVSDSVSSDSSDDVSDAVDDDSSSDDDDSVSVSDSSDSSSSSSSVDSSSSSSVDVVV#    . .  .   ... .... ....  .. ...",
"   .    .           ...... .      =ADVSVSVSDDDSSDCVDVSDDDDDSDDDVSDDASSSSDDSSSDDDSVDDDDSSSDVDGo    . ....   ... ...... ......   .",
"      .     . . .   ...   .       >GVSSSSSDDSSDSCMzxxxvxvxxvzzxzxxcczcxMDDSSDSSSDDDCVSSDDSDVG#XX    ......  .  ...... . .  .   .",
"              .  . .   .. ..      >GSSSSSDDDSSSSDr X..ooo      Xooo..o ySSSDDDDSDSSVDDDSSDDCG# X    ......   .  ....... .  .  ..",
"      .      ..  .  . .  . ...   X*CCVSSSSSVSSVSCeXX XX XX       XXX   ySDSSSDSDSSSDDDSVSSVDC#XX     ..  ..     .. .. .  .      ",
"   .  .     ..          .    .    ;DVCSSDSDSSVCDCiXX XX XX        XXX  rSDVSSDSSSSSSSSSVSSSDC#XX         .       .    ..        ",
"   .        . ..    . ..      .   #DSSSVVDDDDCSSDy      X         XXX XrDDSSSDSDSDSDSSVSSDDVC;    ..   ...           ...        ",
"           ..   .    .        .   *CCDSSDDSDDSDVVu   XX X X         XXXiSSVSSDDDSSSSSSSVSVDDC#         ....         ....        ",
" ..    .        ....     . .    XX:CSSSVSSVVVVDDSy.X                   ySSSSSSSSSDDSDSSSDSSSV=     .... .    ..    .   . . .   .",
"            . .. . .  .   .     XX,DDDVVVDSSFDDDSy.                    rSSSSVSSSSDSSDDDSDSSVA*    ..... . .  .... .         .  .",
"   .     ...          . .   . . XXX=-=@=:=-====-*O                   X uVSSSSSSSDSDDSSDSFSSSA@X  .....    .     ..  .     .     ",
"              .    . . . .   .  X       XX X  X                      XXpSSSDSSVSSDSDSSSDSSVDA$   ........   ..        .         ",
" .           ... .   ..      ..                X          X      XX    rSSVDSSVDSDSSDDDSSSVDD@ X..   .....      .     . ..     .",
".           .      .  ..      .                X          X        X   uSSSSSDDSVSVSSSVSSSDSDO  .. .    ..  .   .  .. .     ..  ",
"                ..  . .       .                X               X  X   XySVSSSVSSSSSSSSVSSSDCF@   ... ....   .              . . .",
"                 .   .   . .  .                X                  XX   uDSVSDDSVSSDSSSSVDDVDD=        ...   . ..      . .     . ",
" .  .        .....  .    . .  ..   ..    . .... ...     XXXXX          pSVSSSSSSSSDDDSDSSSSSS*X     .... .            .... .. ..",
" . . ....... ....  .... .. .  . X   ... ..........  ..  @321224<<<<<<<<dVSVSSDSSSDSVVNzzxxzxz@XX       .  .       ..... .. .  ..",
"    .  .  .     ....... ..... ..     .. ...  ... ...    8CSVSSSSVSVSVVSVSSSVSSSSSSSDDaoo o          ......      ... ..     .  . ",
"    ....... .     ...   ... . ..          . .... . .    7VVVSSSSSSVSSSSSSSSSSSDDSSSSSdoo          ........   .  ... .      ..   ",
"    .              ...      .  .....   .    .           9VDVVSSSSSSSSVSSSDSSSSSSDSVSSs XX            ... .      ..   ....    ...",
"    ..     .       ...      .. . ..    . .  .  .        9DSDDSVVSVSSSVSSSDDSSSSSDSDSSs XX X          ..  .          .....      .",
"                .....  .. ....... .     ....   . .      9CDSSVSDSSSSSSSSSSSSSSSSSSVSSaXXXX          .. .      ..     .....      ",
"            ..  .. ..    .......     .  ....    .       7DDSSSSSSVSSSSSSSSSSSSSSVVVSVsX XX                      .    .  ..      ",
"    ....   ..   .....  ...... ....    ..  .  .          7CCDSSSDSSSSSSSSSSSDDSSSVVCCCsX          ......         .. .  ..  ......",
"       . .....   .....  .   .... . . ... . .  .. .      8CDVDSDDDSSSSSSSSSSSSSf54<444*      ..   ........       ..  . ..........",
"..  ..  .....    ..   .   ......  .. .  .   . .  .      7SCDSDCDSSSSSDSDSSDSSDy.    X             ......        ....  . .. .    ",
"..  ..  .             . .  .....   . ..       ..        8SVSSDSVVSSSSSDSSSSSSSio    X   .           ..  ....      ............. ",
"..   .  ..       . .   . ........ ..        .   . ..    8DSDSSDVSDSSSSDDDSSSSSyo                     .. .  .        ...... .....",
"        ...   . .... .....  .. .  ..   ..  .. ..  .     8VSVSSVCSSSVSSSSSSSVSSp                     ...     .  ..   .. ...  .. .",
". .     ...     .... ........... . .   .  . ... . .     9FDVSDSDDVDSSSDSSSSDSSp  X                    ..... ..  .   ........  . ",
"     ...        ....  .........  ...  ..... ..    . .   8DDFFFVVVDVSDSDDSSSSSDu X           .        ... ..         . .......   ",
".    . .      .. . ... .  ..   . .    .   . ..     .    ,rrqtw0ee00trrrjSDSVSSmgjjjjjfjjhdjjk+                   .           .  ",
"     . ..   .       .  ..  .          .    .  .  .  o   o  X  X.XXXX   tDSSSSSDSSSVVSSVVSSSSC* X                 .    . .  .    ",
"    .  ...      .     . .    .  ..  ..   .    .           XX      X    uSSSSSSSSSSSSSSSSVSSVV* X X       .               ...  ..",
"..  .       ..   .    ..  .  .    .  . . ..  .   .           X         ySSSSSSSSSSSSSSSSSSVVS*  X X   .  .  .   ..      ....  . ",
".       .   ....       ..  . .           ..  . .. ..      o            rSSSSSSSSSSSSSVSDSVVVF@   .         .                    ",
".       ..  ..  .     ...  .... .  .    ...    .   .  o.         X     ySSSSSSVSSSSSVVSSSSSVD@XX     ..             .   . .   . ",
"....    ......             ....       . . .  .    .  oo o   .     X    ySSSSSSSSSSSSVVSDSVSSD* X .       ..    . ..         .  .",
" ... .  ....      .. ..   . ...    .    .          . o   o   .         rSSSSSSSSDSSSSSSSSSSSG*XX  ...  .  ..    ..              ",
".. ....       .  .    . . .    . .               .  . . .. . . .       uSSSSSSSSSSSSSSSSSVVDC#  ..   . .    .                   ",
"     ..  .    ..  .  .     ..          .           o .......  ..       uSSSSSSSSSSSSSSSSVSVDD*           . ..      .  .        .",
"...   .  . . ..    .....  .    . .       X       o. ......  .  .       rSSSSSSSSSSSSSSSSSVVVG;                         . ...    ",
"        .  .. . .  ..   . ...  .  .                  .. ......         rSSSSSSSSSSSDSSSDSSVCC; X.    .  ..  .   .     .  .      ",
"..    . ..   ...  .  .  . ...    o                    .......          rSSSSSSSSDSDSSDDDSDSSC@XX     . .              .     ....",
"....  . .   .......  ...  ..  .          X        . .  X .    X     XX rSSSVSSSSDSSDDSDSSSSCC*XX X   .  .            ..        .",
"            ....  ..  ..  .      XXX .         X       .             X 0SSSSSSSSSSSDSDDSSSVSC#  X XX    .      ..    .         .",
"     ...   .. ... ....            %w0990e099q0w992     .               uSSSSSSSSSDDSSDDSSDSSC@  X                     ..        ",
". ..    ...... . .   ... . ....  X:SVVDDCVVVVVDVCyXXX            .     rCCSSDVDSSDSDSDDDDVSSD#        ..            .           ",
". ..      .... .  .  .  . .   . XX*VDSVVSVSVVDVCDyXX          .  .   XXuDSDSVDDSDDSSSSSSSSSSD# X .    ..        .      . .    ..",
"  .   ..        .  .  .....  .  XX-DCVSSSSSSSDSSVy   XXXo             XuSSSVSDDSSVSSDSDSSDDDD*XX   ......       . .     ...    .",
"....          .  .. . .  . .    XX*FVDVVDDVSVDDSVy   X       . .      XrSDVSSSDDSSSSSDSSSSSDD#XX  .....              . .        ",
"                   . .  ....    X *DDCSSVVSDDDVDCyXX      .  . .       0DDVVSSSSSSSSSSSSSSSSC#       .            .  .         .",
"..      .  .         .  . ..      :DVVVVSVVDVDSDCyXX      ..   . X     rVVCVSSSSSDSSDSSVDDDDG#       .           .      ..      ",
"..  ... .  ...  ...      . .      *SVDVCDDDSVSVSVe           .      X XuSDVDVSSSSSDSSSSSDVDDC#         ...        .   .         ",
"... ...     .. ..  ..           X *VVSDDVSDVDCDSVe       . .          XpDSDSSSSDSSSSSSDSVDDDG#      .....   ..     .  ..  .     ",
"      ..     .    . ....        XX,DVDVSSSDDVDVSVy X X                 uSSSSSSSDSSSSSDDSSDSSC#XX                .   . ..     ...",
"    .             . ..          XX:GSDDDDSCDDVDSVeXX          X        wSSDDSDDDSSDSSSDDSDSSC*X                     . ..    .. .",
"    ...   . .    ...  .         XX*DVSVCDVFVSDSDSeXX                X XiDSSSSSSSSSSSSSSSSSSSV*                   .  ..          ",
".   ...     . . .....            X*VVVDVVSSVSSDVSrXX           X     XXyDDSSSSSSSSSSSSSSSSSSV#      .           .....           ",
".  .        . ..                  *VCSVSVDVDSSSDFuXXX    X  XX     XXXXyDDSSSSSSDSSSSSSSSSSSD+       .        ..    ...      . .",
"            .  . .                #DVDSVVVVSSVVDFs11::::-11*2,:,:*:,-11pSSSSSSSSSSSSSSSSSSSSV*                 ..          . ...",
"   .  ..     .   .             XXX*DVVVSCSVDSSSDSVSVDSSDSSVSSDDSSSSSSSSSSDSSSSSDSSSDDSSSSSSSV@XX                  ..        ..  ",
". .......    .          .      XXX:DDSSDDVSSDVSVSSSSSSSSVSSVDSSSSDVSDSSDDDSSDDSSSSSSSSSDSSSSD@XX                 ...      .    .",
".. ..  .     .     .      ..    XX*DDDSSSSVVSSSDDVSVSVDDSDSDSSSSVVSSDSSSSSSSVSSVSDDDVSSSVSSZA%                       ...        ",
" . .  ..    ......      ....     X*DDDSSSSSSSSDSDVVVSDVDSSSDVSSDVSSSSSDSSDSCDSSSSDDCSDSSSDVZA%               .     .....  .     ",
".  .  ..   .........   .....    XX*DSSSVSVDSSDVSSVDDSSSDDSSSSSDDSSSSSDDSDDDDSVSDDSSSDSDDSVAAA%.                 .   ..  .       ",
".    ..   ..     ...   .  ..      *SSSSVSSDDVSSVSCVSVSCVSSSSSSVSSSSSSSSSSVVDVDVSDDSDDSDSVSGAA= .                        .     . ",
" ...    .. .   .  ......          +kkzkxkxBVSVDDDDSDSVVDSDVSVVSSSSSSSSSSSSSVDSSSDSVDVMxxzzlxj...  .         .                   ",
" ...    .. .  .. ..  ... ..          XX  .gSDSSSSSVSDSDVSSSSSDDSSSSSSSDSSSVSSSDDSSDSVt  ooX   ..         .       .  .        . .",
" ...    ..  .    . . ... .          X   X hSDSDSSSSSVSSVSSVSSVSSDSSSSSDSSSSVDDDSSDVDV0  XX          ..     .     .        ......",
"        ..  .      .....             X  XXfSSSSDDSDSVCVSVSSVDSDSSSSSSSDSSSSSDDSDVDSDVq XX  X         ..    .     .         ..  .",
"....  .  ....  . ...    ......          XXhVFFZZSSSSVSVSVSFDDSSSSDVDDSSSSSSSSVSDDVSSDrXX                          . ..    ....  ",
"   .  .  . ... ....    .  ..            XXhVFFFZDDDSVVSSSSSSSDSSDSCDDDSSDDSSSSDSDDVSD0XX          . .. .        .   .   . ... ..",
".  . .    ....        .....  .           XfZFFGGVCVSSSSVCDDSDSDSDSSVSDSDSSSSVSVVSDVVV0XX   .    ... .. .             .. ..      ",
"....       ..    .      .....            XjDFSGGDDCDZVVVDCFDDDSDDSDVDSDDDFDSDVSZCCDCV9           ..      ...      .  .. ..  .  .",
"    ..   ...  .  ...    ... .             #*$$&&##O&$&+*#&+++&@@&@++@+@@+O=@*==+@O*+&o  ... ..    . ...   ..     ....     . . ..",
" .  ..  ...   ..  ..    .. .   .           X  .  X      XX  XX  X   oo o  X     .   X   .   .   .... ..   ..        .     .     ",
"    .  . .. ... ....  .. ..           X   X     X X      X            oX                .. .       . .......    .... .    .   ..",
"         .. ........     .    .                 XX X                 XXX      X X  X    .. ....    .    ....    .  . .          ",
".      .    .. ........  ..       ..           .    .     .  .                          .. .    ...  ... ...  . ..... ..     ...",
". . ..  .   .   . .. .     ...    ..        ....   ..                                   ....  ..... .... ..   . ........     .  ",
"..       .      .........  ... .  . . . ..   .. .....    .                .         .    ...   .  ......    ...........         ",
"...  .      .   ......  .  ..... .. .....       .....    .                . . ..    ..  .... .    .... ... .. . .. ....   .   . ",
". .   .    .    ........ . . .......   ...  ..  ..... .  .    .          .. .  .      . ....  .. .. .....  .  . .. ... .  .    .",
"  .  . ....     ...... . .  ..  ..  ... . . ....  ..  .   .               .           . . . .   ... .....    .  ..... .....     ",
"    .  .      ... ......... . .  .  .   ... ....   .     .   .                         ..     ....  ..  . ..  . .....  ..... .  ",
"       .   . ............   ... ..... ..... ... ..  .       .           .  ..  .                    ....  ..  . ...........  .. ",
"        ...  .. . .... ....     ......   .. ..  ..                 .. ..              .... ..        .     .   ..... ..... ..   ",
"        .   ... ......  ....  . ..     . .. .    ...  .              ..                 ..... .     ....     .  .. .... . ..    ",
"            ... ....... ...  .  ...   ...   . .. ...  ..          .   .             . ..   .....     ...  .. ...  .......  ... .",
"  ... .  .  . ........ ......  .    .         .... .   . .      .. .. ..      .     . ....   ...  . ....  ..  ..........  ......",
".    ..    .    ....  ....... ..    .... ...   . ..          .      .     .         ..  ......      ...   ..... . . ........  . ",
".    .. ..       .... .. . ..  ..    ...  ..     ..      ...    .. ..        .  ..   .  ......  .   ..    ....  ..... ..... . . ",
"    . ..          . ........    .   ..... ..                           .    ... ..              ..   .    ...    .......... . ..",
"    ......       .... .......   .   ...  ...          .. ..  . .    . .    .    ..  .       .            ....    . .......  ...."
};
